<?xml version="1.0" encoding="UTF-8"?>
<svg xmlns="http://www.w3.org/2000/svg" xmlns:xlink="http://www.w3.org/1999/xlink" width="392" height="289" viewBox="0 0 392 289">
<defs>
<g>
<g id="glyph-0-0-882da4c3">
<path d="M 6.828125 -2 C 6.828125 -2.140625 6.71875 -2.140625 6.625 -2.140625 C 6.453125 -2.140625 6.4375 -2.125 6.375 -1.90625 C 5.984375 -0.703125 5.296875 -0.15625 4.703125 -0.15625 C 4.421875 -0.15625 4.046875 -0.328125 4.046875 -1.046875 C 4.046875 -1.390625 4.203125 -1.984375 4.3125 -2.46875 L 4.78125 -4.375 C 4.984375 -5.109375 5.359375 -5.875 6.015625 -5.875 C 6.0625 -5.875 6.40625 -5.875 6.640625 -5.6875 C 6.078125 -5.546875 6.078125 -5.015625 6.078125 -5.015625 C 6.078125 -4.828125 6.203125 -4.5625 6.5625 -4.5625 C 6.8125 -4.5625 7.25 -4.765625 7.25 -5.3125 C 7.25 -6.015625 6.4375 -6.1875 6.03125 -6.1875 C 5.265625 -6.1875 4.796875 -5.5 4.65625 -5.234375 C 4.359375 -6.078125 3.671875 -6.1875 3.3125 -6.1875 C 1.921875 -6.1875 1.15625 -4.359375 1.15625 -4.03125 C 1.15625 -3.890625 1.296875 -3.890625 1.375 -3.890625 C 1.546875 -3.890625 1.546875 -3.90625 1.625 -4.125 C 2 -5.328125 2.734375 -5.875 3.296875 -5.875 C 3.703125 -5.875 3.96875 -5.5625 3.96875 -5 C 3.96875 -4.65625 3.796875 -3.96875 3.671875 -3.453125 L 3.34375 -2.1875 C 3.125 -1.28125 2.828125 -0.15625 1.984375 -0.15625 C 1.953125 -0.15625 1.609375 -0.15625 1.375 -0.34375 C 1.796875 -0.46875 1.921875 -0.8125 1.921875 -1.015625 C 1.921875 -1.390625 1.625 -1.46875 1.4375 -1.46875 C 1.09375 -1.46875 0.734375 -1.171875 0.734375 -0.71875 C 0.734375 -0.171875 1.328125 0.15625 1.96875 0.15625 C 2.640625 0.15625 3.109375 -0.375 3.34375 -0.796875 C 3.625 0 4.3125 0.15625 4.671875 0.15625 C 6.125 0.15625 6.828125 -1.71875 6.828125 -2 Z M 6.828125 -2 "/>
</g>
<g id="glyph-1-0-882da4c3">
<path d="M 3.578125 3.21875 C 3.578125 3.0625 3.453125 2.9375 3.296875 2.9375 L 2.15625 2.9375 L 2.15625 -9.9375 L 3.296875 -9.9375 C 3.453125 -9.9375 3.578125 -10.0625 3.578125 -10.21875 C 3.578125 -10.375 3.453125 -10.5 3.296875 -10.5 L 1.59375 -10.5 L 1.59375 3.5 L 3.296875 3.5 C 3.453125 3.5 3.578125 3.375 3.578125 3.21875 Z M 3.578125 3.21875 "/>
</g>
<g id="glyph-1-1-882da4c3">
<path d="M 7.15625 0 L 7.15625 -0.4375 C 6.640625 -0.4375 6.328125 -0.4375 5.796875 -1.171875 L 4.015625 -3.6875 C 4 -3.703125 3.9375 -3.796875 3.9375 -3.84375 C 3.9375 -3.890625 4.921875 -4.734375 5.0625 -4.84375 C 5.953125 -5.5625 6.53125 -5.59375 6.828125 -5.59375 L 6.828125 -6.03125 C 6.421875 -5.984375 6.25 -5.984375 5.859375 -5.984375 C 5.34375 -5.984375 4.484375 -6.015625 4.28125 -6.03125 L 4.28125 -5.59375 C 4.546875 -5.59375 4.6875 -5.4375 4.6875 -5.25 C 4.6875 -4.96875 4.5 -4.796875 4.375 -4.703125 L 2.40625 -3 L 2.40625 -9.71875 L 0.390625 -9.5625 L 0.390625 -9.125 C 1.375 -9.125 1.484375 -9.03125 1.484375 -8.34375 L 1.484375 -1.0625 C 1.484375 -0.4375 1.328125 -0.4375 0.390625 -0.4375 L 0.390625 0 L 1.921875 -0.046875 L 3.453125 0 L 3.453125 -0.4375 C 2.515625 -0.4375 2.359375 -0.4375 2.359375 -1.0625 L 2.359375 -2.5 L 3.265625 -3.28125 C 4.34375 -1.796875 4.921875 -1.015625 4.921875 -0.75 C 4.921875 -0.484375 4.6875 -0.4375 4.421875 -0.4375 L 4.421875 0 L 5.9375 -0.046875 C 6.34375 -0.046875 6.75 -0.03125 7.15625 0 Z M 7.15625 0 "/>
</g>
<g id="glyph-1-2-882da4c3">
<path d="M 11.375 0 L 11.375 -0.4375 C 10.65625 -0.4375 10.296875 -0.4375 10.296875 -0.859375 L 10.296875 -3.53125 C 10.296875 -4.734375 10.296875 -5.171875 9.859375 -5.671875 C 9.65625 -5.90625 9.203125 -6.1875 8.390625 -6.1875 C 7.203125 -6.1875 6.59375 -5.34375 6.359375 -4.8125 C 6.15625 -6.03125 5.125 -6.1875 4.5 -6.1875 C 3.46875 -6.1875 2.8125 -5.59375 2.421875 -4.71875 L 2.421875 -6.1875 L 0.453125 -6.03125 L 0.453125 -5.59375 C 1.421875 -5.59375 1.546875 -5.5 1.546875 -4.8125 L 1.546875 -1.0625 C 1.546875 -0.4375 1.390625 -0.4375 0.453125 -0.4375 L 0.453125 0 L 2.03125 -0.046875 L 3.59375 0 L 3.59375 -0.4375 C 2.65625 -0.4375 2.5 -0.4375 2.5 -1.0625 L 2.5 -3.640625 C 2.5 -5.09375 3.5 -5.875 4.390625 -5.875 C 5.28125 -5.875 5.4375 -5.125 5.4375 -4.328125 L 5.4375 -1.0625 C 5.4375 -0.4375 5.28125 -0.4375 4.34375 -0.4375 L 4.34375 0 L 5.921875 -0.046875 L 7.484375 0 L 7.484375 -0.4375 C 6.546875 -0.4375 6.390625 -0.4375 6.390625 -1.0625 L 6.390625 -3.640625 C 6.390625 -5.09375 7.390625 -5.875 8.28125 -5.875 C 9.171875 -5.875 9.328125 -5.125 9.328125 -4.328125 L 9.328125 -1.0625 C 9.328125 -0.4375 9.171875 -0.4375 8.234375 -0.4375 L 8.234375 0 L 9.8125 -0.046875 Z M 11.375 0 "/>
</g>
<g id="glyph-1-3-882da4c3">
<path d="M 2.296875 3.5 L 2.296875 -10.5 L 0.59375 -10.5 C 0.4375 -10.5 0.3125 -10.375 0.3125 -10.21875 C 0.3125 -10.0625 0.4375 -9.9375 0.59375 -9.9375 L 1.734375 -9.9375 L 1.734375 2.9375 L 0.59375 2.9375 C 0.4375 2.9375 0.3125 3.0625 0.3125 3.21875 C 0.3125 3.375 0.4375 3.5 0.59375 3.5 Z M 2.296875 3.5 "/>
</g>
<g id="glyph-1-4-882da4c3">
<path d="M 10.109375 -3.5 C 10.109375 -3.65625 9.984375 -3.78125 9.828125 -3.78125 L 1.0625 -3.78125 C 0.90625 -3.78125 0.78125 -3.65625 0.78125 -3.5 C 0.78125 -3.34375 0.90625 -3.21875 1.0625 -3.21875 L 9.828125 -3.21875 C 9.984375 -3.21875 10.109375 -3.34375 10.109375 -3.5 Z M 10.109375 -3.5 "/>
</g>
<g id="glyph-1-5-882da4c3">
<path d="M 6.28125 -2.8125 C 6.28125 -4.484375 5.140625 -5.875 3.625 -5.875 C 2.953125 -5.875 2.359375 -5.65625 1.84375 -5.171875 L 1.84375 -7.890625 C 2.125 -7.8125 2.59375 -7.71875 3.03125 -7.71875 C 4.765625 -7.71875 5.734375 -8.984375 5.734375 -9.171875 C 5.734375 -9.25 5.703125 -9.328125 5.59375 -9.328125 C 5.59375 -9.328125 5.5625 -9.328125 5.484375 -9.28125 C 5.203125 -9.15625 4.515625 -8.875 3.578125 -8.875 C 3.03125 -8.875 2.375 -8.96875 1.71875 -9.265625 C 1.609375 -9.3125 1.546875 -9.3125 1.546875 -9.3125 C 1.40625 -9.3125 1.40625 -9.203125 1.40625 -8.96875 L 1.40625 -4.828125 C 1.40625 -4.578125 1.40625 -4.46875 1.609375 -4.46875 C 1.703125 -4.46875 1.734375 -4.515625 1.796875 -4.59375 C 1.953125 -4.8125 2.46875 -5.578125 3.59375 -5.578125 C 4.328125 -5.578125 4.671875 -4.921875 4.78125 -4.671875 C 5.015625 -4.15625 5.046875 -3.609375 5.046875 -2.90625 C 5.046875 -2.421875 5.046875 -1.578125 4.703125 -1 C 4.375 -0.453125 3.84375 -0.078125 3.203125 -0.078125 C 2.1875 -0.078125 1.390625 -0.828125 1.140625 -1.65625 C 1.1875 -1.640625 1.234375 -1.625 1.390625 -1.625 C 1.84375 -1.625 2.09375 -1.96875 2.09375 -2.3125 C 2.09375 -2.640625 1.84375 -3 1.390625 -3 C 1.1875 -3 0.703125 -2.890625 0.703125 -2.25 C 0.703125 -1.046875 1.671875 0.3125 3.234375 0.3125 C 4.859375 0.3125 6.28125 -1.03125 6.28125 -2.8125 Z M 6.28125 -2.8125 "/>
</g>
<g id="glyph-1-6-882da4c3">
<path d="M 6.4375 -4.484375 C 6.4375 -5.59375 6.375 -6.71875 5.875 -7.75 C 5.234375 -9.09375 4.09375 -9.328125 3.5 -9.328125 C 2.65625 -9.328125 1.640625 -8.953125 1.0625 -7.65625 C 0.609375 -6.6875 0.546875 -5.59375 0.546875 -4.484375 C 0.546875 -3.4375 0.609375 -2.171875 1.171875 -1.109375 C 1.78125 0.03125 2.796875 0.3125 3.484375 0.3125 C 4.234375 0.3125 5.3125 0.015625 5.921875 -1.3125 C 6.375 -2.28125 6.4375 -3.375 6.4375 -4.484375 Z M 5.28125 -4.640625 C 5.28125 -3.59375 5.28125 -2.640625 5.125 -1.75 C 4.90625 -0.421875 4.109375 0 3.484375 0 C 2.9375 0 2.109375 -0.34375 1.859375 -1.6875 C 1.703125 -2.53125 1.703125 -3.828125 1.703125 -4.640625 C 1.703125 -5.546875 1.703125 -6.46875 1.8125 -7.21875 C 2.09375 -8.890625 3.140625 -9.015625 3.484375 -9.015625 C 3.953125 -9.015625 4.875 -8.765625 5.140625 -7.375 C 5.28125 -6.59375 5.28125 -5.53125 5.28125 -4.640625 Z M 5.28125 -4.640625 "/>
</g>
<g id="glyph-1-7-882da4c3">
<path d="M 5.859375 0 L 5.859375 -0.4375 L 5.421875 -0.4375 C 4.15625 -0.4375 4.109375 -0.59375 4.109375 -1.109375 L 4.109375 -8.953125 C 4.109375 -9.296875 4.109375 -9.328125 3.796875 -9.328125 C 2.921875 -8.421875 1.6875 -8.421875 1.25 -8.421875 L 1.25 -8 C 1.53125 -8 2.359375 -8 3.078125 -8.359375 L 3.078125 -1.109375 C 3.078125 -0.609375 3.03125 -0.4375 1.78125 -0.4375 L 1.328125 -0.4375 L 1.328125 0 C 1.8125 -0.046875 3.03125 -0.046875 3.59375 -0.046875 C 4.15625 -0.046875 5.375 -0.046875 5.859375 0 Z M 5.859375 0 "/>
</g>
<g id="glyph-1-8-882da4c3">
<path d="M 3.859375 -2.625 L 3.859375 -3.4375 L 0.15625 -3.4375 L 0.15625 -2.625 Z M 3.859375 -2.625 "/>
</g>
<g id="glyph-1-9-882da4c3">
<path d="M 6.390625 -4.609375 C 6.390625 -8.375 4.78125 -9.328125 3.546875 -9.328125 C 2.765625 -9.328125 2.09375 -9.078125 1.484375 -8.4375 C 0.90625 -7.8125 0.59375 -7.21875 0.59375 -6.171875 C 0.59375 -4.421875 1.8125 -3.046875 3.390625 -3.046875 C 4.234375 -3.046875 4.8125 -3.640625 5.140625 -4.453125 L 5.140625 -4 C 5.140625 -0.734375 3.6875 -0.078125 2.875 -0.078125 C 2.625 -0.078125 1.875 -0.109375 1.5 -0.59375 C 2.109375 -0.59375 2.21875 -1 2.21875 -1.234375 C 2.21875 -1.671875 1.890625 -1.875 1.578125 -1.875 C 1.359375 -1.875 0.9375 -1.75 0.9375 -1.203125 C 0.9375 -0.265625 1.6875 0.3125 2.890625 0.3125 C 4.6875 0.3125 6.390625 -1.59375 6.390625 -4.609375 Z M 5.109375 -5.890625 C 5.109375 -4.734375 4.640625 -3.375 3.40625 -3.375 C 3.171875 -3.375 2.53125 -3.375 2.09375 -4.25 C 1.84375 -4.78125 1.84375 -5.46875 1.84375 -6.15625 C 1.84375 -6.921875 1.84375 -7.578125 2.140625 -8.09375 C 2.515625 -8.796875 3.046875 -8.96875 3.546875 -8.96875 C 4.1875 -8.96875 4.640625 -8.5 4.890625 -7.875 C 5.046875 -7.421875 5.109375 -6.53125 5.109375 -5.890625 Z M 5.109375 -5.890625 "/>
</g>
<g id="glyph-1-10-882da4c3">
<path d="M 2.6875 -0.734375 C 2.6875 -1.140625 2.359375 -1.484375 1.953125 -1.484375 C 1.546875 -1.484375 1.203125 -1.140625 1.203125 -0.734375 C 1.203125 -0.34375 1.546875 0 1.953125 0 C 2.359375 0 2.6875 -0.34375 2.6875 -0.734375 Z M 2.6875 -0.734375 "/>
</g>
<g id="glyph-1-11-882da4c3">
<path d="M 6.28125 -2.4375 L 5.9375 -2.4375 C 5.859375 -2.015625 5.765625 -1.40625 5.625 -1.1875 C 5.53125 -1.078125 4.609375 -1.078125 4.296875 -1.078125 L 1.78125 -1.078125 L 3.265625 -2.515625 C 5.453125 -4.453125 6.28125 -5.203125 6.28125 -6.609375 C 6.28125 -8.203125 5.03125 -9.328125 3.3125 -9.328125 C 1.734375 -9.328125 0.703125 -8.03125 0.703125 -6.796875 C 0.703125 -6 1.40625 -6 1.4375 -6 C 1.6875 -6 2.171875 -6.171875 2.171875 -6.75 C 2.171875 -7.109375 1.921875 -7.46875 1.421875 -7.46875 C 1.3125 -7.46875 1.28125 -7.46875 1.25 -7.46875 C 1.5625 -8.375 2.328125 -8.890625 3.140625 -8.890625 C 4.40625 -8.890625 5.015625 -7.75 5.015625 -6.609375 C 5.015625 -5.484375 4.3125 -4.375 3.546875 -3.515625 L 0.859375 -0.515625 C 0.703125 -0.359375 0.703125 -0.34375 0.703125 0 L 5.890625 0 Z M 6.28125 -2.4375 "/>
</g>
<g id="glyph-1-12-882da4c3">
<path d="M 9.125 -3.609375 L 8.78125 -3.609375 C 8.421875 -1.453125 8.109375 -0.4375 5.703125 -0.4375 L 3.84375 -0.4375 C 3.171875 -0.4375 3.15625 -0.53125 3.15625 -1 L 3.15625 -4.734375 L 4.40625 -4.734375 C 5.765625 -4.734375 5.921875 -4.28125 5.921875 -3.09375 L 6.265625 -3.09375 L 6.265625 -6.796875 L 5.921875 -6.796875 C 5.921875 -5.59375 5.765625 -5.171875 4.40625 -5.171875 L 3.15625 -5.171875 L 3.15625 -8.53125 C 3.15625 -8.984375 3.171875 -9.09375 3.84375 -9.09375 L 5.640625 -9.09375 C 7.78125 -9.09375 8.15625 -8.3125 8.390625 -6.375 L 8.734375 -6.375 L 8.34375 -9.515625 L 0.46875 -9.515625 L 0.46875 -9.09375 L 0.796875 -9.09375 C 1.875 -9.09375 1.90625 -8.9375 1.90625 -8.421875 L 1.90625 -1.09375 C 1.90625 -0.59375 1.875 -0.4375 0.796875 -0.4375 L 0.46875 -0.4375 L 0.46875 0 L 8.546875 0 Z M 9.125 -3.609375 "/>
</g>
<g id="glyph-1-13-882da4c3">
<path d="M 6.390625 -2.359375 C 6.390625 -2.859375 6.25 -3.484375 5.71875 -4.078125 C 5.453125 -4.375 5.21875 -4.515625 4.328125 -5.0625 C 5.328125 -5.59375 6.015625 -6.3125 6.015625 -7.234375 C 6.015625 -8.53125 4.78125 -9.328125 3.5 -9.328125 C 2.09375 -9.328125 0.96875 -8.28125 0.96875 -6.984375 C 0.96875 -6.734375 1 -6.109375 1.578125 -5.453125 C 1.734375 -5.28125 2.25 -4.921875 2.609375 -4.6875 C 1.796875 -4.28125 0.59375 -3.5 0.59375 -2.109375 C 0.59375 -0.625 2.015625 0.3125 3.484375 0.3125 C 5.0625 0.3125 6.390625 -0.859375 6.390625 -2.359375 Z M 5.40625 -7.234375 C 5.40625 -6.4375 4.859375 -5.765625 4.015625 -5.28125 L 2.28125 -6.390625 C 1.640625 -6.8125 1.578125 -7.296875 1.578125 -7.53125 C 1.578125 -8.390625 2.484375 -8.96875 3.484375 -8.96875 C 4.515625 -8.96875 5.40625 -8.25 5.40625 -7.234375 Z M 5.703125 -1.84375 C 5.703125 -0.8125 4.640625 -0.078125 3.5 -0.078125 C 2.296875 -0.078125 1.28125 -0.953125 1.28125 -2.109375 C 1.28125 -2.921875 1.734375 -3.828125 2.921875 -4.484375 L 4.640625 -3.390625 C 5.046875 -3.125 5.703125 -2.703125 5.703125 -1.84375 Z M 5.703125 -1.84375 "/>
</g>
<g id="glyph-1-14-882da4c3">
<path d="M 6.59375 -2.3125 L 6.59375 -2.75 L 5.1875 -2.75 L 5.1875 -9.109375 C 5.1875 -9.390625 5.1875 -9.484375 4.96875 -9.484375 C 4.84375 -9.484375 4.796875 -9.484375 4.6875 -9.3125 L 0.390625 -2.75 L 0.390625 -2.3125 L 4.109375 -2.3125 L 4.109375 -1.09375 C 4.109375 -0.59375 4.09375 -0.4375 3.046875 -0.4375 L 2.765625 -0.4375 L 2.765625 0 C 3.328125 -0.046875 4.0625 -0.046875 4.640625 -0.046875 C 5.234375 -0.046875 5.984375 -0.046875 6.546875 0 L 6.546875 -0.4375 L 6.265625 -0.4375 C 5.21875 -0.4375 5.1875 -0.59375 5.1875 -1.09375 L 5.1875 -2.3125 Z M 4.203125 -2.75 L 0.78125 -2.75 L 4.203125 -7.96875 Z M 4.203125 -2.75 "/>
</g>
<g id="glyph-1-15-882da4c3">
<path d="M 6.796875 -9.015625 L 3.390625 -9.015625 C 1.6875 -9.015625 1.65625 -9.203125 1.59375 -9.46875 L 1.25 -9.46875 L 0.78125 -6.578125 L 1.140625 -6.578125 C 1.171875 -6.796875 1.296875 -7.6875 1.484375 -7.859375 C 1.578125 -7.9375 2.671875 -7.9375 2.859375 -7.9375 L 5.75 -7.9375 L 4.1875 -5.71875 C 2.921875 -3.84375 2.46875 -1.890625 2.46875 -0.46875 C 2.46875 -0.328125 2.46875 0.3125 3.109375 0.3125 C 3.75 0.3125 3.75 -0.328125 3.75 -0.46875 L 3.75 -1.171875 C 3.75 -1.953125 3.796875 -2.71875 3.90625 -3.46875 C 3.96875 -3.796875 4.15625 -5 4.78125 -5.859375 L 6.65625 -8.53125 C 6.796875 -8.6875 6.796875 -8.71875 6.796875 -9.015625 Z M 6.796875 -9.015625 "/>
</g>
<g id="glyph-1-16-882da4c3">
<path d="M 6.390625 -2.859375 C 6.390625 -4.640625 5.15625 -5.984375 3.59375 -5.984375 C 2.640625 -5.984375 2.125 -5.265625 1.84375 -4.59375 L 1.84375 -4.921875 C 1.84375 -8.46875 3.578125 -8.96875 4.296875 -8.96875 C 4.640625 -8.96875 5.21875 -8.890625 5.53125 -8.40625 C 5.3125 -8.40625 4.765625 -8.40625 4.765625 -7.78125 C 4.765625 -7.34375 5.09375 -7.140625 5.40625 -7.140625 C 5.625 -7.140625 6.046875 -7.265625 6.046875 -7.8125 C 6.046875 -8.65625 5.4375 -9.328125 4.265625 -9.328125 C 2.484375 -9.328125 0.59375 -7.515625 0.59375 -4.421875 C 0.59375 -0.6875 2.21875 0.3125 3.515625 0.3125 C 5.0625 0.3125 6.390625 -1.015625 6.390625 -2.859375 Z M 5.140625 -2.875 C 5.140625 -2.203125 5.140625 -1.5 4.90625 -1 C 4.484375 -0.15625 3.84375 -0.078125 3.515625 -0.078125 C 2.625 -0.078125 2.21875 -0.921875 2.125 -1.140625 C 1.875 -1.796875 1.875 -2.90625 1.875 -3.15625 C 1.875 -4.25 2.328125 -5.65625 3.578125 -5.65625 C 3.8125 -5.65625 4.453125 -5.65625 4.890625 -4.78125 C 5.140625 -4.265625 5.140625 -3.5625 5.140625 -2.875 Z M 5.140625 -2.875 "/>
</g>
<g id="glyph-1-17-882da4c3">
<path d="M 6.390625 -2.390625 C 6.390625 -3.546875 5.515625 -4.640625 4.0625 -4.921875 C 5.203125 -5.3125 6.015625 -6.28125 6.015625 -7.390625 C 6.015625 -8.546875 4.78125 -9.328125 3.4375 -9.328125 C 2.03125 -9.328125 0.96875 -8.484375 0.96875 -7.421875 C 0.96875 -6.953125 1.28125 -6.6875 1.6875 -6.6875 C 2.109375 -6.6875 2.390625 -7 2.390625 -7.40625 C 2.390625 -8.109375 1.734375 -8.109375 1.53125 -8.109375 C 1.953125 -8.796875 2.890625 -8.96875 3.390625 -8.96875 C 3.96875 -8.96875 4.734375 -8.671875 4.734375 -7.40625 C 4.734375 -7.234375 4.703125 -6.421875 4.34375 -5.8125 C 3.921875 -5.140625 3.4375 -5.09375 3.09375 -5.078125 C 2.984375 -5.0625 2.640625 -5.046875 2.546875 -5.046875 C 2.4375 -5.03125 2.34375 -5.015625 2.34375 -4.875 C 2.34375 -4.71875 2.4375 -4.71875 2.671875 -4.71875 L 3.296875 -4.71875 C 4.4375 -4.71875 4.953125 -3.765625 4.953125 -2.390625 C 4.953125 -0.484375 3.984375 -0.078125 3.375 -0.078125 C 2.765625 -0.078125 1.71875 -0.328125 1.234375 -1.140625 C 1.71875 -1.078125 2.15625 -1.390625 2.15625 -1.921875 C 2.15625 -2.421875 1.78125 -2.703125 1.375 -2.703125 C 1.03125 -2.703125 0.59375 -2.5 0.59375 -1.890625 C 0.59375 -0.609375 1.890625 0.3125 3.421875 0.3125 C 5.125 0.3125 6.390625 -0.96875 6.390625 -2.390625 Z M 6.390625 -2.390625 "/>
</g>
<g id="glyph-2-0-882da4c3">
<path d="M -2 -6.0625 C -2.140625 -6.0625 -2.140625 -5.890625 -2.140625 -5.859375 C -2.140625 -5.6875 -2.09375 -5.671875 -1.921875 -5.609375 C -1.21875 -5.359375 -0.734375 -4.6875 -0.734375 -4.09375 C -0.734375 -3.8125 -0.84375 -3.578125 -0.96875 -3.296875 C -1.140625 -2.890625 -1.203125 -2.71875 -1.203125 -2.4375 C -1.203125 -2.359375 -1.203125 -2.25 -1.1875 -2.1875 C -1.296875 -2.28125 -1.65625 -2.578125 -2.046875 -2.96875 L -4.046875 -5 C -4.859375 -5.828125 -5.921875 -6.5 -6.046875 -6.5 C -6.1875 -6.5 -6.1875 -6.390625 -6.1875 -6.296875 C -6.1875 -6.125 -6.171875 -6.125 -6 -6.03125 C -5.203125 -5.578125 -5.140625 -5.390625 -5.140625 -5.171875 C -5.140625 -4.90625 -5.28125 -4.78125 -5.640625 -4.515625 C -5.859375 -4.34375 -6.1875 -4.109375 -6.1875 -3.65625 C -6.1875 -2.625 -4.875 -2.015625 -4.59375 -2.015625 C -4.46875 -2.015625 -4.4375 -2.109375 -4.4375 -2.21875 C -4.4375 -2.390625 -4.46875 -2.40625 -4.640625 -2.484375 C -4.9375 -2.59375 -5.296875 -3 -5.296875 -3.515625 C -5.296875 -3.796875 -5.1875 -4.046875 -5.046875 -4.359375 C -4.828125 -4.8125 -4.828125 -4.96875 -4.828125 -5.1875 C -4.59375 -4.96875 -4.4375 -4.84375 -4.21875 -4.625 L -1.9375 -2.328125 C -1.15625 -1.546875 -0.125 -0.875 0.015625 -0.875 C 0.15625 -0.875 0.15625 -1 0.15625 -1.078125 C 0.15625 -1.234375 0.125 -1.25 0.03125 -1.296875 C -0.265625 -1.5 -0.890625 -1.875 -0.890625 -2.40625 C -0.890625 -2.71875 -0.734375 -2.828125 -0.390625 -3.078125 C -0.109375 -3.296875 0.15625 -3.515625 0.15625 -3.953125 C 0.15625 -5.3125 -1.671875 -6.0625 -2 -6.0625 Z M -2 -6.0625 "/>
</g>
<g id="glyph-3-0-882da4c3">
<path d="M 3.21875 -3.578125 C 3.0625 -3.578125 2.9375 -3.453125 2.9375 -3.296875 L 2.9375 -2.15625 L -9.9375 -2.15625 L -9.9375 -3.296875 C -9.9375 -3.453125 -10.0625 -3.578125 -10.21875 -3.578125 C -10.375 -3.578125 -10.5 -3.453125 -10.5 -3.296875 L -10.5 -1.59375 L 3.5 -1.59375 L 3.5 -3.296875 C 3.5 -3.453125 3.375 -3.578125 3.21875 -3.578125 Z M 3.21875 -3.578125 "/>
</g>
<g id="glyph-4-0-882da4c3">
<path d="M 0 -7.15625 L -0.4375 -7.15625 C -0.4375 -6.640625 -0.4375 -6.328125 -1.171875 -5.796875 L -3.6875 -4.015625 C -3.703125 -4 -3.796875 -3.9375 -3.84375 -3.9375 C -3.890625 -3.9375 -4.734375 -4.921875 -4.84375 -5.0625 C -5.5625 -5.953125 -5.59375 -6.53125 -5.59375 -6.828125 L -6.03125 -6.828125 C -5.984375 -6.421875 -5.984375 -6.25 -5.984375 -5.859375 C -5.984375 -5.34375 -6.015625 -4.484375 -6.03125 -4.28125 L -5.59375 -4.28125 C -5.59375 -4.546875 -5.4375 -4.6875 -5.25 -4.6875 C -4.96875 -4.6875 -4.796875 -4.5 -4.703125 -4.375 L -3 -2.40625 L -9.71875 -2.40625 L -9.5625 -0.390625 L -9.125 -0.390625 C -9.125 -1.375 -9.03125 -1.484375 -8.34375 -1.484375 L -1.0625 -1.484375 C -0.4375 -1.484375 -0.4375 -1.328125 -0.4375 -0.390625 L 0 -0.390625 L -0.046875 -1.921875 L 0 -3.453125 L -0.4375 -3.453125 C -0.4375 -2.515625 -0.4375 -2.359375 -1.0625 -2.359375 L -2.5 -2.359375 L -3.28125 -3.265625 C -1.796875 -4.34375 -1.015625 -4.921875 -0.75 -4.921875 C -0.484375 -4.921875 -0.4375 -4.6875 -0.4375 -4.421875 L 0 -4.421875 L -0.046875 -5.9375 C -0.046875 -6.34375 -0.03125 -6.75 0 -7.15625 Z M 0 -7.15625 "/>
</g>
<g id="glyph-5-0-882da4c3">
<path d="M 0 -11.375 L -0.4375 -11.375 C -0.4375 -10.65625 -0.4375 -10.296875 -0.859375 -10.296875 L -3.53125 -10.296875 C -4.734375 -10.296875 -5.171875 -10.296875 -5.671875 -9.859375 C -5.90625 -9.65625 -6.1875 -9.203125 -6.1875 -8.390625 C -6.1875 -7.203125 -5.34375 -6.59375 -4.8125 -6.359375 C -6.03125 -6.15625 -6.1875 -5.125 -6.1875 -4.5 C -6.1875 -3.46875 -5.59375 -2.8125 -4.71875 -2.421875 L -6.1875 -2.421875 L -6.03125 -0.453125 L -5.59375 -0.453125 C -5.59375 -1.421875 -5.5 -1.546875 -4.8125 -1.546875 L -1.0625 -1.546875 C -0.4375 -1.546875 -0.4375 -1.390625 -0.4375 -0.453125 L 0 -0.453125 L -0.046875 -2.03125 L 0 -3.59375 L -0.4375 -3.59375 C -0.4375 -2.65625 -0.4375 -2.5 -1.0625 -2.5 L -3.640625 -2.5 C -5.09375 -2.5 -5.875 -3.5 -5.875 -4.390625 C -5.875 -5.28125 -5.125 -5.4375 -4.328125 -5.4375 L -1.0625 -5.4375 C -0.4375 -5.4375 -0.4375 -5.28125 -0.4375 -4.34375 L 0 -4.34375 L -0.046875 -5.921875 L 0 -7.484375 L -0.4375 -7.484375 C -0.4375 -6.546875 -0.4375 -6.390625 -1.0625 -6.390625 L -3.640625 -6.390625 C -5.09375 -6.390625 -5.875 -7.390625 -5.875 -8.28125 C -5.875 -9.171875 -5.125 -9.328125 -4.328125 -9.328125 L -1.0625 -9.328125 C -0.4375 -9.328125 -0.4375 -9.171875 -0.4375 -8.234375 L 0 -8.234375 L -0.046875 -9.8125 Z M 0 -11.375 "/>
</g>
<g id="glyph-6-0-882da4c3">
<path d="M 3.5 -2.296875 L -10.5 -2.296875 L -10.5 -0.59375 C -10.5 -0.4375 -10.375 -0.3125 -10.21875 -0.3125 C -10.0625 -0.3125 -9.9375 -0.4375 -9.9375 -0.59375 L -9.9375 -1.734375 L 2.9375 -1.734375 L 2.9375 -0.59375 C 2.9375 -0.4375 3.0625 -0.3125 3.21875 -0.3125 C 3.375 -0.3125 3.5 -0.4375 3.5 -0.59375 Z M 3.5 -2.296875 "/>
</g>
<g id="glyph-7-0-882da4c3">
<path d="M 4.984375 -2 C 4.984375 -2.140625 4.875 -2.140625 4.78125 -2.140625 C 4.609375 -2.140625 4.609375 -2.125 4.5 -1.875 C 4.234375 -1.203125 3.6875 -0.15625 2.890625 -0.15625 C 2.5 -0.15625 2.5 -0.5 2.5 -0.734375 C 2.5 -0.828125 2.5 -1.046875 2.609375 -1.4375 L 3.640625 -5.59375 L 4.828125 -5.59375 C 5.0625 -5.59375 5.21875 -5.59375 5.21875 -5.859375 C 5.21875 -6.03125 5.09375 -6.03125 4.875 -6.03125 L 3.75 -6.03125 L 4.265625 -8.109375 C 4.328125 -8.296875 4.328125 -8.328125 4.328125 -8.40625 C 4.328125 -8.6875 4.09375 -8.765625 3.953125 -8.765625 C 3.59375 -8.765625 3.453125 -8.46875 3.40625 -8.265625 L 2.859375 -6.03125 L 1.671875 -6.03125 C 1.421875 -6.03125 1.28125 -6.03125 1.28125 -5.765625 C 1.28125 -5.59375 1.40625 -5.59375 1.625 -5.59375 L 2.75 -5.59375 L 1.734375 -1.578125 C 1.71875 -1.53125 1.671875 -1.296875 1.671875 -1.109375 C 1.671875 -0.40625 2.125 0.15625 2.859375 0.15625 C 4.265625 0.15625 4.984375 -1.9375 4.984375 -2 Z M 4.984375 -2 "/>
</g>
<g id="glyph-7-1-882da4c3">
<path d="M 5.8125 0.046875 L 7.1875 -5.46875 C 7.203125 -5.5625 7.21875 -5.625 7.21875 -5.671875 C 7.21875 -5.828125 7.109375 -6.03125 6.828125 -6.03125 C 6.40625 -6.03125 6.3125 -5.625 6.28125 -5.515625 L 5.265625 -1.40625 C 5.171875 -1 4.609375 -0.15625 3.78125 -0.15625 C 3.15625 -0.15625 3.03125 -0.765625 3.03125 -1.234375 C 3.03125 -2.09375 3.484375 -3.34375 3.84375 -4.296875 C 3.953125 -4.59375 4.015625 -4.78125 4.015625 -5.046875 C 4.015625 -5.75 3.5625 -6.1875 2.953125 -6.1875 C 1.65625 -6.1875 1.15625 -4.109375 1.15625 -4.03125 C 1.15625 -3.890625 1.296875 -3.890625 1.375 -3.890625 C 1.546875 -3.890625 1.5625 -3.921875 1.625 -4.109375 C 1.734375 -4.546875 2.109375 -5.875 2.921875 -5.875 C 3.078125 -5.875 3.234375 -5.84375 3.234375 -5.46875 C 3.234375 -5.140625 3.09375 -4.765625 2.890625 -4.21875 C 2.53125 -3.234375 2.171875 -2.203125 2.171875 -1.46875 C 2.171875 -0.25 2.984375 0.15625 3.734375 0.15625 C 4.375 0.15625 4.8125 -0.1875 5 -0.359375 C 4.46875 1.953125 3.4375 2.5625 2.734375 2.5625 C 2.0625 2.5625 1.859375 2.03125 1.859375 1.953125 C 1.859375 1.953125 1.875 1.9375 1.96875 1.921875 C 2.40625 1.84375 2.578125 1.46875 2.578125 1.25 C 2.578125 0.953125 2.359375 0.796875 2.09375 0.796875 C 1.9375 0.796875 1.390625 0.875 1.390625 1.671875 C 1.390625 2.390625 1.953125 2.875 2.734375 2.875 C 4.1875 2.875 5.453125 1.421875 5.8125 0.046875 Z M 5.8125 0.046875 "/>
</g>
<g id="glyph-8-0-882da4c3">
<path d="M 10.03125 -6.125 C 10.03125 -6.234375 9.96875 -6.296875 9.875 -6.296875 C 9.78125 -6.296875 9.734375 -6.25 9.703125 -6.171875 C 9.484375 -5.125 8.859375 -4.671875 7.921875 -4.4375 C 7.796875 -4.40625 7.6875 -4.390625 7.578125 -4.390625 C 6.875 -4.390625 6.234375 -4.890625 5.625 -5.328125 C 4.90625 -5.875 4.09375 -6.390625 3.21875 -6.390625 C 3.0625 -6.390625 2.890625 -6.390625 2.734375 -6.34375 C 1.5625 -6.0625 1.0625 -5.28125 0.78125 -3.96875 L 0.78125 -3.953125 C 0.78125 -3.84375 0.859375 -3.78125 0.953125 -3.78125 C 1.03125 -3.78125 1.109375 -3.84375 1.125 -3.90625 C 1.34375 -4.953125 1.953125 -5.40625 2.890625 -5.640625 C 3.03125 -5.671875 3.140625 -5.6875 3.265625 -5.6875 C 3.953125 -5.6875 4.59375 -5.1875 5.1875 -4.75 C 5.921875 -4.203125 6.734375 -3.6875 7.609375 -3.6875 C 7.765625 -3.6875 7.9375 -3.703125 8.09375 -3.734375 C 9.25 -4.015625 9.765625 -4.796875 10.03125 -6.109375 Z M 10.03125 -3.046875 C 10.03125 -3.15625 9.96875 -3.21875 9.875 -3.21875 C 9.78125 -3.21875 9.734375 -3.15625 9.703125 -3.09375 C 9.484375 -2.046875 8.859375 -1.59375 7.921875 -1.359375 C 7.796875 -1.328125 7.6875 -1.3125 7.578125 -1.3125 C 6.875 -1.3125 6.234375 -1.8125 5.625 -2.25 C 4.90625 -2.796875 4.09375 -3.3125 3.21875 -3.3125 C 3.0625 -3.3125 2.890625 -3.296875 2.734375 -3.265625 C 1.5625 -2.984375 1.0625 -2.203125 0.78125 -0.890625 L 0.78125 -0.875 C 0.78125 -0.765625 0.859375 -0.703125 0.953125 -0.703125 C 1.03125 -0.703125 1.109375 -0.75 1.125 -0.828125 C 1.34375 -1.875 1.953125 -2.328125 2.890625 -2.5625 C 3.03125 -2.59375 3.140625 -2.609375 3.265625 -2.609375 C 3.953125 -2.609375 4.59375 -2.109375 5.1875 -1.671875 C 5.921875 -1.125 6.734375 -0.609375 7.609375 -0.609375 C 7.765625 -0.609375 7.9375 -0.609375 8.09375 -0.65625 C 9.25 -0.9375 9.765625 -1.71875 10.03125 -3.03125 Z M 10.03125 -3.046875 "/>
</g>
<g id="glyph-8-1-882da4c3">
<path d="M 5.859375 0 L 5.859375 -0.4375 L 5.421875 -0.4375 C 4.15625 -0.4375 4.109375 -0.59375 4.109375 -1.109375 L 4.109375 -8.953125 C 4.109375 -9.296875 4.109375 -9.328125 3.796875 -9.328125 C 2.921875 -8.421875 1.6875 -8.421875 1.25 -8.421875 L 1.25 -8 C 1.53125 -8 2.359375 -8 3.078125 -8.359375 L 3.078125 -1.109375 C 3.078125 -0.609375 3.03125 -0.4375 1.78125 -0.4375 L 1.328125 -0.4375 L 1.328125 0 C 1.8125 -0.046875 3.03125 -0.046875 3.59375 -0.046875 C 4.15625 -0.046875 5.375 -0.046875 5.859375 0 Z M 5.859375 0 "/>
</g>
<g id="glyph-8-2-882da4c3">
<path d="M 2.6875 -0.734375 C 2.6875 -1.140625 2.359375 -1.484375 1.953125 -1.484375 C 1.546875 -1.484375 1.203125 -1.140625 1.203125 -0.734375 C 1.203125 -0.34375 1.546875 0 1.953125 0 C 2.359375 0 2.6875 -0.34375 2.6875 -0.734375 Z M 2.6875 -0.734375 "/>
</g>
<g id="glyph-8-3-882da4c3">
<path d="M 6.4375 -4.484375 C 6.4375 -5.59375 6.375 -6.71875 5.875 -7.75 C 5.234375 -9.09375 4.09375 -9.328125 3.5 -9.328125 C 2.65625 -9.328125 1.640625 -8.953125 1.0625 -7.65625 C 0.609375 -6.6875 0.546875 -5.59375 0.546875 -4.484375 C 0.546875 -3.4375 0.609375 -2.171875 1.171875 -1.109375 C 1.78125 0.03125 2.796875 0.3125 3.484375 0.3125 C 4.234375 0.3125 5.3125 0.015625 5.921875 -1.3125 C 6.375 -2.28125 6.4375 -3.375 6.4375 -4.484375 Z M 5.28125 -4.640625 C 5.28125 -3.59375 5.28125 -2.640625 5.125 -1.75 C 4.90625 -0.421875 4.109375 0 3.484375 0 C 2.9375 0 2.109375 -0.34375 1.859375 -1.6875 C 1.703125 -2.53125 1.703125 -3.828125 1.703125 -4.640625 C 1.703125 -5.546875 1.703125 -6.46875 1.8125 -7.21875 C 2.09375 -8.890625 3.140625 -9.015625 3.484375 -9.015625 C 3.953125 -9.015625 4.875 -8.765625 5.140625 -7.375 C 5.28125 -6.59375 5.28125 -5.53125 5.28125 -4.640625 Z M 5.28125 -4.640625 "/>
</g>
<g id="glyph-8-4-882da4c3">
<path d="M 7.484375 0 L 7.484375 -0.4375 C 6.765625 -0.4375 6.40625 -0.4375 6.390625 -0.859375 L 6.390625 -3.53125 C 6.390625 -4.734375 6.390625 -5.171875 5.96875 -5.671875 C 5.765625 -5.90625 5.3125 -6.1875 4.5 -6.1875 C 3.3125 -6.1875 2.703125 -5.34375 2.484375 -4.84375 L 2.46875 -4.84375 L 2.46875 -9.71875 L 0.453125 -9.5625 L 0.453125 -9.125 C 1.421875 -9.125 1.546875 -9.03125 1.546875 -8.34375 L 1.546875 -1.0625 C 1.546875 -0.4375 1.390625 -0.4375 0.453125 -0.4375 L 0.453125 0 L 2.03125 -0.046875 L 3.59375 0 L 3.59375 -0.4375 C 2.65625 -0.4375 2.5 -0.4375 2.5 -1.0625 L 2.5 -3.640625 C 2.5 -5.09375 3.5 -5.875 4.390625 -5.875 C 5.28125 -5.875 5.4375 -5.125 5.4375 -4.328125 L 5.4375 -1.0625 C 5.4375 -0.4375 5.28125 -0.4375 4.34375 -0.4375 L 4.34375 0 L 5.921875 -0.046875 Z M 7.484375 0 "/>
</g>
<g id="glyph-8-5-882da4c3">
<path d="M 2.84375 -0.015625 C 2.84375 -0.9375 2.484375 -1.484375 1.953125 -1.484375 C 1.484375 -1.484375 1.203125 -1.140625 1.203125 -0.734375 C 1.203125 -0.359375 1.484375 0 1.953125 0 C 2.109375 0 2.296875 -0.0625 2.4375 -0.1875 C 2.484375 -0.203125 2.5 -0.21875 2.5 -0.21875 C 2.5 -0.21875 2.53125 -0.203125 2.53125 -0.015625 C 2.53125 1.015625 2.046875 1.859375 1.578125 2.328125 C 1.421875 2.484375 1.421875 2.5 1.421875 2.546875 C 1.421875 2.640625 1.5 2.703125 1.5625 2.703125 C 1.71875 2.703125 2.84375 1.625 2.84375 -0.015625 Z M 2.84375 -0.015625 "/>
</g>
<g id="glyph-8-6-882da4c3">
<path d="M 7.15625 0 L 7.15625 -0.4375 C 6.640625 -0.4375 6.328125 -0.4375 5.796875 -1.171875 L 4.015625 -3.6875 C 4 -3.703125 3.9375 -3.796875 3.9375 -3.84375 C 3.9375 -3.890625 4.921875 -4.734375 5.0625 -4.84375 C 5.953125 -5.5625 6.53125 -5.59375 6.828125 -5.59375 L 6.828125 -6.03125 C 6.421875 -5.984375 6.25 -5.984375 5.859375 -5.984375 C 5.34375 -5.984375 4.484375 -6.015625 4.28125 -6.03125 L 4.28125 -5.59375 C 4.546875 -5.59375 4.6875 -5.4375 4.6875 -5.25 C 4.6875 -4.96875 4.5 -4.796875 4.375 -4.703125 L 2.40625 -3 L 2.40625 -9.71875 L 0.390625 -9.5625 L 0.390625 -9.125 C 1.375 -9.125 1.484375 -9.03125 1.484375 -8.34375 L 1.484375 -1.0625 C 1.484375 -0.4375 1.328125 -0.4375 0.390625 -0.4375 L 0.390625 0 L 1.921875 -0.046875 L 3.453125 0 L 3.453125 -0.4375 C 2.515625 -0.4375 2.359375 -0.4375 2.359375 -1.0625 L 2.359375 -2.5 L 3.265625 -3.28125 C 4.34375 -1.796875 4.921875 -1.015625 4.921875 -0.75 C 4.921875 -0.484375 4.6875 -0.4375 4.421875 -0.4375 L 4.421875 0 L 5.9375 -0.046875 C 6.34375 -0.046875 6.75 -0.03125 7.15625 0 Z M 7.15625 0 "/>
</g>
<g id="glyph-8-7-882da4c3">
<path d="M 11.375 0 L 11.375 -0.4375 C 10.65625 -0.4375 10.296875 -0.4375 10.296875 -0.859375 L 10.296875 -3.53125 C 10.296875 -4.734375 10.296875 -5.171875 9.859375 -5.671875 C 9.65625 -5.90625 9.203125 -6.1875 8.390625 -6.1875 C 7.203125 -6.1875 6.59375 -5.34375 6.359375 -4.8125 C 6.15625 -6.03125 5.125 -6.1875 4.5 -6.1875 C 3.46875 -6.1875 2.8125 -5.59375 2.421875 -4.71875 L 2.421875 -6.1875 L 0.453125 -6.03125 L 0.453125 -5.59375 C 1.421875 -5.59375 1.546875 -5.5 1.546875 -4.8125 L 1.546875 -1.0625 C 1.546875 -0.4375 1.390625 -0.4375 0.453125 -0.4375 L 0.453125 0 L 2.03125 -0.046875 L 3.59375 0 L 3.59375 -0.4375 C 2.65625 -0.4375 2.5 -0.4375 2.5 -1.0625 L 2.5 -3.640625 C 2.5 -5.09375 3.5 -5.875 4.390625 -5.875 C 5.28125 -5.875 5.4375 -5.125 5.4375 -4.328125 L 5.4375 -1.0625 C 5.4375 -0.4375 5.28125 -0.4375 4.34375 -0.4375 L 4.34375 0 L 5.921875 -0.046875 L 7.484375 0 L 7.484375 -0.4375 C 6.546875 -0.4375 6.390625 -0.4375 6.390625 -1.0625 L 6.390625 -3.640625 C 6.390625 -5.09375 7.390625 -5.875 8.28125 -5.875 C 9.171875 -5.875 9.328125 -5.125 9.328125 -4.328125 L 9.328125 -1.0625 C 9.328125 -0.4375 9.171875 -0.4375 8.234375 -0.4375 L 8.234375 0 L 9.8125 -0.046875 Z M 11.375 0 "/>
</g>
<g id="glyph-9-0-882da4c3">
<path d="M -7 -6.375 C -7.921875 -6.375 -9.875 -6.125 -9.875 -4.6875 C -9.875 -2.75 -5.921875 -0.59375 -2.71875 -0.59375 C -1.40625 -0.59375 0.15625 -1 0.15625 -2.265625 C 0.15625 -4.234375 -3.859375 -6.375 -7 -6.375 Z M -7.875 -5.453125 C -7.1875 -5.453125 -6.46875 -5.328125 -5.078125 -5 L -5.078125 -2.078125 C -5.984375 -2.3125 -7.09375 -2.59375 -8.09375 -3.15625 C -8.78125 -3.53125 -9.5625 -4.046875 -9.5625 -4.671875 C -9.5625 -5.359375 -8.671875 -5.453125 -7.875 -5.453125 Z M -4.640625 -4.875 C -3.984375 -4.71875 -2.796875 -4.421875 -1.796875 -3.890625 C -0.84375 -3.40625 -0.15625 -2.875 -0.15625 -2.265625 C -0.15625 -1.8125 -0.5625 -1.515625 -1.859375 -1.515625 C -2.453125 -1.515625 -3.265625 -1.59375 -4.640625 -1.953125 Z M -4.640625 -4.875 "/>
</g>
<g id="glyph-9-1-882da4c3">
<path d="M 0 -10.296875 L -0.4375 -10.296875 C -0.4375 -9.546875 -0.484375 -9.25 -1.109375 -8.828125 L -5.859375 -5.59375 L -8.28125 -8.125 C -8.40625 -8.234375 -9.109375 -8.96875 -9.125 -10.109375 L -9.5625 -10.109375 C -9.515625 -9.75 -9.515625 -9.296875 -9.515625 -8.921875 C -9.515625 -8.40625 -9.515625 -7.609375 -9.5625 -7.140625 L -9.125 -7.140625 C -9.109375 -7.703125 -8.796875 -7.78125 -8.671875 -7.78125 C -8.4375 -7.78125 -8.296875 -7.640625 -8.203125 -7.53125 L -4.015625 -3.15625 L -8.46875 -3.15625 C -8.96875 -3.15625 -9.125 -3.171875 -9.125 -4.25 L -9.125 -4.59375 L -9.5625 -4.59375 C -9.515625 -4.109375 -9.515625 -3.0625 -9.515625 -2.53125 C -9.515625 -2 -9.515625 -0.953125 -9.5625 -0.46875 L -9.125 -0.46875 L -9.125 -0.796875 C -9.125 -1.875 -8.96875 -1.90625 -8.46875 -1.90625 L -1.09375 -1.90625 C -0.59375 -1.90625 -0.4375 -1.875 -0.4375 -0.796875 L -0.4375 -0.46875 L 0 -0.46875 C -0.046875 -0.953125 -0.046875 -1.984375 -0.046875 -2.515625 C -0.046875 -3.046875 -0.046875 -4.109375 0 -4.59375 L -0.4375 -4.59375 L -0.4375 -4.25 C -0.4375 -3.171875 -0.59375 -3.15625 -1.09375 -3.15625 L -3.546875 -3.15625 L -5.078125 -4.78125 L -1.328125 -7.3125 C -1.203125 -7.390625 -1.015625 -7.515625 -0.859375 -7.515625 C -0.4375 -7.515625 -0.4375 -6.96875 -0.4375 -6.6875 L 0 -6.6875 C -0.046875 -7.1875 -0.046875 -8.15625 -0.046875 -8.6875 Z M 0 -10.296875 "/>
</g>
<g id="glyph-10-0-882da4c3">
<path d="M -9.421875 -4.953125 C -9.671875 -5.03125 -9.875 -4.875 -9.875 -4.625 C -9.875 -4.375 -9.671875 -4.109375 -9.421875 -4.0625 L -5.921875 -3.421875 L -5.921875 -3.84375 Z M -9.421875 -4.953125 "/>
</g>
<g id="glyph-11-0-882da4c3">
<path d="M 3.21875 -3.578125 C 3.0625 -3.578125 2.9375 -3.453125 2.9375 -3.296875 L 2.9375 -2.15625 L -9.9375 -2.15625 L -9.9375 -3.296875 C -9.9375 -3.453125 -10.0625 -3.578125 -10.21875 -3.578125 C -10.375 -3.578125 -10.5 -3.453125 -10.5 -3.296875 L -10.5 -1.59375 L 3.5 -1.59375 L 3.5 -3.296875 C 3.5 -3.453125 3.375 -3.578125 3.21875 -3.578125 Z M 3.21875 -3.578125 "/>
</g>
<g id="glyph-12-0-882da4c3">
<path d="M 3.5 -2.296875 L -10.5 -2.296875 L -10.5 -0.59375 C -10.5 -0.4375 -10.375 -0.3125 -10.21875 -0.3125 C -10.0625 -0.3125 -9.9375 -0.4375 -9.9375 -0.59375 L -9.9375 -1.734375 L 2.9375 -1.734375 L 2.9375 -0.59375 C 2.9375 -0.4375 3.0625 -0.3125 3.21875 -0.3125 C 3.375 -0.3125 3.5 -0.4375 3.5 -0.59375 Z M 3.5 -2.296875 "/>
</g>
<g id="glyph-13-0-882da4c3">
<path d="M 3.859375 -2.625 L 3.859375 -3.4375 L 0.15625 -3.4375 L 0.15625 -2.625 Z M 3.859375 -2.625 "/>
</g>
<g id="glyph-13-1-882da4c3">
<path d="M 6.28125 -2.8125 C 6.28125 -4.484375 5.140625 -5.875 3.625 -5.875 C 2.953125 -5.875 2.359375 -5.65625 1.84375 -5.171875 L 1.84375 -7.890625 C 2.125 -7.8125 2.59375 -7.71875 3.03125 -7.71875 C 4.765625 -7.71875 5.734375 -8.984375 5.734375 -9.171875 C 5.734375 -9.25 5.703125 -9.328125 5.59375 -9.328125 C 5.59375 -9.328125 5.5625 -9.328125 5.484375 -9.28125 C 5.203125 -9.15625 4.515625 -8.875 3.578125 -8.875 C 3.03125 -8.875 2.375 -8.96875 1.71875 -9.265625 C 1.609375 -9.3125 1.546875 -9.3125 1.546875 -9.3125 C 1.40625 -9.3125 1.40625 -9.203125 1.40625 -8.96875 L 1.40625 -4.828125 C 1.40625 -4.578125 1.40625 -4.46875 1.609375 -4.46875 C 1.703125 -4.46875 1.734375 -4.515625 1.796875 -4.59375 C 1.953125 -4.8125 2.46875 -5.578125 3.59375 -5.578125 C 4.328125 -5.578125 4.671875 -4.921875 4.78125 -4.671875 C 5.015625 -4.15625 5.046875 -3.609375 5.046875 -2.90625 C 5.046875 -2.421875 5.046875 -1.578125 4.703125 -1 C 4.375 -0.453125 3.84375 -0.078125 3.203125 -0.078125 C 2.1875 -0.078125 1.390625 -0.828125 1.140625 -1.65625 C 1.1875 -1.640625 1.234375 -1.625 1.390625 -1.625 C 1.84375 -1.625 2.09375 -1.96875 2.09375 -2.3125 C 2.09375 -2.640625 1.84375 -3 1.390625 -3 C 1.1875 -3 0.703125 -2.890625 0.703125 -2.25 C 0.703125 -1.046875 1.671875 0.3125 3.234375 0.3125 C 4.859375 0.3125 6.28125 -1.03125 6.28125 -2.8125 Z M 6.28125 -2.8125 "/>
</g>
<g id="glyph-13-2-882da4c3">
<path d="M 2.6875 -0.734375 C 2.6875 -1.140625 2.359375 -1.484375 1.953125 -1.484375 C 1.546875 -1.484375 1.203125 -1.140625 1.203125 -0.734375 C 1.203125 -0.34375 1.546875 0 1.953125 0 C 2.359375 0 2.6875 -0.34375 2.6875 -0.734375 Z M 2.6875 -0.734375 "/>
</g>
<g id="glyph-13-3-882da4c3">
<path d="M 6.390625 -2.859375 C 6.390625 -4.640625 5.15625 -5.984375 3.59375 -5.984375 C 2.640625 -5.984375 2.125 -5.265625 1.84375 -4.59375 L 1.84375 -4.921875 C 1.84375 -8.46875 3.578125 -8.96875 4.296875 -8.96875 C 4.640625 -8.96875 5.21875 -8.890625 5.53125 -8.40625 C 5.3125 -8.40625 4.765625 -8.40625 4.765625 -7.78125 C 4.765625 -7.34375 5.09375 -7.140625 5.40625 -7.140625 C 5.625 -7.140625 6.046875 -7.265625 6.046875 -7.8125 C 6.046875 -8.65625 5.4375 -9.328125 4.265625 -9.328125 C 2.484375 -9.328125 0.59375 -7.515625 0.59375 -4.421875 C 0.59375 -0.6875 2.21875 0.3125 3.515625 0.3125 C 5.0625 0.3125 6.390625 -1.015625 6.390625 -2.859375 Z M 5.140625 -2.875 C 5.140625 -2.203125 5.140625 -1.5 4.90625 -1 C 4.484375 -0.15625 3.84375 -0.078125 3.515625 -0.078125 C 2.625 -0.078125 2.21875 -0.921875 2.125 -1.140625 C 1.875 -1.796875 1.875 -2.90625 1.875 -3.15625 C 1.875 -4.25 2.328125 -5.65625 3.578125 -5.65625 C 3.8125 -5.65625 4.453125 -5.65625 4.890625 -4.78125 C 5.140625 -4.265625 5.140625 -3.5625 5.140625 -2.875 Z M 5.140625 -2.875 "/>
</g>
<g id="glyph-13-4-882da4c3">
<path d="M 6.4375 -4.484375 C 6.4375 -5.59375 6.375 -6.71875 5.875 -7.75 C 5.234375 -9.09375 4.09375 -9.328125 3.5 -9.328125 C 2.65625 -9.328125 1.640625 -8.953125 1.0625 -7.65625 C 0.609375 -6.6875 0.546875 -5.59375 0.546875 -4.484375 C 0.546875 -3.4375 0.609375 -2.171875 1.171875 -1.109375 C 1.78125 0.03125 2.796875 0.3125 3.484375 0.3125 C 4.234375 0.3125 5.3125 0.015625 5.921875 -1.3125 C 6.375 -2.28125 6.4375 -3.375 6.4375 -4.484375 Z M 5.28125 -4.640625 C 5.28125 -3.59375 5.28125 -2.640625 5.125 -1.75 C 4.90625 -0.421875 4.109375 0 3.484375 0 C 2.9375 0 2.109375 -0.34375 1.859375 -1.6875 C 1.703125 -2.53125 1.703125 -3.828125 1.703125 -4.640625 C 1.703125 -5.546875 1.703125 -6.46875 1.8125 -7.21875 C 2.09375 -8.890625 3.140625 -9.015625 3.484375 -9.015625 C 3.953125 -9.015625 4.875 -8.765625 5.140625 -7.375 C 5.28125 -6.59375 5.28125 -5.53125 5.28125 -4.640625 Z M 5.28125 -4.640625 "/>
</g>
<g id="glyph-13-5-882da4c3">
<path d="M 9.125 -3.609375 L 8.78125 -3.609375 C 8.421875 -1.453125 8.109375 -0.4375 5.703125 -0.4375 L 3.84375 -0.4375 C 3.171875 -0.4375 3.15625 -0.53125 3.15625 -1 L 3.15625 -4.734375 L 4.40625 -4.734375 C 5.765625 -4.734375 5.921875 -4.28125 5.921875 -3.09375 L 6.265625 -3.09375 L 6.265625 -6.796875 L 5.921875 -6.796875 C 5.921875 -5.59375 5.765625 -5.171875 4.40625 -5.171875 L 3.15625 -5.171875 L 3.15625 -8.53125 C 3.15625 -8.984375 3.171875 -9.09375 3.84375 -9.09375 L 5.640625 -9.09375 C 7.78125 -9.09375 8.15625 -8.3125 8.390625 -6.375 L 8.734375 -6.375 L 8.34375 -9.515625 L 0.46875 -9.515625 L 0.46875 -9.09375 L 0.796875 -9.09375 C 1.875 -9.09375 1.90625 -8.9375 1.90625 -8.421875 L 1.90625 -1.09375 C 1.90625 -0.59375 1.875 -0.4375 0.796875 -0.4375 L 0.46875 -0.4375 L 0.46875 0 L 8.546875 0 Z M 9.125 -3.609375 "/>
</g>
<g id="glyph-13-6-882da4c3">
<path d="M 6.28125 -2.4375 L 5.9375 -2.4375 C 5.859375 -2.015625 5.765625 -1.40625 5.625 -1.1875 C 5.53125 -1.078125 4.609375 -1.078125 4.296875 -1.078125 L 1.78125 -1.078125 L 3.265625 -2.515625 C 5.453125 -4.453125 6.28125 -5.203125 6.28125 -6.609375 C 6.28125 -8.203125 5.03125 -9.328125 3.3125 -9.328125 C 1.734375 -9.328125 0.703125 -8.03125 0.703125 -6.796875 C 0.703125 -6 1.40625 -6 1.4375 -6 C 1.6875 -6 2.171875 -6.171875 2.171875 -6.75 C 2.171875 -7.109375 1.921875 -7.46875 1.421875 -7.46875 C 1.3125 -7.46875 1.28125 -7.46875 1.25 -7.46875 C 1.5625 -8.375 2.328125 -8.890625 3.140625 -8.890625 C 4.40625 -8.890625 5.015625 -7.75 5.015625 -6.609375 C 5.015625 -5.484375 4.3125 -4.375 3.546875 -3.515625 L 0.859375 -0.515625 C 0.703125 -0.359375 0.703125 -0.34375 0.703125 0 L 5.890625 0 Z M 6.28125 -2.4375 "/>
</g>
</g>
</defs>
<rect x="-39.2" y="-28.9" width="470.4" height="346.8" fill="rgb(100%, 100%, 100%)" fill-opacity="1"/>
<path fill-rule="nonzero" fill="rgb(0%, 0%, 0%)" fill-opacity="1" d="M 59 234 L 259 234 L 259 34 L 59 34 Z M 59 234 "/>
<g fill="rgb(0%, 0%, 0%)" fill-opacity="1">
<use xlink:href="#glyph-0-0-882da4c3" x="139.999688" y="270.284"/>
</g>
<g fill="rgb(0%, 0%, 0%)" fill-opacity="1">
<use xlink:href="#glyph-1-0-882da4c3" x="151.162308" y="270.284"/>
</g>
<g fill="rgb(0%, 0%, 0%)" fill-opacity="1">
<use xlink:href="#glyph-1-1-882da4c3" x="155.054309" y="270.284"/>
</g>
<g fill="rgb(0%, 0%, 0%)" fill-opacity="1">
<use xlink:href="#glyph-1-2-882da4c3" x="162.446309" y="270.284"/>
</g>
<g fill="rgb(0%, 0%, 0%)" fill-opacity="1">
<use xlink:href="#glyph-1-3-882da4c3" x="174.108307" y="270.284"/>
</g>
<g fill="rgb(0%, 0%, 0%)" fill-opacity="1">
<use xlink:href="#glyph-1-4-882da4c3" x="98.771947" y="253.283999"/>
</g>
<g fill="rgb(0%, 0%, 0%)" fill-opacity="1">
<use xlink:href="#glyph-1-5-882da4c3" x="109.663947" y="253.283999"/>
</g>
<g fill="rgb(0%, 0%, 0%)" fill-opacity="1">
<use xlink:href="#glyph-1-6-882da4c3" x="155.499997" y="253.283999"/>
</g>
<g fill="rgb(0%, 0%, 0%)" fill-opacity="1">
<use xlink:href="#glyph-1-5-882da4c3" x="206.782054" y="253.283999"/>
</g>
<g fill="rgb(0%, 0%, 0%)" fill-opacity="1">
<use xlink:href="#glyph-2-0-882da4c3" x="26.499999" y="152.615303"/>
</g>
<g fill="rgb(0%, 0%, 0%)" fill-opacity="1">
<use xlink:href="#glyph-3-0-882da4c3" x="26.499999" y="142.222683"/>
</g>
<g fill="rgb(0%, 0%, 0%)" fill-opacity="1">
<use xlink:href="#glyph-4-0-882da4c3" x="26.499999" y="138.330684"/>
</g>
<g fill="rgb(0%, 0%, 0%)" fill-opacity="1">
<use xlink:href="#glyph-5-0-882da4c3" x="26.5" y="130.938685"/>
</g>
<g fill="rgb(0%, 0%, 0%)" fill-opacity="1">
<use xlink:href="#glyph-6-0-882da4c3" x="26.500001" y="119.276685"/>
</g>
<g fill="rgb(0%, 0%, 0%)" fill-opacity="1">
<use xlink:href="#glyph-1-5-882da4c3" x="41.999999" y="189.566048"/>
</g>
<g fill="rgb(0%, 0%, 0%)" fill-opacity="1">
<use xlink:href="#glyph-1-7-882da4c3" x="34.999999" y="138.283996"/>
</g>
<g fill="rgb(0%, 0%, 0%)" fill-opacity="1">
<use xlink:href="#glyph-1-6-882da4c3" x="41.999999" y="138.283996"/>
</g>
<g fill="rgb(0%, 0%, 0%)" fill-opacity="1">
<use xlink:href="#glyph-1-7-882da4c3" x="34.999999" y="87.001935"/>
</g>
<g fill="rgb(0%, 0%, 0%)" fill-opacity="1">
<use xlink:href="#glyph-1-5-882da4c3" x="41.999999" y="87.001935"/>
</g>
<g fill="rgb(0%, 0%, 0%)" fill-opacity="1">
<use xlink:href="#glyph-7-0-882da4c3" x="91.928381" y="27.129992"/>
</g>
<g fill="rgb(0%, 0%, 0%)" fill-opacity="1">
<use xlink:href="#glyph-8-0-882da4c3" x="99.376379" y="27.129992"/>
</g>
<g fill="rgb(0%, 0%, 0%)" fill-opacity="1">
<use xlink:href="#glyph-8-1-882da4c3" x="112.99838" y="27.129992"/>
</g>
<g fill="rgb(0%, 0%, 0%)" fill-opacity="1">
<use xlink:href="#glyph-8-2-882da4c3" x="119.99838" y="27.129992"/>
</g>
<g fill="rgb(0%, 0%, 0%)" fill-opacity="1">
<use xlink:href="#glyph-8-3-882da4c3" x="123.890378" y="27.129992"/>
</g>
<g fill="rgb(0%, 0%, 0%)" fill-opacity="1">
<use xlink:href="#glyph-8-4-882da4c3" x="135.557" y="27.129992"/>
</g>
<g fill="rgb(0%, 0%, 0%)" fill-opacity="1">
<use xlink:href="#glyph-8-5-882da4c3" x="143.341" y="27.129992"/>
</g>
<g fill="rgb(0%, 0%, 0%)" fill-opacity="1">
<use xlink:href="#glyph-7-1-882da4c3" x="161.232998" y="27.129992"/>
</g>
<g fill="rgb(0%, 0%, 0%)" fill-opacity="1">
<use xlink:href="#glyph-8-0-882da4c3" x="170.836994" y="27.129992"/>
</g>
<g fill="rgb(0%, 0%, 0%)" fill-opacity="1">
<use xlink:href="#glyph-8-3-882da4c3" x="184.459003" y="27.129992"/>
</g>
<g fill="rgb(0%, 0%, 0%)" fill-opacity="1">
<use xlink:href="#glyph-8-2-882da4c3" x="191.459003" y="27.129992"/>
</g>
<g fill="rgb(0%, 0%, 0%)" fill-opacity="1">
<use xlink:href="#glyph-8-3-882da4c3" x="195.351002" y="27.129992"/>
</g>
<g fill="rgb(0%, 0%, 0%)" fill-opacity="1">
<use xlink:href="#glyph-8-6-882da4c3" x="207.01762" y="27.129992"/>
</g>
<g fill="rgb(0%, 0%, 0%)" fill-opacity="1">
<use xlink:href="#glyph-8-7-882da4c3" x="214.409618" y="27.129992"/>
</g>
<path fill-rule="evenodd" fill="rgb(0%, 0%, 35.600001%)" fill-opacity="1" d="M 69.257812 159.515625 L 64.128906 157.292969 L 60.839844 162.207031 L 59.910156 167.332031 L 59.566406 172.460938 L 60.78125 177.589844 L 64.128906 182.132812 L 69.257812 178.929688 L 70.117188 177.589844 L 72.054688 172.460938 L 72.925781 167.332031 L 70.78125 162.207031 Z M 69.257812 159.515625 "/>
<path fill-rule="evenodd" fill="rgb(0%, 0%, 35.600001%)" fill-opacity="1" d="M 247.199219 162.207031 L 245.0625 167.332031 L 245.941406 172.460938 L 247.890625 177.589844 L 248.742188 178.917969 L 253.871094 182.050781 L 257.183594 177.589844 L 258.441406 172.460938 L 258.101562 167.332031 L 257.171875 162.207031 L 253.871094 157.292969 L 248.742188 159.5 Z M 247.199219 162.207031 "/>
<path fill-rule="evenodd" fill="rgb(0%, 0%, 52.399999%)" fill-opacity="1" d="M 259 150.722656 L 253.871094 150.90625 L 250.425781 151.949219 L 248.742188 152.753906 L 245.488281 157.078125 L 243.617188 159.910156 L 242.90625 162.207031 L 242.519531 167.332031 L 243.167969 172.460938 L 243.617188 173.59375 L 245.628906 177.589844 L 248.742188 182.425781 L 249.164062 182.71875 L 253.597656 187.847656 L 253.871094 188.296875 L 259 187.964844 Z M 253.871094 157.292969 L 257.171875 162.207031 L 258.101562 167.332031 L 258.441406 172.460938 L 257.183594 177.589844 L 253.871094 182.050781 L 248.742188 178.917969 L 247.890625 177.589844 L 245.941406 172.460938 L 245.0625 167.332031 L 247.199219 162.207031 L 248.742188 159.5 Z M 253.871094 157.292969 "/>
<path fill-rule="evenodd" fill="rgb(0%, 0%, 52.399999%)" fill-opacity="1" d="M 59 150.71875 L 59 188.125 L 64.128906 188.371094 L 64.441406 187.847656 L 68.878906 182.71875 L 69.257812 182.453125 L 72.371094 177.589844 L 74.382812 173.582031 L 74.828125 172.460938 L 75.46875 167.332031 L 75.078125 162.207031 L 74.382812 159.957031 L 72.484375 157.078125 L 69.257812 152.761719 L 67.5625 151.949219 L 64.128906 150.902344 Z M 70.117188 177.589844 L 69.257812 178.929688 L 64.128906 182.132812 L 60.78125 177.589844 L 59.566406 172.460938 L 59.910156 167.332031 L 60.839844 162.207031 L 64.128906 157.292969 L 69.257812 159.515625 L 70.78125 162.207031 L 72.925781 167.332031 L 72.054688 172.460938 Z M 70.117188 177.589844 "/>
<path fill-rule="evenodd" fill="rgb(0%, 0%, 69.199997%)" fill-opacity="1" d="M 259 146.554688 L 255.957031 146.820312 L 253.871094 147.257812 L 248.742188 149.84375 L 246.457031 151.949219 L 243.617188 155.296875 L 242.601562 157.078125 L 240.871094 162.207031 L 240.71875 167.332031 L 241.390625 172.460938 L 243.414062 177.589844 L 243.617188 177.957031 L 246.71875 182.71875 L 248.742188 185.804688 L 250.578125 187.847656 L 253.699219 192.972656 L 253.871094 193.332031 L 257.59375 198.101562 L 258.9375 203.230469 L 259 203.773438 L 259 187.964844 L 253.871094 188.296875 L 253.597656 187.847656 L 249.164062 182.71875 L 248.742188 182.425781 L 245.628906 177.589844 L 243.617188 173.59375 L 243.167969 172.460938 L 242.519531 167.332031 L 242.90625 162.207031 L 243.617188 159.910156 L 245.488281 157.078125 L 248.742188 152.753906 L 250.425781 151.949219 L 253.871094 150.90625 L 259 150.722656 Z M 259 146.554688 "/>
<path fill-rule="evenodd" fill="rgb(0%, 0%, 69.199997%)" fill-opacity="1" d="M 59 150.71875 L 64.128906 150.902344 L 67.5625 151.949219 L 69.257812 152.761719 L 72.484375 157.078125 L 74.382812 159.957031 L 75.078125 162.207031 L 75.46875 167.332031 L 74.828125 172.460938 L 74.382812 173.582031 L 72.371094 177.589844 L 69.257812 182.453125 L 68.878906 182.71875 L 64.441406 187.847656 L 64.128906 188.371094 L 59 188.125 L 59 204.101562 L 59.101562 203.230469 L 60.476562 198.101562 L 64.128906 193.457031 L 64.359375 192.972656 L 67.460938 187.847656 L 69.257812 185.839844 L 71.292969 182.71875 L 74.382812 177.957031 L 74.585938 177.589844 L 76.597656 172.460938 L 77.265625 167.332031 L 77.097656 162.207031 L 75.382812 157.078125 L 74.382812 155.328125 L 71.527344 151.949219 L 69.257812 149.851562 L 64.128906 147.257812 L 62.046875 146.820312 L 59 146.554688 Z M 59 150.71875 "/>
<path fill-rule="evenodd" fill="rgb(0%, 0%, 86.000001%)" fill-opacity="1" d="M 259 145.035156 L 253.871094 145.515625 L 249.824219 146.820312 L 248.742188 147.394531 L 243.800781 151.949219 L 243.617188 152.167969 L 240.8125 157.078125 L 238.839844 162.207031 L 238.914062 167.332031 L 239.617188 172.460938 L 241.566406 177.589844 L 243.617188 181.34375 L 244.511719 182.71875 L 247.777344 187.847656 L 248.742188 189.386719 L 251.113281 192.972656 L 253.59375 198.101562 L 253.871094 198.886719 L 255.863281 203.230469 L 256.824219 208.359375 L 256.609375 213.488281 L 255.085938 218.617188 L 259 220.488281 L 259 203.773438 L 258.9375 203.230469 L 257.59375 198.101562 L 253.871094 193.332031 L 253.699219 192.972656 L 250.578125 187.847656 L 248.742188 185.804688 L 246.71875 182.71875 L 243.617188 177.957031 L 243.414062 177.589844 L 241.390625 172.460938 L 240.71875 167.332031 L 240.871094 162.207031 L 242.601562 157.078125 L 243.617188 155.296875 L 246.457031 151.949219 L 248.742188 149.84375 L 253.871094 147.257812 L 255.957031 146.820312 L 259 146.554688 Z M 259 145.035156 "/>
<path fill-rule="evenodd" fill="rgb(0%, 0%, 86.000001%)" fill-opacity="1" d="M 74.382812 152.203125 L 74.171875 151.949219 L 69.257812 147.410156 L 68.15625 146.820312 L 64.128906 145.515625 L 59 145.035156 L 59 146.554688 L 62.046875 146.820312 L 64.128906 147.257812 L 69.257812 149.851562 L 71.527344 151.949219 L 74.382812 155.328125 L 75.382812 157.078125 L 77.097656 162.207031 L 77.265625 167.332031 L 76.597656 172.460938 L 74.585938 177.589844 L 74.382812 177.957031 L 71.292969 182.71875 L 69.257812 185.839844 L 67.460938 187.847656 L 64.359375 192.972656 L 64.128906 193.457031 L 60.476562 198.101562 L 59.101562 203.230469 L 59 204.101562 L 59 220.519531 L 62.933594 218.617188 L 61.398438 213.488281 L 61.191406 208.359375 L 62.195312 203.230469 L 64.128906 199.054688 L 64.464844 198.101562 L 66.933594 192.972656 L 69.257812 189.4375 L 70.246094 187.847656 L 73.492188 182.71875 L 74.382812 181.347656 L 76.425781 177.589844 L 78.371094 172.460938 L 79.0625 167.332031 L 79.121094 162.207031 L 77.164062 157.078125 Z M 74.382812 152.203125 "/>
<path fill-rule="evenodd" fill="rgb(4%, 4%, 100%)" fill-opacity="1" d="M 259 143.511719 L 253.871094 144.035156 L 248.742188 145.644531 L 247.226562 146.820312 L 243.617188 150.214844 L 241.816406 151.949219 L 239.027344 157.078125 L 238.488281 158.449219 L 237.132812 162.207031 L 237.183594 167.332031 L 237.832031 172.460938 L 238.488281 174.269531 L 239.722656 177.589844 L 242.277344 182.71875 L 243.617188 185.082031 L 245.320312 187.847656 L 248.503906 192.972656 L 248.742188 193.355469 L 251.203125 198.101562 L 253.054688 203.230469 L 253.871094 206.953125 L 254.21875 208.359375 L 253.871094 210.917969 L 253.582031 213.488281 L 251.566406 218.617188 L 248.742188 222.789062 L 245.992188 223.742188 L 243.617188 226.113281 L 238.488281 228.265625 L 238.046875 228.871094 L 238.488281 229.125 L 243.617188 229.878906 L 248.742188 229.941406 L 250.734375 228.871094 L 253.871094 226.789062 L 259 224.0625 L 259 220.488281 L 255.085938 218.617188 L 256.609375 213.488281 L 256.824219 208.359375 L 255.863281 203.230469 L 253.871094 198.886719 L 253.59375 198.101562 L 251.113281 192.972656 L 248.742188 189.386719 L 247.777344 187.847656 L 244.511719 182.71875 L 243.617188 181.34375 L 241.566406 177.589844 L 239.617188 172.460938 L 238.914062 167.332031 L 238.839844 162.207031 L 240.8125 157.078125 L 243.617188 152.167969 L 243.800781 151.949219 L 248.742188 147.394531 L 249.824219 146.820312 L 253.871094 145.515625 L 259 145.035156 Z M 259 143.511719 "/>
<path fill-rule="evenodd" fill="rgb(4%, 4%, 100%)" fill-opacity="1" d="M 69.257812 145.65625 L 64.128906 144.039062 L 59 143.511719 L 59 145.035156 L 64.128906 145.515625 L 68.15625 146.820312 L 69.257812 147.410156 L 74.171875 151.949219 L 74.382812 152.203125 L 77.164062 157.078125 L 79.121094 162.207031 L 79.0625 167.332031 L 78.371094 172.460938 L 76.425781 177.589844 L 74.382812 181.347656 L 73.492188 182.71875 L 70.246094 187.847656 L 69.257812 189.4375 L 66.933594 192.972656 L 64.464844 198.101562 L 64.128906 199.054688 L 62.195312 203.230469 L 61.191406 208.359375 L 61.398438 213.488281 L 62.933594 218.617188 L 59 220.519531 L 59 224.089844 L 64.128906 226.867188 L 67.183594 228.871094 L 69.257812 229.96875 L 74.382812 229.890625 L 79.511719 229.121094 L 79.941406 228.871094 L 79.511719 228.28125 L 74.382812 226.125 L 71.984375 223.742188 L 69.257812 222.796875 L 66.421875 218.617188 L 64.410156 213.488281 L 64.128906 210.890625 L 63.796875 208.359375 L 64.128906 207.0625 L 64.996094 203.230469 L 66.84375 198.101562 L 69.257812 193.421875 L 69.539062 192.972656 L 72.691406 187.847656 L 74.382812 185.085938 L 75.71875 182.71875 L 78.269531 177.589844 L 79.511719 174.226562 L 80.152344 172.460938 L 80.796875 167.332031 L 80.835938 162.207031 L 79.511719 158.535156 L 78.941406 157.078125 L 76.160156 151.949219 L 74.382812 150.238281 L 70.757812 146.820312 Z M 69.257812 145.65625 "/>
<path fill-rule="evenodd" fill="rgb(28%, 28%, 100%)" fill-opacity="1" d="M 259 141.992188 L 253.871094 142.550781 L 248.742188 144.113281 L 245.246094 146.820312 L 243.617188 148.351562 L 239.882812 151.949219 L 238.488281 154.550781 L 237.066406 157.078125 L 235.492188 162.207031 L 235.472656 167.332031 L 236.03125 172.460938 L 237.71875 177.589844 L 238.488281 179.261719 L 240.03125 182.71875 L 242.722656 187.847656 L 243.617188 189.441406 L 245.585938 192.972656 L 248.742188 197.964844 L 248.816406 198.101562 L 250.734375 203.230469 L 251.902344 208.359375 L 251.410156 213.488281 L 248.835938 218.617188 L 248.742188 218.753906 L 243.617188 221.601562 L 238.488281 222.054688 L 235.148438 223.742188 L 233.359375 226.109375 L 231.964844 228.871094 L 233.359375 230.378906 L 238.488281 233.171875 L 243.089844 234 L 249.164062 234 L 253.871094 231.34375 L 255.800781 228.871094 L 259 226.457031 L 259 224.0625 L 253.871094 226.789062 L 250.734375 228.871094 L 248.742188 229.941406 L 243.617188 229.878906 L 238.488281 229.125 L 238.046875 228.871094 L 238.488281 228.265625 L 243.617188 226.113281 L 245.992188 223.742188 L 248.742188 222.789062 L 251.566406 218.617188 L 253.582031 213.488281 L 253.871094 210.917969 L 254.21875 208.359375 L 253.871094 206.953125 L 253.054688 203.230469 L 251.203125 198.101562 L 248.742188 193.355469 L 248.503906 192.972656 L 245.320312 187.847656 L 243.617188 185.082031 L 242.277344 182.71875 L 239.722656 177.589844 L 238.488281 174.269531 L 237.832031 172.460938 L 237.183594 167.332031 L 237.132812 162.207031 L 238.488281 158.449219 L 239.027344 157.078125 L 241.816406 151.949219 L 243.617188 150.214844 L 247.226562 146.820312 L 248.742188 145.644531 L 253.871094 144.035156 L 259 143.511719 Z M 259 141.992188 "/>
<path fill-rule="evenodd" fill="rgb(28%, 28%, 100%)" fill-opacity="1" d="M 69.257812 144.121094 L 64.128906 142.558594 L 59 141.992188 L 59 143.511719 L 64.128906 144.039062 L 69.257812 145.65625 L 70.757812 146.820312 L 74.382812 150.238281 L 76.160156 151.949219 L 78.941406 157.078125 L 79.511719 158.535156 L 80.835938 162.207031 L 80.796875 167.332031 L 80.152344 172.460938 L 79.511719 174.226562 L 78.269531 177.589844 L 75.71875 182.71875 L 74.382812 185.085938 L 72.691406 187.847656 L 69.539062 192.972656 L 69.257812 193.421875 L 66.84375 198.101562 L 64.996094 203.230469 L 64.128906 207.0625 L 63.796875 208.359375 L 64.128906 210.890625 L 64.410156 213.488281 L 66.421875 218.617188 L 69.257812 222.796875 L 71.984375 223.742188 L 74.382812 226.125 L 79.511719 228.28125 L 79.941406 228.871094 L 79.511719 229.121094 L 74.382812 229.890625 L 69.257812 229.96875 L 67.183594 228.871094 L 64.128906 226.867188 L 59 224.089844 L 59 226.476562 L 62.15625 228.871094 L 64.128906 231.410156 L 68.789062 234 L 74.96875 234 L 79.511719 233.167969 L 84.640625 230.355469 L 86.011719 228.871094 L 84.640625 226.15625 L 82.8125 223.742188 L 79.511719 222.070312 L 74.382812 221.617188 L 69.257812 218.800781 L 69.132812 218.617188 L 66.582031 213.488281 L 66.113281 208.359375 L 67.308594 203.230469 L 69.222656 198.101562 L 69.257812 198.039062 L 72.441406 192.972656 L 74.382812 189.457031 L 75.28125 187.847656 L 77.960938 182.71875 L 79.511719 179.234375 L 80.269531 177.589844 L 81.953125 172.460938 L 82.507812 167.332031 L 82.480469 162.207031 L 80.902344 157.078125 L 79.511719 154.617188 L 78.089844 151.949219 L 74.382812 148.375 L 72.734375 146.820312 Z M 69.257812 144.121094 "/>
<path fill-rule="evenodd" fill="rgb(51.999998%, 51.999998%, 100%)" fill-opacity="1" d="M 259 139.738281 L 253.871094 140.492188 L 251.710938 141.691406 L 248.742188 142.578125 L 243.617188 146.214844 L 242.976562 146.820312 L 238.488281 151.015625 L 237.585938 151.949219 L 235.027344 157.078125 L 233.855469 162.207031 L 233.765625 167.332031 L 234.230469 172.460938 L 235.394531 177.589844 L 237.386719 182.71875 L 238.488281 184.839844 L 239.789062 187.847656 L 242.320312 192.972656 L 243.617188 195.113281 L 245.25 198.101562 L 248.046875 203.230469 L 248.742188 204.613281 L 249.625 208.359375 L 249.238281 213.488281 L 248.742188 214.46875 L 244.136719 218.617188 L 243.617188 218.910156 L 238.488281 218.898438 L 233.359375 220.484375 L 229.933594 223.742188 L 228.230469 227.714844 L 227.625 228.871094 L 228.230469 229.941406 L 231.65625 234 L 243.089844 234 L 238.488281 233.171875 L 233.359375 230.378906 L 231.964844 228.871094 L 233.359375 226.109375 L 235.148438 223.742188 L 238.488281 222.054688 L 243.617188 221.601562 L 248.742188 218.753906 L 248.835938 218.617188 L 251.410156 213.488281 L 251.902344 208.359375 L 250.734375 203.230469 L 248.816406 198.101562 L 248.742188 197.964844 L 245.585938 192.972656 L 243.617188 189.441406 L 242.722656 187.847656 L 240.03125 182.71875 L 238.488281 179.261719 L 237.71875 177.589844 L 236.03125 172.460938 L 235.472656 167.332031 L 235.492188 162.207031 L 237.066406 157.078125 L 238.488281 154.550781 L 239.882812 151.949219 L 243.617188 148.351562 L 245.246094 146.820312 L 248.742188 144.113281 L 253.871094 142.550781 L 259 141.992188 Z M 259 139.738281 "/>
<path fill-rule="evenodd" fill="rgb(51.999998%, 51.999998%, 100%)" fill-opacity="1" d="M 59 139.738281 L 59 141.992188 L 64.128906 142.558594 L 69.257812 144.121094 L 72.734375 146.820312 L 74.382812 148.375 L 78.089844 151.949219 L 79.511719 154.617188 L 80.902344 157.078125 L 82.480469 162.207031 L 82.507812 167.332031 L 81.953125 172.460938 L 80.269531 177.589844 L 79.511719 179.234375 L 77.960938 182.71875 L 75.28125 187.847656 L 74.382812 189.457031 L 72.441406 192.972656 L 69.257812 198.039062 L 69.222656 198.101562 L 67.308594 203.230469 L 66.113281 208.359375 L 66.582031 213.488281 L 69.132812 218.617188 L 69.257812 218.800781 L 74.382812 221.617188 L 79.511719 222.070312 L 82.8125 223.742188 L 84.640625 226.15625 L 86.011719 228.871094 L 84.640625 230.355469 L 79.511719 233.167969 L 74.96875 234 L 86.320312 234 L 89.769531 229.898438 L 90.351562 228.871094 L 89.769531 227.769531 L 88.042969 223.742188 L 84.640625 220.503906 L 79.511719 218.910156 L 74.382812 218.933594 L 73.820312 218.617188 L 69.257812 214.484375 L 68.757812 213.488281 L 68.382812 208.359375 L 69.257812 204.722656 L 70.011719 203.230469 L 72.785156 198.101562 L 74.382812 195.152344 L 75.695312 192.972656 L 78.207031 187.847656 L 79.511719 184.816406 L 80.601562 182.71875 L 82.59375 177.589844 L 83.753906 172.460938 L 84.21875 167.332031 L 84.125 162.207031 L 82.945312 157.078125 L 80.371094 151.949219 L 79.511719 151.058594 L 74.984375 146.820312 L 74.382812 146.25 L 69.257812 142.585938 L 66.265625 141.691406 L 64.128906 140.5 Z M 59 139.738281 "/>
<path fill-rule="evenodd" fill="rgb(51.999998%, 51.999998%, 100%)" fill-opacity="1" d="M 259 228.851562 L 259 226.457031 L 255.800781 228.871094 L 253.871094 231.34375 L 249.164062 234 L 255.308594 234 L 258.972656 228.871094 Z M 259 228.851562 "/>
<path fill-rule="evenodd" fill="rgb(51.999998%, 51.999998%, 100%)" fill-opacity="1" d="M 59 228.867188 L 59.003906 228.871094 L 62.644531 234 L 68.789062 234 L 64.128906 231.410156 L 62.15625 228.871094 L 59 226.476562 Z M 59 228.867188 "/>
<path fill-rule="evenodd" fill="rgb(75.999999%, 75.999999%, 100%)" fill-opacity="1" d="M 259 137.300781 L 253.871094 137.628906 L 248.742188 139.296875 L 245.839844 141.691406 L 243.617188 142.800781 L 239.394531 146.820312 L 238.488281 147.667969 L 234.355469 151.949219 L 233.359375 155.1875 L 231.90625 157.078125 L 230 162.207031 L 229.734375 167.332031 L 230.316406 172.460938 L 232.15625 177.589844 L 233.359375 179.929688 L 233.875 182.71875 L 235.207031 187.847656 L 238.070312 192.972656 L 238.488281 193.613281 L 240.121094 198.101562 L 242.578125 203.230469 L 243.617188 205.941406 L 244.179688 208.359375 L 243.617188 210.503906 L 238.488281 212.53125 L 235.953125 213.488281 L 233.359375 213.996094 L 228.230469 217.941406 L 227.523438 218.617188 L 223.261719 223.742188 L 223.101562 224.164062 L 219.484375 228.871094 L 217.972656 233.515625 L 217.457031 234 L 231.65625 234 L 228.230469 229.941406 L 227.625 228.871094 L 228.230469 227.714844 L 229.933594 223.742188 L 233.359375 220.484375 L 238.488281 218.898438 L 243.617188 218.910156 L 244.136719 218.617188 L 248.742188 214.46875 L 249.238281 213.488281 L 249.625 208.359375 L 248.742188 204.613281 L 248.046875 203.230469 L 245.25 198.101562 L 243.617188 195.113281 L 242.320312 192.972656 L 239.789062 187.847656 L 238.488281 184.839844 L 237.386719 182.71875 L 235.394531 177.589844 L 234.230469 172.460938 L 233.765625 167.332031 L 233.855469 162.207031 L 235.027344 157.078125 L 237.585938 151.949219 L 238.488281 151.015625 L 242.976562 146.820312 L 243.617188 146.214844 L 248.742188 142.578125 L 251.710938 141.691406 L 253.871094 140.492188 L 259 139.738281 Z M 259 137.300781 "/>
<path fill-rule="evenodd" fill="rgb(75.999999%, 75.999999%, 100%)" fill-opacity="1" d="M 69.257812 139.3125 L 64.128906 137.636719 L 59 137.300781 L 59 139.738281 L 64.128906 140.5 L 66.265625 141.691406 L 69.257812 142.585938 L 74.382812 146.25 L 74.984375 146.820312 L 79.511719 151.058594 L 80.371094 151.949219 L 82.945312 157.078125 L 84.125 162.207031 L 84.21875 167.332031 L 83.753906 172.460938 L 82.59375 177.589844 L 80.601562 182.71875 L 79.511719 184.816406 L 78.207031 187.847656 L 75.695312 192.972656 L 74.382812 195.152344 L 72.785156 198.101562 L 70.011719 203.230469 L 69.257812 204.722656 L 68.382812 208.359375 L 68.757812 213.488281 L 69.257812 214.484375 L 73.820312 218.617188 L 74.382812 218.933594 L 79.511719 218.910156 L 84.640625 220.503906 L 88.042969 223.742188 L 89.769531 227.769531 L 90.351562 228.871094 L 89.769531 229.898438 L 86.320312 234 L 100.523438 234 L 100.027344 233.53125 L 98.5 228.871094 L 94.898438 224.199219 L 94.726562 223.742188 L 90.449219 218.617188 L 89.769531 217.96875 L 84.640625 214.003906 L 82.003906 213.488281 L 79.511719 212.546875 L 74.382812 210.488281 L 73.835938 208.359375 L 74.382812 206.039062 L 75.46875 203.230469 L 77.902344 198.101562 L 79.511719 193.640625 L 79.945312 192.972656 L 82.789062 187.847656 L 84.121094 182.71875 L 84.640625 179.875 L 85.816406 177.589844 L 87.660156 172.460938 L 88.242188 167.332031 L 87.976562 162.207031 L 86.042969 157.078125 L 84.640625 155.261719 L 83.621094 151.949219 L 79.511719 147.6875 L 78.589844 146.820312 L 74.382812 142.816406 L 72.132812 141.691406 Z M 69.257812 139.3125 "/>
<path fill-rule="evenodd" fill="rgb(75.999999%, 75.999999%, 100%)" fill-opacity="1" d="M 59 228.867188 L 59 234 L 62.644531 234 L 59.003906 228.871094 Z M 59 228.867188 "/>
<path fill-rule="evenodd" fill="rgb(75.999999%, 75.999999%, 100%)" fill-opacity="1" d="M 258.972656 228.871094 L 255.308594 234 L 259 234 L 259 228.851562 Z M 258.972656 228.871094 "/>
<path fill-rule="evenodd" fill="rgb(100%, 100%, 100%)" fill-opacity="1" d="M 253.871094 34 L 59 34 L 59 137.300781 L 64.128906 137.636719 L 69.257812 139.3125 L 72.132812 141.691406 L 74.382812 142.816406 L 78.589844 146.820312 L 79.511719 147.6875 L 83.621094 151.949219 L 84.640625 155.261719 L 86.042969 157.078125 L 87.976562 162.207031 L 88.242188 167.332031 L 87.660156 172.460938 L 85.816406 177.589844 L 84.640625 179.875 L 84.121094 182.71875 L 82.789062 187.847656 L 79.945312 192.972656 L 79.511719 193.640625 L 77.902344 198.101562 L 75.46875 203.230469 L 74.382812 206.039062 L 73.835938 208.359375 L 74.382812 210.488281 L 79.511719 212.546875 L 82.003906 213.488281 L 84.640625 214.003906 L 89.769531 217.96875 L 90.449219 218.617188 L 94.726562 223.742188 L 94.898438 224.199219 L 98.5 228.871094 L 100.027344 233.53125 L 100.523438 234 L 217.457031 234 L 217.972656 233.515625 L 219.484375 228.871094 L 223.101562 224.164062 L 223.261719 223.742188 L 227.523438 218.617188 L 228.230469 217.941406 L 233.359375 213.996094 L 235.953125 213.488281 L 238.488281 212.53125 L 243.617188 210.503906 L 244.179688 208.359375 L 243.617188 205.941406 L 242.578125 203.230469 L 240.121094 198.101562 L 238.488281 193.613281 L 238.070312 192.972656 L 235.207031 187.847656 L 233.875 182.71875 L 233.359375 179.929688 L 232.15625 177.589844 L 230.316406 172.460938 L 229.734375 167.332031 L 230 162.207031 L 231.90625 157.078125 L 233.359375 155.1875 L 234.355469 151.949219 L 238.488281 147.667969 L 239.394531 146.820312 L 243.617188 142.800781 L 245.839844 141.691406 L 248.742188 139.296875 L 253.871094 137.628906 L 259 137.300781 L 259 34 Z M 253.871094 34 "/>
<path fill-rule="nonzero" fill="rgb(0%, 0%, 35.600001%)" fill-opacity="1" d="M 277 234 L 289 234 L 289 210.777344 L 277 210.777344 Z M 277 234 "/>
<path fill-rule="nonzero" fill="rgb(0%, 0%, 52.399999%)" fill-opacity="1" d="M 277 211.777344 L 289 211.777344 L 289 188.554688 L 277 188.554688 Z M 277 211.777344 "/>
<path fill-rule="nonzero" fill="rgb(0%, 0%, 69.199997%)" fill-opacity="1" d="M 277 189.554688 L 289 189.554688 L 289 166.332031 L 277 166.332031 Z M 277 189.554688 "/>
<path fill-rule="nonzero" fill="rgb(0%, 0%, 86.000001%)" fill-opacity="1" d="M 277 167.332031 L 289 167.332031 L 289 144.109375 L 277 144.109375 Z M 277 167.332031 "/>
<path fill-rule="nonzero" fill="rgb(4%, 4%, 100%)" fill-opacity="1" d="M 277 145.109375 L 289 145.109375 L 289 121.890625 L 277 121.890625 Z M 277 145.109375 "/>
<path fill-rule="nonzero" fill="rgb(28%, 28%, 100%)" fill-opacity="1" d="M 277 122.890625 L 289 122.890625 L 289 99.667969 L 277 99.667969 Z M 277 122.890625 "/>
<path fill-rule="nonzero" fill="rgb(51.999998%, 51.999998%, 100%)" fill-opacity="1" d="M 277 100.667969 L 289 100.667969 L 289 77.445312 L 277 77.445312 Z M 277 100.667969 "/>
<path fill-rule="nonzero" fill="rgb(75.999999%, 75.999999%, 100%)" fill-opacity="1" d="M 277 78.445312 L 289 78.445312 L 289 55.222656 L 277 55.222656 Z M 277 78.445312 "/>
<path fill-rule="nonzero" fill="rgb(100%, 100%, 100%)" fill-opacity="1" d="M 277 56.222656 L 289 56.222656 L 289 34 L 277 34 Z M 277 56.222656 "/>
<path fill="none" stroke-width="1" stroke-linecap="butt" stroke-linejoin="miter" stroke="rgb(0%, 0%, 0%)" stroke-opacity="1" stroke-miterlimit="2" d="M 289 234 L 289 34 L 277 34 L 277 234 Z M 289 234 "/>
<g fill="rgb(0%, 0%, 0%)" fill-opacity="1">
<use xlink:href="#glyph-9-0-882da4c3" x="373.43399" y="150.305303"/>
</g>
<g fill="rgb(0%, 0%, 0%)" fill-opacity="1">
<use xlink:href="#glyph-10-0-882da4c3" x="372.033991" y="145.335305"/>
</g>
<g fill="rgb(0%, 0%, 0%)" fill-opacity="1">
<use xlink:href="#glyph-11-0-882da4c3" x="373.433991" y="136.370685"/>
</g>
<g fill="rgb(0%, 0%, 0%)" fill-opacity="1">
<use xlink:href="#glyph-9-1-882da4c3" x="373.433991" y="132.478685"/>
</g>
<g fill="rgb(0%, 0%, 0%)" fill-opacity="1">
<use xlink:href="#glyph-12-0-882da4c3" x="373.433992" y="121.586686"/>
</g>
<g fill="rgb(0%, 0%, 0%)" fill-opacity="1">
<use xlink:href="#glyph-1-8-882da4c3" x="297.999994" y="238.283999"/>
</g>
<g fill="rgb(0%, 0%, 0%)" fill-opacity="1">
<use xlink:href="#glyph-1-9-882da4c3" x="302.661994" y="238.283999"/>
</g>
<g fill="rgb(0%, 0%, 0%)" fill-opacity="1">
<use xlink:href="#glyph-1-10-882da4c3" x="309.661994" y="238.283999"/>
</g>
<g fill="rgb(0%, 0%, 0%)" fill-opacity="1">
<use xlink:href="#glyph-1-5-882da4c3" x="313.553994" y="238.283999"/>
</g>
<g fill="rgb(0%, 0%, 0%)" fill-opacity="1">
<use xlink:href="#glyph-1-11-882da4c3" x="320.553994" y="238.283999"/>
</g>
<g fill="rgb(0%, 0%, 0%)" fill-opacity="1">
<use xlink:href="#glyph-1-12-882da4c3" x="327.553994" y="238.283999"/>
</g>
<g fill="rgb(0%, 0%, 0%)" fill-opacity="1">
<use xlink:href="#glyph-1-8-882da4c3" x="337.087994" y="238.283999"/>
</g>
<g fill="rgb(0%, 0%, 0%)" fill-opacity="1">
<use xlink:href="#glyph-1-6-882da4c3" x="341.749993" y="238.283999"/>
</g>
<g fill="rgb(0%, 0%, 0%)" fill-opacity="1">
<use xlink:href="#glyph-1-7-882da4c3" x="348.749993" y="238.283999"/>
</g>
<g fill="rgb(0%, 0%, 0%)" fill-opacity="1">
<use xlink:href="#glyph-1-8-882da4c3" x="297.999994" y="216.061777"/>
</g>
<g fill="rgb(0%, 0%, 0%)" fill-opacity="1">
<use xlink:href="#glyph-1-13-882da4c3" x="302.661994" y="216.061777"/>
</g>
<g fill="rgb(0%, 0%, 0%)" fill-opacity="1">
<use xlink:href="#glyph-1-10-882da4c3" x="309.661994" y="216.061777"/>
</g>
<g fill="rgb(0%, 0%, 0%)" fill-opacity="1">
<use xlink:href="#glyph-1-14-882da4c3" x="313.553994" y="216.061777"/>
</g>
<g fill="rgb(0%, 0%, 0%)" fill-opacity="1">
<use xlink:href="#glyph-1-6-882da4c3" x="320.553994" y="216.061777"/>
</g>
<g fill="rgb(0%, 0%, 0%)" fill-opacity="1">
<use xlink:href="#glyph-1-12-882da4c3" x="327.553994" y="216.061777"/>
</g>
<g fill="rgb(0%, 0%, 0%)" fill-opacity="1">
<use xlink:href="#glyph-1-8-882da4c3" x="337.087994" y="216.061777"/>
</g>
<g fill="rgb(0%, 0%, 0%)" fill-opacity="1">
<use xlink:href="#glyph-1-6-882da4c3" x="341.749993" y="216.061777"/>
</g>
<g fill="rgb(0%, 0%, 0%)" fill-opacity="1">
<use xlink:href="#glyph-1-7-882da4c3" x="348.749993" y="216.061777"/>
</g>
<g fill="rgb(0%, 0%, 0%)" fill-opacity="1">
<use xlink:href="#glyph-1-8-882da4c3" x="297.999994" y="193.839555"/>
</g>
<g fill="rgb(0%, 0%, 0%)" fill-opacity="1">
<use xlink:href="#glyph-1-15-882da4c3" x="302.661994" y="193.839555"/>
</g>
<g fill="rgb(0%, 0%, 0%)" fill-opacity="1">
<use xlink:href="#glyph-1-10-882da4c3" x="309.661994" y="193.839555"/>
</g>
<g fill="rgb(0%, 0%, 0%)" fill-opacity="1">
<use xlink:href="#glyph-1-11-882da4c3" x="313.553994" y="193.839555"/>
</g>
<g fill="rgb(0%, 0%, 0%)" fill-opacity="1">
<use xlink:href="#glyph-1-13-882da4c3" x="320.553994" y="193.839555"/>
</g>
<g fill="rgb(0%, 0%, 0%)" fill-opacity="1">
<use xlink:href="#glyph-1-12-882da4c3" x="327.553994" y="193.839555"/>
</g>
<g fill="rgb(0%, 0%, 0%)" fill-opacity="1">
<use xlink:href="#glyph-1-8-882da4c3" x="337.087994" y="193.839555"/>
</g>
<g fill="rgb(0%, 0%, 0%)" fill-opacity="1">
<use xlink:href="#glyph-1-6-882da4c3" x="341.749993" y="193.839555"/>
</g>
<g fill="rgb(0%, 0%, 0%)" fill-opacity="1">
<use xlink:href="#glyph-1-7-882da4c3" x="348.749993" y="193.839555"/>
</g>
<g fill="rgb(0%, 0%, 0%)" fill-opacity="1">
<use xlink:href="#glyph-1-8-882da4c3" x="297.999994" y="171.617325"/>
</g>
<g fill="rgb(0%, 0%, 0%)" fill-opacity="1">
<use xlink:href="#glyph-1-16-882da4c3" x="302.661994" y="171.617325"/>
</g>
<g fill="rgb(0%, 0%, 0%)" fill-opacity="1">
<use xlink:href="#glyph-1-10-882da4c3" x="309.661994" y="171.617325"/>
</g>
<g fill="rgb(0%, 0%, 0%)" fill-opacity="1">
<use xlink:href="#glyph-1-7-882da4c3" x="313.553994" y="171.617325"/>
</g>
<g fill="rgb(0%, 0%, 0%)" fill-opacity="1">
<use xlink:href="#glyph-1-16-882da4c3" x="320.553994" y="171.617325"/>
</g>
<g fill="rgb(0%, 0%, 0%)" fill-opacity="1">
<use xlink:href="#glyph-1-12-882da4c3" x="327.553994" y="171.617325"/>
</g>
<g fill="rgb(0%, 0%, 0%)" fill-opacity="1">
<use xlink:href="#glyph-1-8-882da4c3" x="337.087994" y="171.617325"/>
</g>
<g fill="rgb(0%, 0%, 0%)" fill-opacity="1">
<use xlink:href="#glyph-1-6-882da4c3" x="341.749993" y="171.617325"/>
</g>
<g fill="rgb(0%, 0%, 0%)" fill-opacity="1">
<use xlink:href="#glyph-1-7-882da4c3" x="348.749993" y="171.617325"/>
</g>
<g fill="rgb(0%, 0%, 0%)" fill-opacity="1">
<use xlink:href="#glyph-1-8-882da4c3" x="297.999994" y="149.395111"/>
</g>
<g fill="rgb(0%, 0%, 0%)" fill-opacity="1">
<use xlink:href="#glyph-1-5-882da4c3" x="302.661994" y="149.395111"/>
</g>
<g fill="rgb(0%, 0%, 0%)" fill-opacity="1">
<use xlink:href="#glyph-1-10-882da4c3" x="309.661994" y="149.395111"/>
</g>
<g fill="rgb(0%, 0%, 0%)" fill-opacity="1">
<use xlink:href="#glyph-1-6-882da4c3" x="313.553994" y="149.395111"/>
</g>
<g fill="rgb(0%, 0%, 0%)" fill-opacity="1">
<use xlink:href="#glyph-1-14-882da4c3" x="320.553994" y="149.395111"/>
</g>
<g fill="rgb(0%, 0%, 0%)" fill-opacity="1">
<use xlink:href="#glyph-1-12-882da4c3" x="327.553994" y="149.395111"/>
</g>
<g fill="rgb(0%, 0%, 0%)" fill-opacity="1">
<use xlink:href="#glyph-1-8-882da4c3" x="337.087994" y="149.395111"/>
</g>
<g fill="rgb(0%, 0%, 0%)" fill-opacity="1">
<use xlink:href="#glyph-1-6-882da4c3" x="341.749993" y="149.395111"/>
</g>
<g fill="rgb(0%, 0%, 0%)" fill-opacity="1">
<use xlink:href="#glyph-1-7-882da4c3" x="348.749993" y="149.395111"/>
</g>
<g fill="rgb(0%, 0%, 0%)" fill-opacity="1">
<use xlink:href="#glyph-1-8-882da4c3" x="297.999994" y="127.172881"/>
</g>
<g fill="rgb(0%, 0%, 0%)" fill-opacity="1">
<use xlink:href="#glyph-1-17-882da4c3" x="302.661994" y="127.172881"/>
</g>
<g fill="rgb(0%, 0%, 0%)" fill-opacity="1">
<use xlink:href="#glyph-1-10-882da4c3" x="309.661994" y="127.172881"/>
</g>
<g fill="rgb(0%, 0%, 0%)" fill-opacity="1">
<use xlink:href="#glyph-1-9-882da4c3" x="313.553994" y="127.172881"/>
</g>
<g fill="rgb(0%, 0%, 0%)" fill-opacity="1">
<use xlink:href="#glyph-1-11-882da4c3" x="320.553994" y="127.172881"/>
</g>
<g fill="rgb(0%, 0%, 0%)" fill-opacity="1">
<use xlink:href="#glyph-1-12-882da4c3" x="327.553994" y="127.172881"/>
</g>
<g fill="rgb(0%, 0%, 0%)" fill-opacity="1">
<use xlink:href="#glyph-1-8-882da4c3" x="337.087994" y="127.172881"/>
</g>
<g fill="rgb(0%, 0%, 0%)" fill-opacity="1">
<use xlink:href="#glyph-1-6-882da4c3" x="341.749993" y="127.172881"/>
</g>
<g fill="rgb(0%, 0%, 0%)" fill-opacity="1">
<use xlink:href="#glyph-1-7-882da4c3" x="348.749993" y="127.172881"/>
</g>
<g fill="rgb(0%, 0%, 0%)" fill-opacity="1">
<use xlink:href="#glyph-1-8-882da4c3" x="297.999994" y="104.950666"/>
</g>
<g fill="rgb(0%, 0%, 0%)" fill-opacity="1">
<use xlink:href="#glyph-1-11-882da4c3" x="302.661994" y="104.950666"/>
</g>
<g fill="rgb(0%, 0%, 0%)" fill-opacity="1">
<use xlink:href="#glyph-1-10-882da4c3" x="309.661994" y="104.950666"/>
</g>
<g fill="rgb(0%, 0%, 0%)" fill-opacity="1">
<use xlink:href="#glyph-1-13-882da4c3" x="313.553994" y="104.950666"/>
</g>
<g fill="rgb(0%, 0%, 0%)" fill-opacity="1">
<use xlink:href="#glyph-1-6-882da4c3" x="320.553994" y="104.950666"/>
</g>
<g fill="rgb(0%, 0%, 0%)" fill-opacity="1">
<use xlink:href="#glyph-1-12-882da4c3" x="327.553994" y="104.950666"/>
</g>
<g fill="rgb(0%, 0%, 0%)" fill-opacity="1">
<use xlink:href="#glyph-1-8-882da4c3" x="337.087994" y="104.950666"/>
</g>
<g fill="rgb(0%, 0%, 0%)" fill-opacity="1">
<use xlink:href="#glyph-1-6-882da4c3" x="341.749993" y="104.950666"/>
</g>
<g fill="rgb(0%, 0%, 0%)" fill-opacity="1">
<use xlink:href="#glyph-1-7-882da4c3" x="348.749993" y="104.950666"/>
</g>
<g fill="rgb(0%, 0%, 0%)" fill-opacity="1">
<use xlink:href="#glyph-1-8-882da4c3" x="297.999994" y="82.728437"/>
</g>
<g fill="rgb(0%, 0%, 0%)" fill-opacity="1">
<use xlink:href="#glyph-1-7-882da4c3" x="302.661994" y="82.728437"/>
</g>
<g fill="rgb(0%, 0%, 0%)" fill-opacity="1">
<use xlink:href="#glyph-1-10-882da4c3" x="309.661994" y="82.728437"/>
</g>
<g fill="rgb(0%, 0%, 0%)" fill-opacity="1">
<use xlink:href="#glyph-1-16-882da4c3" x="313.553994" y="82.728437"/>
</g>
<g fill="rgb(0%, 0%, 0%)" fill-opacity="1">
<use xlink:href="#glyph-1-13-882da4c3" x="320.553994" y="82.728437"/>
</g>
<g fill="rgb(0%, 0%, 0%)" fill-opacity="1">
<use xlink:href="#glyph-1-12-882da4c3" x="327.553994" y="82.728437"/>
</g>
<g fill="rgb(0%, 0%, 0%)" fill-opacity="1">
<use xlink:href="#glyph-1-8-882da4c3" x="337.087994" y="82.728437"/>
</g>
<g fill="rgb(0%, 0%, 0%)" fill-opacity="1">
<use xlink:href="#glyph-1-6-882da4c3" x="341.749993" y="82.728437"/>
</g>
<g fill="rgb(0%, 0%, 0%)" fill-opacity="1">
<use xlink:href="#glyph-1-7-882da4c3" x="348.749993" y="82.728437"/>
</g>
<g fill="rgb(0%, 0%, 0%)" fill-opacity="1">
<use xlink:href="#glyph-13-0-882da4c3" x="297.999994" y="60.506222"/>
</g>
<g fill="rgb(0%, 0%, 0%)" fill-opacity="1">
<use xlink:href="#glyph-13-1-882da4c3" x="302.661994" y="60.506222"/>
</g>
<g fill="rgb(0%, 0%, 0%)" fill-opacity="1">
<use xlink:href="#glyph-13-2-882da4c3" x="309.661994" y="60.506222"/>
</g>
<g fill="rgb(0%, 0%, 0%)" fill-opacity="1">
<use xlink:href="#glyph-13-3-882da4c3" x="313.553994" y="60.506222"/>
</g>
<g fill="rgb(0%, 0%, 0%)" fill-opacity="1">
<use xlink:href="#glyph-13-4-882da4c3" x="320.553994" y="60.506222"/>
</g>
<g fill="rgb(0%, 0%, 0%)" fill-opacity="1">
<use xlink:href="#glyph-13-5-882da4c3" x="327.553994" y="60.506222"/>
</g>
<g fill="rgb(0%, 0%, 0%)" fill-opacity="1">
<use xlink:href="#glyph-13-0-882da4c3" x="337.087994" y="60.506222"/>
</g>
<g fill="rgb(0%, 0%, 0%)" fill-opacity="1">
<use xlink:href="#glyph-13-4-882da4c3" x="341.749993" y="60.506222"/>
</g>
<g fill="rgb(0%, 0%, 0%)" fill-opacity="1">
<use xlink:href="#glyph-13-6-882da4c3" x="348.749993" y="60.506222"/>
</g>
<g fill="rgb(0%, 0%, 0%)" fill-opacity="1">
<use xlink:href="#glyph-1-5-882da4c3" x="302.647994" y="38.283993"/>
</g>
<g fill="rgb(0%, 0%, 0%)" fill-opacity="1">
<use xlink:href="#glyph-1-10-882da4c3" x="309.647993" y="38.283993"/>
</g>
<g fill="rgb(0%, 0%, 0%)" fill-opacity="1">
<use xlink:href="#glyph-1-16-882da4c3" x="313.539994" y="38.283993"/>
</g>
<g fill="rgb(0%, 0%, 0%)" fill-opacity="1">
<use xlink:href="#glyph-1-6-882da4c3" x="320.539994" y="38.283993"/>
</g>
<g fill="rgb(0%, 0%, 0%)" fill-opacity="1">
<use xlink:href="#glyph-1-12-882da4c3" x="327.539994" y="38.283993"/>
</g>
<g fill="rgb(0%, 0%, 0%)" fill-opacity="1">
<use xlink:href="#glyph-1-8-882da4c3" x="337.073994" y="38.283993"/>
</g>
<g fill="rgb(0%, 0%, 0%)" fill-opacity="1">
<use xlink:href="#glyph-1-6-882da4c3" x="341.735993" y="38.283993"/>
</g>
<g fill="rgb(0%, 0%, 0%)" fill-opacity="1">
<use xlink:href="#glyph-1-11-882da4c3" x="348.735993" y="38.283993"/>
</g>
<path fill="none" stroke-width="1" stroke-linecap="butt" stroke-linejoin="miter" stroke="rgb(0%, 0%, 0%)" stroke-opacity="1" stroke-miterlimit="1.154701" d="M 107.71875 234.5 L 107.71875 239.5 "/>
<path fill="none" stroke-width="1" stroke-linecap="butt" stroke-linejoin="miter" stroke="rgb(0%, 0%, 0%)" stroke-opacity="1" stroke-miterlimit="1.154701" d="M 159 234.5 L 159 239.5 "/>
<path fill="none" stroke-width="1" stroke-linecap="butt" stroke-linejoin="miter" stroke="rgb(0%, 0%, 0%)" stroke-opacity="1" stroke-miterlimit="1.154701" d="M 210.28125 234.5 L 210.28125 239.5 "/>
<path fill="none" stroke-width="1" stroke-linecap="butt" stroke-linejoin="miter" stroke="rgb(0%, 0%, 0%)" stroke-opacity="1" stroke-miterlimit="1.154701" d="M 58.5 185.28125 L 53.5 185.28125 "/>
<path fill="none" stroke-width="1" stroke-linecap="butt" stroke-linejoin="miter" stroke="rgb(0%, 0%, 0%)" stroke-opacity="1" stroke-miterlimit="1.154701" d="M 58.5 134 L 53.5 134 "/>
<path fill="none" stroke-width="1" stroke-linecap="butt" stroke-linejoin="miter" stroke="rgb(0%, 0%, 0%)" stroke-opacity="1" stroke-miterlimit="1.154701" d="M 58.5 82.71875 L 53.5 82.71875 "/>
<path fill="none" stroke-width="1" stroke-linecap="butt" stroke-linejoin="miter" stroke="rgb(0%, 0%, 0%)" stroke-opacity="1" stroke-miterlimit="1.154701" d="M 289.5 234 L 294.5 234 "/>
<path fill="none" stroke-width="1" stroke-linecap="butt" stroke-linejoin="miter" stroke="rgb(0%, 0%, 0%)" stroke-opacity="1" stroke-miterlimit="1.154701" d="M 289.5 211.777344 L 294.5 211.777344 "/>
<path fill="none" stroke-width="1" stroke-linecap="butt" stroke-linejoin="miter" stroke="rgb(0%, 0%, 0%)" stroke-opacity="1" stroke-miterlimit="1.154701" d="M 289.5 189.554688 L 294.5 189.554688 "/>
<path fill="none" stroke-width="1" stroke-linecap="butt" stroke-linejoin="miter" stroke="rgb(0%, 0%, 0%)" stroke-opacity="1" stroke-miterlimit="1.154701" d="M 289.5 167.332031 L 294.5 167.332031 "/>
<path fill="none" stroke-width="1" stroke-linecap="butt" stroke-linejoin="miter" stroke="rgb(0%, 0%, 0%)" stroke-opacity="1" stroke-miterlimit="1.154701" d="M 289.5 145.109375 L 294.5 145.109375 "/>
<path fill="none" stroke-width="1" stroke-linecap="butt" stroke-linejoin="miter" stroke="rgb(0%, 0%, 0%)" stroke-opacity="1" stroke-miterlimit="1.154701" d="M 289.5 122.890625 L 294.5 122.890625 "/>
<path fill="none" stroke-width="1" stroke-linecap="butt" stroke-linejoin="miter" stroke="rgb(0%, 0%, 0%)" stroke-opacity="1" stroke-miterlimit="1.154701" d="M 289.5 100.667969 L 294.5 100.667969 "/>
<path fill="none" stroke-width="1" stroke-linecap="butt" stroke-linejoin="miter" stroke="rgb(0%, 0%, 0%)" stroke-opacity="1" stroke-miterlimit="1.154701" d="M 289.5 78.445312 L 294.5 78.445312 "/>
<path fill="none" stroke-width="1" stroke-linecap="butt" stroke-linejoin="miter" stroke="rgb(0%, 0%, 0%)" stroke-opacity="1" stroke-miterlimit="1.154701" d="M 289.5 56.222656 L 294.5 56.222656 "/>
<path fill="none" stroke-width="1" stroke-linecap="butt" stroke-linejoin="miter" stroke="rgb(0%, 0%, 0%)" stroke-opacity="1" stroke-miterlimit="1.154701" d="M 289.5 34 L 294.5 34 "/>
<path fill="none" stroke-width="1" stroke-linecap="butt" stroke-linejoin="miter" stroke="rgb(0%, 0%, 0%)" stroke-opacity="1" stroke-miterlimit="1.154701" d="M 58.5 234 L 259.5 234 "/>
<path fill="none" stroke-width="1" stroke-linecap="butt" stroke-linejoin="miter" stroke="rgb(0%, 0%, 0%)" stroke-opacity="1" stroke-miterlimit="1.154701" d="M 59 234.5 L 59 33.5 "/>
<path fill="none" stroke-width="1" stroke-linecap="butt" stroke-linejoin="miter" stroke="rgb(0%, 0%, 0%)" stroke-opacity="1" stroke-miterlimit="1.154701" d="M 58.5 34 L 259.5 34 "/>
<path fill="none" stroke-width="1" stroke-linecap="butt" stroke-linejoin="miter" stroke="rgb(0%, 0%, 0%)" stroke-opacity="1" stroke-miterlimit="1.154701" d="M 259 234.5 L 259 33.5 "/>
</svg>
