<?xml version="1.0" encoding="UTF-8"?>
<svg xmlns="http://www.w3.org/2000/svg" xmlns:xlink="http://www.w3.org/1999/xlink" width="398" height="289" viewBox="0 0 398 289">
<defs>
<g>
<g id="glyph-0-0-4dfc0aa4">
<path d="M 6.828125 -2 C 6.828125 -2.140625 6.71875 -2.140625 6.625 -2.140625 C 6.453125 -2.140625 6.4375 -2.125 6.375 -1.90625 C 5.984375 -0.703125 5.296875 -0.15625 4.703125 -0.15625 C 4.421875 -0.15625 4.046875 -0.328125 4.046875 -1.046875 C 4.046875 -1.390625 4.203125 -1.984375 4.3125 -2.46875 L 4.78125 -4.375 C 4.984375 -5.109375 5.359375 -5.875 6.015625 -5.875 C 6.0625 -5.875 6.40625 -5.875 6.640625 -5.6875 C 6.078125 -5.546875 6.078125 -5.015625 6.078125 -5.015625 C 6.078125 -4.828125 6.203125 -4.5625 6.5625 -4.5625 C 6.8125 -4.5625 7.25 -4.765625 7.25 -5.3125 C 7.25 -6.015625 6.4375 -6.1875 6.03125 -6.1875 C 5.265625 -6.1875 4.796875 -5.5 4.65625 -5.234375 C 4.359375 -6.078125 3.671875 -6.1875 3.3125 -6.1875 C 1.921875 -6.1875 1.15625 -4.359375 1.15625 -4.03125 C 1.15625 -3.890625 1.296875 -3.890625 1.375 -3.890625 C 1.546875 -3.890625 1.546875 -3.90625 1.625 -4.125 C 2 -5.328125 2.734375 -5.875 3.296875 -5.875 C 3.703125 -5.875 3.96875 -5.5625 3.96875 -5 C 3.96875 -4.65625 3.796875 -3.96875 3.671875 -3.453125 L 3.34375 -2.1875 C 3.125 -1.28125 2.828125 -0.15625 1.984375 -0.15625 C 1.953125 -0.15625 1.609375 -0.15625 1.375 -0.34375 C 1.796875 -0.46875 1.921875 -0.8125 1.921875 -1.015625 C 1.921875 -1.390625 1.625 -1.46875 1.4375 -1.46875 C 1.09375 -1.46875 0.734375 -1.171875 0.734375 -0.71875 C 0.734375 -0.171875 1.328125 0.15625 1.96875 0.15625 C 2.640625 0.15625 3.109375 -0.375 3.34375 -0.796875 C 3.625 0 4.3125 0.15625 4.671875 0.15625 C 6.125 0.15625 6.828125 -1.71875 6.828125 -2 Z M 6.828125 -2 "/>
</g>
<g id="glyph-1-0-4dfc0aa4">
<path d="M 3.578125 3.21875 C 3.578125 3.0625 3.453125 2.9375 3.296875 2.9375 L 2.15625 2.9375 L 2.15625 -9.9375 L 3.296875 -9.9375 C 3.453125 -9.9375 3.578125 -10.0625 3.578125 -10.21875 C 3.578125 -10.375 3.453125 -10.5 3.296875 -10.5 L 1.59375 -10.5 L 1.59375 3.5 L 3.296875 3.5 C 3.453125 3.5 3.578125 3.375 3.578125 3.21875 Z M 3.578125 3.21875 "/>
</g>
<g id="glyph-1-1-4dfc0aa4">
<path d="M 7.15625 0 L 7.15625 -0.4375 C 6.640625 -0.4375 6.328125 -0.4375 5.796875 -1.171875 L 4.015625 -3.6875 C 4 -3.703125 3.9375 -3.796875 3.9375 -3.84375 C 3.9375 -3.890625 4.921875 -4.734375 5.0625 -4.84375 C 5.953125 -5.5625 6.53125 -5.59375 6.828125 -5.59375 L 6.828125 -6.03125 C 6.421875 -5.984375 6.25 -5.984375 5.859375 -5.984375 C 5.34375 -5.984375 4.484375 -6.015625 4.28125 -6.03125 L 4.28125 -5.59375 C 4.546875 -5.59375 4.6875 -5.4375 4.6875 -5.25 C 4.6875 -4.96875 4.5 -4.796875 4.375 -4.703125 L 2.40625 -3 L 2.40625 -9.71875 L 0.390625 -9.5625 L 0.390625 -9.125 C 1.375 -9.125 1.484375 -9.03125 1.484375 -8.34375 L 1.484375 -1.0625 C 1.484375 -0.4375 1.328125 -0.4375 0.390625 -0.4375 L 0.390625 0 L 1.921875 -0.046875 L 3.453125 0 L 3.453125 -0.4375 C 2.515625 -0.4375 2.359375 -0.4375 2.359375 -1.0625 L 2.359375 -2.5 L 3.265625 -3.28125 C 4.34375 -1.796875 4.921875 -1.015625 4.921875 -0.75 C 4.921875 -0.484375 4.6875 -0.4375 4.421875 -0.4375 L 4.421875 0 L 5.9375 -0.046875 C 6.34375 -0.046875 6.75 -0.03125 7.15625 0 Z M 7.15625 0 "/>
</g>
<g id="glyph-1-2-4dfc0aa4">
<path d="M 11.375 0 L 11.375 -0.4375 C 10.65625 -0.4375 10.296875 -0.4375 10.296875 -0.859375 L 10.296875 -3.53125 C 10.296875 -4.734375 10.296875 -5.171875 9.859375 -5.671875 C 9.65625 -5.90625 9.203125 -6.1875 8.390625 -6.1875 C 7.203125 -6.1875 6.59375 -5.34375 6.359375 -4.8125 C 6.15625 -6.03125 5.125 -6.1875 4.5 -6.1875 C 3.46875 -6.1875 2.8125 -5.59375 2.421875 -4.71875 L 2.421875 -6.1875 L 0.453125 -6.03125 L 0.453125 -5.59375 C 1.421875 -5.59375 1.546875 -5.5 1.546875 -4.8125 L 1.546875 -1.0625 C 1.546875 -0.4375 1.390625 -0.4375 0.453125 -0.4375 L 0.453125 0 L 2.03125 -0.046875 L 3.59375 0 L 3.59375 -0.4375 C 2.65625 -0.4375 2.5 -0.4375 2.5 -1.0625 L 2.5 -3.640625 C 2.5 -5.09375 3.5 -5.875 4.390625 -5.875 C 5.28125 -5.875 5.4375 -5.125 5.4375 -4.328125 L 5.4375 -1.0625 C 5.4375 -0.4375 5.28125 -0.4375 4.34375 -0.4375 L 4.34375 0 L 5.921875 -0.046875 L 7.484375 0 L 7.484375 -0.4375 C 6.546875 -0.4375 6.390625 -0.4375 6.390625 -1.0625 L 6.390625 -3.640625 C 6.390625 -5.09375 7.390625 -5.875 8.28125 -5.875 C 9.171875 -5.875 9.328125 -5.125 9.328125 -4.328125 L 9.328125 -1.0625 C 9.328125 -0.4375 9.171875 -0.4375 8.234375 -0.4375 L 8.234375 0 L 9.8125 -0.046875 Z M 11.375 0 "/>
</g>
<g id="glyph-1-3-4dfc0aa4">
<path d="M 2.296875 3.5 L 2.296875 -10.5 L 0.59375 -10.5 C 0.4375 -10.5 0.3125 -10.375 0.3125 -10.21875 C 0.3125 -10.0625 0.4375 -9.9375 0.59375 -9.9375 L 1.734375 -9.9375 L 1.734375 2.9375 L 0.59375 2.9375 C 0.4375 2.9375 0.3125 3.0625 0.3125 3.21875 C 0.3125 3.375 0.4375 3.5 0.59375 3.5 Z M 2.296875 3.5 "/>
</g>
<g id="glyph-1-4-4dfc0aa4">
<path d="M 10.109375 -3.5 C 10.109375 -3.65625 9.984375 -3.78125 9.828125 -3.78125 L 1.0625 -3.78125 C 0.90625 -3.78125 0.78125 -3.65625 0.78125 -3.5 C 0.78125 -3.34375 0.90625 -3.21875 1.0625 -3.21875 L 9.828125 -3.21875 C 9.984375 -3.21875 10.109375 -3.34375 10.109375 -3.5 Z M 10.109375 -3.5 "/>
</g>
<g id="glyph-1-5-4dfc0aa4">
<path d="M 6.28125 -2.8125 C 6.28125 -4.484375 5.140625 -5.875 3.625 -5.875 C 2.953125 -5.875 2.359375 -5.65625 1.84375 -5.171875 L 1.84375 -7.890625 C 2.125 -7.8125 2.59375 -7.71875 3.03125 -7.71875 C 4.765625 -7.71875 5.734375 -8.984375 5.734375 -9.171875 C 5.734375 -9.25 5.703125 -9.328125 5.59375 -9.328125 C 5.59375 -9.328125 5.5625 -9.328125 5.484375 -9.28125 C 5.203125 -9.15625 4.515625 -8.875 3.578125 -8.875 C 3.03125 -8.875 2.375 -8.96875 1.71875 -9.265625 C 1.609375 -9.3125 1.546875 -9.3125 1.546875 -9.3125 C 1.40625 -9.3125 1.40625 -9.203125 1.40625 -8.96875 L 1.40625 -4.828125 C 1.40625 -4.578125 1.40625 -4.46875 1.609375 -4.46875 C 1.703125 -4.46875 1.734375 -4.515625 1.796875 -4.59375 C 1.953125 -4.8125 2.46875 -5.578125 3.59375 -5.578125 C 4.328125 -5.578125 4.671875 -4.921875 4.78125 -4.671875 C 5.015625 -4.15625 5.046875 -3.609375 5.046875 -2.90625 C 5.046875 -2.421875 5.046875 -1.578125 4.703125 -1 C 4.375 -0.453125 3.84375 -0.078125 3.203125 -0.078125 C 2.1875 -0.078125 1.390625 -0.828125 1.140625 -1.65625 C 1.1875 -1.640625 1.234375 -1.625 1.390625 -1.625 C 1.84375 -1.625 2.09375 -1.96875 2.09375 -2.3125 C 2.09375 -2.640625 1.84375 -3 1.390625 -3 C 1.1875 -3 0.703125 -2.890625 0.703125 -2.25 C 0.703125 -1.046875 1.671875 0.3125 3.234375 0.3125 C 4.859375 0.3125 6.28125 -1.03125 6.28125 -2.8125 Z M 6.28125 -2.8125 "/>
</g>
<g id="glyph-1-6-4dfc0aa4">
<path d="M 6.4375 -4.484375 C 6.4375 -5.59375 6.375 -6.71875 5.875 -7.75 C 5.234375 -9.09375 4.09375 -9.328125 3.5 -9.328125 C 2.65625 -9.328125 1.640625 -8.953125 1.0625 -7.65625 C 0.609375 -6.6875 0.546875 -5.59375 0.546875 -4.484375 C 0.546875 -3.4375 0.609375 -2.171875 1.171875 -1.109375 C 1.78125 0.03125 2.796875 0.3125 3.484375 0.3125 C 4.234375 0.3125 5.3125 0.015625 5.921875 -1.3125 C 6.375 -2.28125 6.4375 -3.375 6.4375 -4.484375 Z M 5.28125 -4.640625 C 5.28125 -3.59375 5.28125 -2.640625 5.125 -1.75 C 4.90625 -0.421875 4.109375 0 3.484375 0 C 2.9375 0 2.109375 -0.34375 1.859375 -1.6875 C 1.703125 -2.53125 1.703125 -3.828125 1.703125 -4.640625 C 1.703125 -5.546875 1.703125 -6.46875 1.8125 -7.21875 C 2.09375 -8.890625 3.140625 -9.015625 3.484375 -9.015625 C 3.953125 -9.015625 4.875 -8.765625 5.140625 -7.375 C 5.28125 -6.59375 5.28125 -5.53125 5.28125 -4.640625 Z M 5.28125 -4.640625 "/>
</g>
<g id="glyph-1-7-4dfc0aa4">
<path d="M 5.859375 0 L 5.859375 -0.4375 L 5.421875 -0.4375 C 4.15625 -0.4375 4.109375 -0.59375 4.109375 -1.109375 L 4.109375 -8.953125 C 4.109375 -9.296875 4.109375 -9.328125 3.796875 -9.328125 C 2.921875 -8.421875 1.6875 -8.421875 1.25 -8.421875 L 1.25 -8 C 1.53125 -8 2.359375 -8 3.078125 -8.359375 L 3.078125 -1.109375 C 3.078125 -0.609375 3.03125 -0.4375 1.78125 -0.4375 L 1.328125 -0.4375 L 1.328125 0 C 1.8125 -0.046875 3.03125 -0.046875 3.59375 -0.046875 C 4.15625 -0.046875 5.375 -0.046875 5.859375 0 Z M 5.859375 0 "/>
</g>
<g id="glyph-1-8-4dfc0aa4">
<path d="M 3.859375 -2.625 L 3.859375 -3.4375 L 0.15625 -3.4375 L 0.15625 -2.625 Z M 3.859375 -2.625 "/>
</g>
<g id="glyph-1-9-4dfc0aa4">
<path d="M 6.390625 -4.609375 C 6.390625 -8.375 4.78125 -9.328125 3.546875 -9.328125 C 2.765625 -9.328125 2.09375 -9.078125 1.484375 -8.4375 C 0.90625 -7.8125 0.59375 -7.21875 0.59375 -6.171875 C 0.59375 -4.421875 1.8125 -3.046875 3.390625 -3.046875 C 4.234375 -3.046875 4.8125 -3.640625 5.140625 -4.453125 L 5.140625 -4 C 5.140625 -0.734375 3.6875 -0.078125 2.875 -0.078125 C 2.625 -0.078125 1.875 -0.109375 1.5 -0.59375 C 2.109375 -0.59375 2.21875 -1 2.21875 -1.234375 C 2.21875 -1.671875 1.890625 -1.875 1.578125 -1.875 C 1.359375 -1.875 0.9375 -1.75 0.9375 -1.203125 C 0.9375 -0.265625 1.6875 0.3125 2.890625 0.3125 C 4.6875 0.3125 6.390625 -1.59375 6.390625 -4.609375 Z M 5.109375 -5.890625 C 5.109375 -4.734375 4.640625 -3.375 3.40625 -3.375 C 3.171875 -3.375 2.53125 -3.375 2.09375 -4.25 C 1.84375 -4.78125 1.84375 -5.46875 1.84375 -6.15625 C 1.84375 -6.921875 1.84375 -7.578125 2.140625 -8.09375 C 2.515625 -8.796875 3.046875 -8.96875 3.546875 -8.96875 C 4.1875 -8.96875 4.640625 -8.5 4.890625 -7.875 C 5.046875 -7.421875 5.109375 -6.53125 5.109375 -5.890625 Z M 5.109375 -5.890625 "/>
</g>
<g id="glyph-1-10-4dfc0aa4">
<path d="M 2.6875 -0.734375 C 2.6875 -1.140625 2.359375 -1.484375 1.953125 -1.484375 C 1.546875 -1.484375 1.203125 -1.140625 1.203125 -0.734375 C 1.203125 -0.34375 1.546875 0 1.953125 0 C 2.359375 0 2.6875 -0.34375 2.6875 -0.734375 Z M 2.6875 -0.734375 "/>
</g>
<g id="glyph-1-11-4dfc0aa4">
<path d="M 6.390625 -2.359375 C 6.390625 -2.859375 6.25 -3.484375 5.71875 -4.078125 C 5.453125 -4.375 5.21875 -4.515625 4.328125 -5.0625 C 5.328125 -5.59375 6.015625 -6.3125 6.015625 -7.234375 C 6.015625 -8.53125 4.78125 -9.328125 3.5 -9.328125 C 2.09375 -9.328125 0.96875 -8.28125 0.96875 -6.984375 C 0.96875 -6.734375 1 -6.109375 1.578125 -5.453125 C 1.734375 -5.28125 2.25 -4.921875 2.609375 -4.6875 C 1.796875 -4.28125 0.59375 -3.5 0.59375 -2.109375 C 0.59375 -0.625 2.015625 0.3125 3.484375 0.3125 C 5.0625 0.3125 6.390625 -0.859375 6.390625 -2.359375 Z M 5.40625 -7.234375 C 5.40625 -6.4375 4.859375 -5.765625 4.015625 -5.28125 L 2.28125 -6.390625 C 1.640625 -6.8125 1.578125 -7.296875 1.578125 -7.53125 C 1.578125 -8.390625 2.484375 -8.96875 3.484375 -8.96875 C 4.515625 -8.96875 5.40625 -8.25 5.40625 -7.234375 Z M 5.703125 -1.84375 C 5.703125 -0.8125 4.640625 -0.078125 3.5 -0.078125 C 2.296875 -0.078125 1.28125 -0.953125 1.28125 -2.109375 C 1.28125 -2.921875 1.734375 -3.828125 2.921875 -4.484375 L 4.640625 -3.390625 C 5.046875 -3.125 5.703125 -2.703125 5.703125 -1.84375 Z M 5.703125 -1.84375 "/>
</g>
<g id="glyph-1-12-4dfc0aa4">
<path d="M 9.125 -3.609375 L 8.78125 -3.609375 C 8.421875 -1.453125 8.109375 -0.4375 5.703125 -0.4375 L 3.84375 -0.4375 C 3.171875 -0.4375 3.15625 -0.53125 3.15625 -1 L 3.15625 -4.734375 L 4.40625 -4.734375 C 5.765625 -4.734375 5.921875 -4.28125 5.921875 -3.09375 L 6.265625 -3.09375 L 6.265625 -6.796875 L 5.921875 -6.796875 C 5.921875 -5.59375 5.765625 -5.171875 4.40625 -5.171875 L 3.15625 -5.171875 L 3.15625 -8.53125 C 3.15625 -8.984375 3.171875 -9.09375 3.84375 -9.09375 L 5.640625 -9.09375 C 7.78125 -9.09375 8.15625 -8.3125 8.390625 -6.375 L 8.734375 -6.375 L 8.34375 -9.515625 L 0.46875 -9.515625 L 0.46875 -9.09375 L 0.796875 -9.09375 C 1.875 -9.09375 1.90625 -8.9375 1.90625 -8.421875 L 1.90625 -1.09375 C 1.90625 -0.59375 1.875 -0.4375 0.796875 -0.4375 L 0.46875 -0.4375 L 0.46875 0 L 8.546875 0 Z M 9.125 -3.609375 "/>
</g>
<g id="glyph-1-13-4dfc0aa4">
<path d="M 10.109375 -3.5 C 10.109375 -3.65625 9.984375 -3.78125 9.828125 -3.78125 L 5.71875 -3.78125 L 5.71875 -7.875 C 5.71875 -8.03125 5.59375 -8.15625 5.453125 -8.15625 C 5.296875 -8.15625 5.171875 -8.03125 5.171875 -7.875 L 5.171875 -3.78125 L 1.0625 -3.78125 C 0.90625 -3.78125 0.78125 -3.65625 0.78125 -3.5 C 0.78125 -3.34375 0.90625 -3.21875 1.0625 -3.21875 L 5.171875 -3.21875 L 5.171875 0.875 C 5.171875 1.03125 5.296875 1.15625 5.453125 1.15625 C 5.59375 1.15625 5.71875 1.03125 5.71875 0.875 L 5.71875 -3.21875 L 9.828125 -3.21875 C 9.984375 -3.21875 10.109375 -3.34375 10.109375 -3.5 Z M 10.109375 -3.5 "/>
</g>
<g id="glyph-1-14-4dfc0aa4">
<path d="M 6.796875 -9.015625 L 3.390625 -9.015625 C 1.6875 -9.015625 1.65625 -9.203125 1.59375 -9.46875 L 1.25 -9.46875 L 0.78125 -6.578125 L 1.140625 -6.578125 C 1.171875 -6.796875 1.296875 -7.6875 1.484375 -7.859375 C 1.578125 -7.9375 2.671875 -7.9375 2.859375 -7.9375 L 5.75 -7.9375 L 4.1875 -5.71875 C 2.921875 -3.84375 2.46875 -1.890625 2.46875 -0.46875 C 2.46875 -0.328125 2.46875 0.3125 3.109375 0.3125 C 3.75 0.3125 3.75 -0.328125 3.75 -0.46875 L 3.75 -1.171875 C 3.75 -1.953125 3.796875 -2.71875 3.90625 -3.46875 C 3.96875 -3.796875 4.15625 -5 4.78125 -5.859375 L 6.65625 -8.53125 C 6.796875 -8.6875 6.796875 -8.71875 6.796875 -9.015625 Z M 6.796875 -9.015625 "/>
</g>
<g id="glyph-1-15-4dfc0aa4">
<path d="M 6.390625 -2.859375 C 6.390625 -4.640625 5.15625 -5.984375 3.59375 -5.984375 C 2.640625 -5.984375 2.125 -5.265625 1.84375 -4.59375 L 1.84375 -4.921875 C 1.84375 -8.46875 3.578125 -8.96875 4.296875 -8.96875 C 4.640625 -8.96875 5.21875 -8.890625 5.53125 -8.40625 C 5.3125 -8.40625 4.765625 -8.40625 4.765625 -7.78125 C 4.765625 -7.34375 5.09375 -7.140625 5.40625 -7.140625 C 5.625 -7.140625 6.046875 -7.265625 6.046875 -7.8125 C 6.046875 -8.65625 5.4375 -9.328125 4.265625 -9.328125 C 2.484375 -9.328125 0.59375 -7.515625 0.59375 -4.421875 C 0.59375 -0.6875 2.21875 0.3125 3.515625 0.3125 C 5.0625 0.3125 6.390625 -1.015625 6.390625 -2.859375 Z M 5.140625 -2.875 C 5.140625 -2.203125 5.140625 -1.5 4.90625 -1 C 4.484375 -0.15625 3.84375 -0.078125 3.515625 -0.078125 C 2.625 -0.078125 2.21875 -0.921875 2.125 -1.140625 C 1.875 -1.796875 1.875 -2.90625 1.875 -3.15625 C 1.875 -4.25 2.328125 -5.65625 3.578125 -5.65625 C 3.8125 -5.65625 4.453125 -5.65625 4.890625 -4.78125 C 5.140625 -4.265625 5.140625 -3.5625 5.140625 -2.875 Z M 5.140625 -2.875 "/>
</g>
<g id="glyph-1-16-4dfc0aa4">
<path d="M 6.390625 -2.390625 C 6.390625 -3.546875 5.515625 -4.640625 4.0625 -4.921875 C 5.203125 -5.3125 6.015625 -6.28125 6.015625 -7.390625 C 6.015625 -8.546875 4.78125 -9.328125 3.4375 -9.328125 C 2.03125 -9.328125 0.96875 -8.484375 0.96875 -7.421875 C 0.96875 -6.953125 1.28125 -6.6875 1.6875 -6.6875 C 2.109375 -6.6875 2.390625 -7 2.390625 -7.40625 C 2.390625 -8.109375 1.734375 -8.109375 1.53125 -8.109375 C 1.953125 -8.796875 2.890625 -8.96875 3.390625 -8.96875 C 3.96875 -8.96875 4.734375 -8.671875 4.734375 -7.40625 C 4.734375 -7.234375 4.703125 -6.421875 4.34375 -5.8125 C 3.921875 -5.140625 3.4375 -5.09375 3.09375 -5.078125 C 2.984375 -5.0625 2.640625 -5.046875 2.546875 -5.046875 C 2.4375 -5.03125 2.34375 -5.015625 2.34375 -4.875 C 2.34375 -4.71875 2.4375 -4.71875 2.671875 -4.71875 L 3.296875 -4.71875 C 4.4375 -4.71875 4.953125 -3.765625 4.953125 -2.390625 C 4.953125 -0.484375 3.984375 -0.078125 3.375 -0.078125 C 2.765625 -0.078125 1.71875 -0.328125 1.234375 -1.140625 C 1.71875 -1.078125 2.15625 -1.390625 2.15625 -1.921875 C 2.15625 -2.421875 1.78125 -2.703125 1.375 -2.703125 C 1.03125 -2.703125 0.59375 -2.5 0.59375 -1.890625 C 0.59375 -0.609375 1.890625 0.3125 3.421875 0.3125 C 5.125 0.3125 6.390625 -0.96875 6.390625 -2.390625 Z M 6.390625 -2.390625 "/>
</g>
<g id="glyph-1-17-4dfc0aa4">
<path d="M 6.59375 -2.3125 L 6.59375 -2.75 L 5.1875 -2.75 L 5.1875 -9.109375 C 5.1875 -9.390625 5.1875 -9.484375 4.96875 -9.484375 C 4.84375 -9.484375 4.796875 -9.484375 4.6875 -9.3125 L 0.390625 -2.75 L 0.390625 -2.3125 L 4.109375 -2.3125 L 4.109375 -1.09375 C 4.109375 -0.59375 4.09375 -0.4375 3.046875 -0.4375 L 2.765625 -0.4375 L 2.765625 0 C 3.328125 -0.046875 4.0625 -0.046875 4.640625 -0.046875 C 5.234375 -0.046875 5.984375 -0.046875 6.546875 0 L 6.546875 -0.4375 L 6.265625 -0.4375 C 5.21875 -0.4375 5.1875 -0.59375 5.1875 -1.09375 L 5.1875 -2.3125 Z M 4.203125 -2.75 L 0.78125 -2.75 L 4.203125 -7.96875 Z M 4.203125 -2.75 "/>
</g>
<g id="glyph-1-18-4dfc0aa4">
<path d="M 6.28125 -2.4375 L 5.9375 -2.4375 C 5.859375 -2.015625 5.765625 -1.40625 5.625 -1.1875 C 5.53125 -1.078125 4.609375 -1.078125 4.296875 -1.078125 L 1.78125 -1.078125 L 3.265625 -2.515625 C 5.453125 -4.453125 6.28125 -5.203125 6.28125 -6.609375 C 6.28125 -8.203125 5.03125 -9.328125 3.3125 -9.328125 C 1.734375 -9.328125 0.703125 -8.03125 0.703125 -6.796875 C 0.703125 -6 1.40625 -6 1.4375 -6 C 1.6875 -6 2.171875 -6.171875 2.171875 -6.75 C 2.171875 -7.109375 1.921875 -7.46875 1.421875 -7.46875 C 1.3125 -7.46875 1.28125 -7.46875 1.25 -7.46875 C 1.5625 -8.375 2.328125 -8.890625 3.140625 -8.890625 C 4.40625 -8.890625 5.015625 -7.75 5.015625 -6.609375 C 5.015625 -5.484375 4.3125 -4.375 3.546875 -3.515625 L 0.859375 -0.515625 C 0.703125 -0.359375 0.703125 -0.34375 0.703125 0 L 5.890625 0 Z M 6.28125 -2.4375 "/>
</g>
<g id="glyph-2-0-4dfc0aa4">
<path d="M -2 -6.0625 C -2.140625 -6.0625 -2.140625 -5.890625 -2.140625 -5.859375 C -2.140625 -5.6875 -2.09375 -5.671875 -1.921875 -5.609375 C -1.21875 -5.359375 -0.734375 -4.6875 -0.734375 -4.09375 C -0.734375 -3.8125 -0.84375 -3.578125 -0.96875 -3.296875 C -1.140625 -2.890625 -1.203125 -2.71875 -1.203125 -2.4375 C -1.203125 -2.359375 -1.203125 -2.25 -1.1875 -2.1875 C -1.296875 -2.28125 -1.65625 -2.578125 -2.046875 -2.96875 L -4.046875 -5 C -4.859375 -5.828125 -5.921875 -6.5 -6.046875 -6.5 C -6.1875 -6.5 -6.1875 -6.390625 -6.1875 -6.296875 C -6.1875 -6.125 -6.171875 -6.125 -6 -6.03125 C -5.203125 -5.578125 -5.140625 -5.390625 -5.140625 -5.171875 C -5.140625 -4.90625 -5.28125 -4.78125 -5.640625 -4.515625 C -5.859375 -4.34375 -6.1875 -4.109375 -6.1875 -3.65625 C -6.1875 -2.625 -4.875 -2.015625 -4.59375 -2.015625 C -4.46875 -2.015625 -4.4375 -2.109375 -4.4375 -2.21875 C -4.4375 -2.390625 -4.46875 -2.40625 -4.640625 -2.484375 C -4.9375 -2.59375 -5.296875 -3 -5.296875 -3.515625 C -5.296875 -3.796875 -5.1875 -4.046875 -5.046875 -4.359375 C -4.828125 -4.8125 -4.828125 -4.96875 -4.828125 -5.1875 C -4.59375 -4.96875 -4.4375 -4.84375 -4.21875 -4.625 L -1.9375 -2.328125 C -1.15625 -1.546875 -0.125 -0.875 0.015625 -0.875 C 0.15625 -0.875 0.15625 -1 0.15625 -1.078125 C 0.15625 -1.234375 0.125 -1.25 0.03125 -1.296875 C -0.265625 -1.5 -0.890625 -1.875 -0.890625 -2.40625 C -0.890625 -2.71875 -0.734375 -2.828125 -0.390625 -3.078125 C -0.109375 -3.296875 0.15625 -3.515625 0.15625 -3.953125 C 0.15625 -5.3125 -1.671875 -6.0625 -2 -6.0625 Z M -2 -6.0625 "/>
</g>
<g id="glyph-3-0-4dfc0aa4">
<path d="M 3.21875 -3.578125 C 3.0625 -3.578125 2.9375 -3.453125 2.9375 -3.296875 L 2.9375 -2.15625 L -9.9375 -2.15625 L -9.9375 -3.296875 C -9.9375 -3.453125 -10.0625 -3.578125 -10.21875 -3.578125 C -10.375 -3.578125 -10.5 -3.453125 -10.5 -3.296875 L -10.5 -1.59375 L 3.5 -1.59375 L 3.5 -3.296875 C 3.5 -3.453125 3.375 -3.578125 3.21875 -3.578125 Z M 3.21875 -3.578125 "/>
</g>
<g id="glyph-4-0-4dfc0aa4">
<path d="M 0 -7.15625 L -0.4375 -7.15625 C -0.4375 -6.640625 -0.4375 -6.328125 -1.171875 -5.796875 L -3.6875 -4.015625 C -3.703125 -4 -3.796875 -3.9375 -3.84375 -3.9375 C -3.890625 -3.9375 -4.734375 -4.921875 -4.84375 -5.0625 C -5.5625 -5.953125 -5.59375 -6.53125 -5.59375 -6.828125 L -6.03125 -6.828125 C -5.984375 -6.421875 -5.984375 -6.25 -5.984375 -5.859375 C -5.984375 -5.34375 -6.015625 -4.484375 -6.03125 -4.28125 L -5.59375 -4.28125 C -5.59375 -4.546875 -5.4375 -4.6875 -5.25 -4.6875 C -4.96875 -4.6875 -4.796875 -4.5 -4.703125 -4.375 L -3 -2.40625 L -9.71875 -2.40625 L -9.5625 -0.390625 L -9.125 -0.390625 C -9.125 -1.375 -9.03125 -1.484375 -8.34375 -1.484375 L -1.0625 -1.484375 C -0.4375 -1.484375 -0.4375 -1.328125 -0.4375 -0.390625 L 0 -0.390625 L -0.046875 -1.921875 L 0 -3.453125 L -0.4375 -3.453125 C -0.4375 -2.515625 -0.4375 -2.359375 -1.0625 -2.359375 L -2.5 -2.359375 L -3.28125 -3.265625 C -1.796875 -4.34375 -1.015625 -4.921875 -0.75 -4.921875 C -0.484375 -4.921875 -0.4375 -4.6875 -0.4375 -4.421875 L 0 -4.421875 L -0.046875 -5.9375 C -0.046875 -6.34375 -0.03125 -6.75 0 -7.15625 Z M 0 -7.15625 "/>
</g>
<g id="glyph-5-0-4dfc0aa4">
<path d="M 0 -11.375 L -0.4375 -11.375 C -0.4375 -10.65625 -0.4375 -10.296875 -0.859375 -10.296875 L -3.53125 -10.296875 C -4.734375 -10.296875 -5.171875 -10.296875 -5.671875 -9.859375 C -5.90625 -9.65625 -6.1875 -9.203125 -6.1875 -8.390625 C -6.1875 -7.203125 -5.34375 -6.59375 -4.8125 -6.359375 C -6.03125 -6.15625 -6.1875 -5.125 -6.1875 -4.5 C -6.1875 -3.46875 -5.59375 -2.8125 -4.71875 -2.421875 L -6.1875 -2.421875 L -6.03125 -0.453125 L -5.59375 -0.453125 C -5.59375 -1.421875 -5.5 -1.546875 -4.8125 -1.546875 L -1.0625 -1.546875 C -0.4375 -1.546875 -0.4375 -1.390625 -0.4375 -0.453125 L 0 -0.453125 L -0.046875 -2.03125 L 0 -3.59375 L -0.4375 -3.59375 C -0.4375 -2.65625 -0.4375 -2.5 -1.0625 -2.5 L -3.640625 -2.5 C -5.09375 -2.5 -5.875 -3.5 -5.875 -4.390625 C -5.875 -5.28125 -5.125 -5.4375 -4.328125 -5.4375 L -1.0625 -5.4375 C -0.4375 -5.4375 -0.4375 -5.28125 -0.4375 -4.34375 L 0 -4.34375 L -0.046875 -5.921875 L 0 -7.484375 L -0.4375 -7.484375 C -0.4375 -6.546875 -0.4375 -6.390625 -1.0625 -6.390625 L -3.640625 -6.390625 C -5.09375 -6.390625 -5.875 -7.390625 -5.875 -8.28125 C -5.875 -9.171875 -5.125 -9.328125 -4.328125 -9.328125 L -1.0625 -9.328125 C -0.4375 -9.328125 -0.4375 -9.171875 -0.4375 -8.234375 L 0 -8.234375 L -0.046875 -9.8125 Z M 0 -11.375 "/>
</g>
<g id="glyph-6-0-4dfc0aa4">
<path d="M 3.5 -2.296875 L -10.5 -2.296875 L -10.5 -0.59375 C -10.5 -0.4375 -10.375 -0.3125 -10.21875 -0.3125 C -10.0625 -0.3125 -9.9375 -0.4375 -9.9375 -0.59375 L -9.9375 -1.734375 L 2.9375 -1.734375 L 2.9375 -0.59375 C 2.9375 -0.4375 3.0625 -0.3125 3.21875 -0.3125 C 3.375 -0.3125 3.5 -0.4375 3.5 -0.59375 Z M 3.5 -2.296875 "/>
</g>
<g id="glyph-7-0-4dfc0aa4">
<path d="M 4.984375 -2 C 4.984375 -2.140625 4.875 -2.140625 4.78125 -2.140625 C 4.609375 -2.140625 4.609375 -2.125 4.5 -1.875 C 4.234375 -1.203125 3.6875 -0.15625 2.890625 -0.15625 C 2.5 -0.15625 2.5 -0.5 2.5 -0.734375 C 2.5 -0.828125 2.5 -1.046875 2.609375 -1.4375 L 3.640625 -5.59375 L 4.828125 -5.59375 C 5.0625 -5.59375 5.21875 -5.59375 5.21875 -5.859375 C 5.21875 -6.03125 5.09375 -6.03125 4.875 -6.03125 L 3.75 -6.03125 L 4.265625 -8.109375 C 4.328125 -8.296875 4.328125 -8.328125 4.328125 -8.40625 C 4.328125 -8.6875 4.09375 -8.765625 3.953125 -8.765625 C 3.59375 -8.765625 3.453125 -8.46875 3.40625 -8.265625 L 2.859375 -6.03125 L 1.671875 -6.03125 C 1.421875 -6.03125 1.28125 -6.03125 1.28125 -5.765625 C 1.28125 -5.59375 1.40625 -5.59375 1.625 -5.59375 L 2.75 -5.59375 L 1.734375 -1.578125 C 1.71875 -1.53125 1.671875 -1.296875 1.671875 -1.109375 C 1.671875 -0.40625 2.125 0.15625 2.859375 0.15625 C 4.265625 0.15625 4.984375 -1.9375 4.984375 -2 Z M 4.984375 -2 "/>
</g>
<g id="glyph-7-1-4dfc0aa4">
<path d="M 5.8125 0.046875 L 7.1875 -5.46875 C 7.203125 -5.5625 7.21875 -5.625 7.21875 -5.671875 C 7.21875 -5.828125 7.109375 -6.03125 6.828125 -6.03125 C 6.40625 -6.03125 6.3125 -5.625 6.28125 -5.515625 L 5.265625 -1.40625 C 5.171875 -1 4.609375 -0.15625 3.78125 -0.15625 C 3.15625 -0.15625 3.03125 -0.765625 3.03125 -1.234375 C 3.03125 -2.09375 3.484375 -3.34375 3.84375 -4.296875 C 3.953125 -4.59375 4.015625 -4.78125 4.015625 -5.046875 C 4.015625 -5.75 3.5625 -6.1875 2.953125 -6.1875 C 1.65625 -6.1875 1.15625 -4.109375 1.15625 -4.03125 C 1.15625 -3.890625 1.296875 -3.890625 1.375 -3.890625 C 1.546875 -3.890625 1.5625 -3.921875 1.625 -4.109375 C 1.734375 -4.546875 2.109375 -5.875 2.921875 -5.875 C 3.078125 -5.875 3.234375 -5.84375 3.234375 -5.46875 C 3.234375 -5.140625 3.09375 -4.765625 2.890625 -4.21875 C 2.53125 -3.234375 2.171875 -2.203125 2.171875 -1.46875 C 2.171875 -0.25 2.984375 0.15625 3.734375 0.15625 C 4.375 0.15625 4.8125 -0.1875 5 -0.359375 C 4.46875 1.953125 3.4375 2.5625 2.734375 2.5625 C 2.0625 2.5625 1.859375 2.03125 1.859375 1.953125 C 1.859375 1.953125 1.875 1.9375 1.96875 1.921875 C 2.40625 1.84375 2.578125 1.46875 2.578125 1.25 C 2.578125 0.953125 2.359375 0.796875 2.09375 0.796875 C 1.9375 0.796875 1.390625 0.875 1.390625 1.671875 C 1.390625 2.390625 1.953125 2.875 2.734375 2.875 C 4.1875 2.875 5.453125 1.421875 5.8125 0.046875 Z M 5.8125 0.046875 "/>
</g>
<g id="glyph-8-0-4dfc0aa4">
<path d="M 10.03125 -6.125 C 10.03125 -6.234375 9.96875 -6.296875 9.875 -6.296875 C 9.78125 -6.296875 9.734375 -6.25 9.703125 -6.171875 C 9.484375 -5.125 8.859375 -4.671875 7.921875 -4.4375 C 7.796875 -4.40625 7.6875 -4.390625 7.578125 -4.390625 C 6.875 -4.390625 6.234375 -4.890625 5.625 -5.328125 C 4.90625 -5.875 4.09375 -6.390625 3.21875 -6.390625 C 3.0625 -6.390625 2.890625 -6.390625 2.734375 -6.34375 C 1.5625 -6.0625 1.0625 -5.28125 0.78125 -3.96875 L 0.78125 -3.953125 C 0.78125 -3.84375 0.859375 -3.78125 0.953125 -3.78125 C 1.03125 -3.78125 1.109375 -3.84375 1.125 -3.90625 C 1.34375 -4.953125 1.953125 -5.40625 2.890625 -5.640625 C 3.03125 -5.671875 3.140625 -5.6875 3.265625 -5.6875 C 3.953125 -5.6875 4.59375 -5.1875 5.1875 -4.75 C 5.921875 -4.203125 6.734375 -3.6875 7.609375 -3.6875 C 7.765625 -3.6875 7.9375 -3.703125 8.09375 -3.734375 C 9.25 -4.015625 9.765625 -4.796875 10.03125 -6.109375 Z M 10.03125 -3.046875 C 10.03125 -3.15625 9.96875 -3.21875 9.875 -3.21875 C 9.78125 -3.21875 9.734375 -3.15625 9.703125 -3.09375 C 9.484375 -2.046875 8.859375 -1.59375 7.921875 -1.359375 C 7.796875 -1.328125 7.6875 -1.3125 7.578125 -1.3125 C 6.875 -1.3125 6.234375 -1.8125 5.625 -2.25 C 4.90625 -2.796875 4.09375 -3.3125 3.21875 -3.3125 C 3.0625 -3.3125 2.890625 -3.296875 2.734375 -3.265625 C 1.5625 -2.984375 1.0625 -2.203125 0.78125 -0.890625 L 0.78125 -0.875 C 0.78125 -0.765625 0.859375 -0.703125 0.953125 -0.703125 C 1.03125 -0.703125 1.109375 -0.75 1.125 -0.828125 C 1.34375 -1.875 1.953125 -2.328125 2.890625 -2.5625 C 3.03125 -2.59375 3.140625 -2.609375 3.265625 -2.609375 C 3.953125 -2.609375 4.59375 -2.109375 5.1875 -1.671875 C 5.921875 -1.125 6.734375 -0.609375 7.609375 -0.609375 C 7.765625 -0.609375 7.9375 -0.609375 8.09375 -0.65625 C 9.25 -0.9375 9.765625 -1.71875 10.03125 -3.03125 Z M 10.03125 -3.046875 "/>
</g>
<g id="glyph-8-1-4dfc0aa4">
<path d="M 5.859375 0 L 5.859375 -0.4375 L 5.421875 -0.4375 C 4.15625 -0.4375 4.109375 -0.59375 4.109375 -1.109375 L 4.109375 -8.953125 C 4.109375 -9.296875 4.109375 -9.328125 3.796875 -9.328125 C 2.921875 -8.421875 1.6875 -8.421875 1.25 -8.421875 L 1.25 -8 C 1.53125 -8 2.359375 -8 3.078125 -8.359375 L 3.078125 -1.109375 C 3.078125 -0.609375 3.03125 -0.4375 1.78125 -0.4375 L 1.328125 -0.4375 L 1.328125 0 C 1.8125 -0.046875 3.03125 -0.046875 3.59375 -0.046875 C 4.15625 -0.046875 5.375 -0.046875 5.859375 0 Z M 5.859375 0 "/>
</g>
<g id="glyph-8-2-4dfc0aa4">
<path d="M 6.4375 -4.484375 C 6.4375 -5.59375 6.375 -6.71875 5.875 -7.75 C 5.234375 -9.09375 4.09375 -9.328125 3.5 -9.328125 C 2.65625 -9.328125 1.640625 -8.953125 1.0625 -7.65625 C 0.609375 -6.6875 0.546875 -5.59375 0.546875 -4.484375 C 0.546875 -3.4375 0.609375 -2.171875 1.171875 -1.109375 C 1.78125 0.03125 2.796875 0.3125 3.484375 0.3125 C 4.234375 0.3125 5.3125 0.015625 5.921875 -1.3125 C 6.375 -2.28125 6.4375 -3.375 6.4375 -4.484375 Z M 5.28125 -4.640625 C 5.28125 -3.59375 5.28125 -2.640625 5.125 -1.75 C 4.90625 -0.421875 4.109375 0 3.484375 0 C 2.9375 0 2.109375 -0.34375 1.859375 -1.6875 C 1.703125 -2.53125 1.703125 -3.828125 1.703125 -4.640625 C 1.703125 -5.546875 1.703125 -6.46875 1.8125 -7.21875 C 2.09375 -8.890625 3.140625 -9.015625 3.484375 -9.015625 C 3.953125 -9.015625 4.875 -8.765625 5.140625 -7.375 C 5.28125 -6.59375 5.28125 -5.53125 5.28125 -4.640625 Z M 5.28125 -4.640625 "/>
</g>
<g id="glyph-8-3-4dfc0aa4">
<path d="M 7.484375 0 L 7.484375 -0.4375 C 6.765625 -0.4375 6.40625 -0.4375 6.390625 -0.859375 L 6.390625 -3.53125 C 6.390625 -4.734375 6.390625 -5.171875 5.96875 -5.671875 C 5.765625 -5.90625 5.3125 -6.1875 4.5 -6.1875 C 3.3125 -6.1875 2.703125 -5.34375 2.484375 -4.84375 L 2.46875 -4.84375 L 2.46875 -9.71875 L 0.453125 -9.5625 L 0.453125 -9.125 C 1.421875 -9.125 1.546875 -9.03125 1.546875 -8.34375 L 1.546875 -1.0625 C 1.546875 -0.4375 1.390625 -0.4375 0.453125 -0.4375 L 0.453125 0 L 2.03125 -0.046875 L 3.59375 0 L 3.59375 -0.4375 C 2.65625 -0.4375 2.5 -0.4375 2.5 -1.0625 L 2.5 -3.640625 C 2.5 -5.09375 3.5 -5.875 4.390625 -5.875 C 5.28125 -5.875 5.4375 -5.125 5.4375 -4.328125 L 5.4375 -1.0625 C 5.4375 -0.4375 5.28125 -0.4375 4.34375 -0.4375 L 4.34375 0 L 5.921875 -0.046875 Z M 7.484375 0 "/>
</g>
<g id="glyph-8-4-4dfc0aa4">
<path d="M 2.84375 -0.015625 C 2.84375 -0.9375 2.484375 -1.484375 1.953125 -1.484375 C 1.484375 -1.484375 1.203125 -1.140625 1.203125 -0.734375 C 1.203125 -0.359375 1.484375 0 1.953125 0 C 2.109375 0 2.296875 -0.0625 2.4375 -0.1875 C 2.484375 -0.203125 2.5 -0.21875 2.5 -0.21875 C 2.5 -0.21875 2.53125 -0.203125 2.53125 -0.015625 C 2.53125 1.015625 2.046875 1.859375 1.578125 2.328125 C 1.421875 2.484375 1.421875 2.5 1.421875 2.546875 C 1.421875 2.640625 1.5 2.703125 1.5625 2.703125 C 1.71875 2.703125 2.84375 1.625 2.84375 -0.015625 Z M 2.84375 -0.015625 "/>
</g>
<g id="glyph-8-5-4dfc0aa4">
<path d="M 2.6875 -0.734375 C 2.6875 -1.140625 2.359375 -1.484375 1.953125 -1.484375 C 1.546875 -1.484375 1.203125 -1.140625 1.203125 -0.734375 C 1.203125 -0.34375 1.546875 0 1.953125 0 C 2.359375 0 2.6875 -0.34375 2.6875 -0.734375 Z M 2.6875 -0.734375 "/>
</g>
<g id="glyph-8-6-4dfc0aa4">
<path d="M 7.15625 0 L 7.15625 -0.4375 C 6.640625 -0.4375 6.328125 -0.4375 5.796875 -1.171875 L 4.015625 -3.6875 C 4 -3.703125 3.9375 -3.796875 3.9375 -3.84375 C 3.9375 -3.890625 4.921875 -4.734375 5.0625 -4.84375 C 5.953125 -5.5625 6.53125 -5.59375 6.828125 -5.59375 L 6.828125 -6.03125 C 6.421875 -5.984375 6.25 -5.984375 5.859375 -5.984375 C 5.34375 -5.984375 4.484375 -6.015625 4.28125 -6.03125 L 4.28125 -5.59375 C 4.546875 -5.59375 4.6875 -5.4375 4.6875 -5.25 C 4.6875 -4.96875 4.5 -4.796875 4.375 -4.703125 L 2.40625 -3 L 2.40625 -9.71875 L 0.390625 -9.5625 L 0.390625 -9.125 C 1.375 -9.125 1.484375 -9.03125 1.484375 -8.34375 L 1.484375 -1.0625 C 1.484375 -0.4375 1.328125 -0.4375 0.390625 -0.4375 L 0.390625 0 L 1.921875 -0.046875 L 3.453125 0 L 3.453125 -0.4375 C 2.515625 -0.4375 2.359375 -0.4375 2.359375 -1.0625 L 2.359375 -2.5 L 3.265625 -3.28125 C 4.34375 -1.796875 4.921875 -1.015625 4.921875 -0.75 C 4.921875 -0.484375 4.6875 -0.4375 4.421875 -0.4375 L 4.421875 0 L 5.9375 -0.046875 C 6.34375 -0.046875 6.75 -0.03125 7.15625 0 Z M 7.15625 0 "/>
</g>
<g id="glyph-8-7-4dfc0aa4">
<path d="M 11.375 0 L 11.375 -0.4375 C 10.65625 -0.4375 10.296875 -0.4375 10.296875 -0.859375 L 10.296875 -3.53125 C 10.296875 -4.734375 10.296875 -5.171875 9.859375 -5.671875 C 9.65625 -5.90625 9.203125 -6.1875 8.390625 -6.1875 C 7.203125 -6.1875 6.59375 -5.34375 6.359375 -4.8125 C 6.15625 -6.03125 5.125 -6.1875 4.5 -6.1875 C 3.46875 -6.1875 2.8125 -5.59375 2.421875 -4.71875 L 2.421875 -6.1875 L 0.453125 -6.03125 L 0.453125 -5.59375 C 1.421875 -5.59375 1.546875 -5.5 1.546875 -4.8125 L 1.546875 -1.0625 C 1.546875 -0.4375 1.390625 -0.4375 0.453125 -0.4375 L 0.453125 0 L 2.03125 -0.046875 L 3.59375 0 L 3.59375 -0.4375 C 2.65625 -0.4375 2.5 -0.4375 2.5 -1.0625 L 2.5 -3.640625 C 2.5 -5.09375 3.5 -5.875 4.390625 -5.875 C 5.28125 -5.875 5.4375 -5.125 5.4375 -4.328125 L 5.4375 -1.0625 C 5.4375 -0.4375 5.28125 -0.4375 4.34375 -0.4375 L 4.34375 0 L 5.921875 -0.046875 L 7.484375 0 L 7.484375 -0.4375 C 6.546875 -0.4375 6.390625 -0.4375 6.390625 -1.0625 L 6.390625 -3.640625 C 6.390625 -5.09375 7.390625 -5.875 8.28125 -5.875 C 9.171875 -5.875 9.328125 -5.125 9.328125 -4.328125 L 9.328125 -1.0625 C 9.328125 -0.4375 9.171875 -0.4375 8.234375 -0.4375 L 8.234375 0 L 9.8125 -0.046875 Z M 11.375 0 "/>
</g>
<g id="glyph-9-0-4dfc0aa4">
<path d="M 2.6875 -0.734375 C 2.6875 -1.140625 2.359375 -1.484375 1.953125 -1.484375 C 1.546875 -1.484375 1.203125 -1.140625 1.203125 -0.734375 C 1.203125 -0.34375 1.546875 0 1.953125 0 C 2.359375 0 2.6875 -0.34375 2.6875 -0.734375 Z M 2.6875 -0.734375 "/>
</g>
<g id="glyph-10-0-4dfc0aa4">
<path d="M -7 -6.375 C -7.921875 -6.375 -9.875 -6.125 -9.875 -4.6875 C -9.875 -2.75 -5.921875 -0.59375 -2.71875 -0.59375 C -1.40625 -0.59375 0.15625 -1 0.15625 -2.265625 C 0.15625 -4.234375 -3.859375 -6.375 -7 -6.375 Z M -7.875 -5.453125 C -7.1875 -5.453125 -6.46875 -5.328125 -5.078125 -5 L -5.078125 -2.078125 C -5.984375 -2.3125 -7.09375 -2.59375 -8.09375 -3.15625 C -8.78125 -3.53125 -9.5625 -4.046875 -9.5625 -4.671875 C -9.5625 -5.359375 -8.671875 -5.453125 -7.875 -5.453125 Z M -4.640625 -4.875 C -3.984375 -4.71875 -2.796875 -4.421875 -1.796875 -3.890625 C -0.84375 -3.40625 -0.15625 -2.875 -0.15625 -2.265625 C -0.15625 -1.8125 -0.5625 -1.515625 -1.859375 -1.515625 C -2.453125 -1.515625 -3.265625 -1.59375 -4.640625 -1.953125 Z M -4.640625 -4.875 "/>
</g>
<g id="glyph-10-1-4dfc0aa4">
<path d="M 0 -10.296875 L -0.4375 -10.296875 C -0.4375 -9.546875 -0.484375 -9.25 -1.109375 -8.828125 L -5.859375 -5.59375 L -8.28125 -8.125 C -8.40625 -8.234375 -9.109375 -8.96875 -9.125 -10.109375 L -9.5625 -10.109375 C -9.515625 -9.75 -9.515625 -9.296875 -9.515625 -8.921875 C -9.515625 -8.40625 -9.515625 -7.609375 -9.5625 -7.140625 L -9.125 -7.140625 C -9.109375 -7.703125 -8.796875 -7.78125 -8.671875 -7.78125 C -8.4375 -7.78125 -8.296875 -7.640625 -8.203125 -7.53125 L -4.015625 -3.15625 L -8.46875 -3.15625 C -8.96875 -3.15625 -9.125 -3.171875 -9.125 -4.25 L -9.125 -4.59375 L -9.5625 -4.59375 C -9.515625 -4.109375 -9.515625 -3.0625 -9.515625 -2.53125 C -9.515625 -2 -9.515625 -0.953125 -9.5625 -0.46875 L -9.125 -0.46875 L -9.125 -0.796875 C -9.125 -1.875 -8.96875 -1.90625 -8.46875 -1.90625 L -1.09375 -1.90625 C -0.59375 -1.90625 -0.4375 -1.875 -0.4375 -0.796875 L -0.4375 -0.46875 L 0 -0.46875 C -0.046875 -0.953125 -0.046875 -1.984375 -0.046875 -2.515625 C -0.046875 -3.046875 -0.046875 -4.109375 0 -4.59375 L -0.4375 -4.59375 L -0.4375 -4.25 C -0.4375 -3.171875 -0.59375 -3.15625 -1.09375 -3.15625 L -3.546875 -3.15625 L -5.078125 -4.78125 L -1.328125 -7.3125 C -1.203125 -7.390625 -1.015625 -7.515625 -0.859375 -7.515625 C -0.4375 -7.515625 -0.4375 -6.96875 -0.4375 -6.6875 L 0 -6.6875 C -0.046875 -7.1875 -0.046875 -8.15625 -0.046875 -8.6875 Z M 0 -10.296875 "/>
</g>
<g id="glyph-11-0-4dfc0aa4">
<path d="M -9.421875 -4.953125 C -9.671875 -5.03125 -9.875 -4.875 -9.875 -4.625 C -9.875 -4.375 -9.671875 -4.109375 -9.421875 -4.0625 L -5.921875 -3.421875 L -5.921875 -3.84375 Z M -9.421875 -4.953125 "/>
</g>
<g id="glyph-12-0-4dfc0aa4">
<path d="M 3.21875 -3.578125 C 3.0625 -3.578125 2.9375 -3.453125 2.9375 -3.296875 L 2.9375 -2.15625 L -9.9375 -2.15625 L -9.9375 -3.296875 C -9.9375 -3.453125 -10.0625 -3.578125 -10.21875 -3.578125 C -10.375 -3.578125 -10.5 -3.453125 -10.5 -3.296875 L -10.5 -1.59375 L 3.5 -1.59375 L 3.5 -3.296875 C 3.5 -3.453125 3.375 -3.578125 3.21875 -3.578125 Z M 3.21875 -3.578125 "/>
</g>
<g id="glyph-13-0-4dfc0aa4">
<path d="M 3.5 -2.296875 L -10.5 -2.296875 L -10.5 -0.59375 C -10.5 -0.4375 -10.375 -0.3125 -10.21875 -0.3125 C -10.0625 -0.3125 -9.9375 -0.4375 -9.9375 -0.59375 L -9.9375 -1.734375 L 2.9375 -1.734375 L 2.9375 -0.59375 C 2.9375 -0.4375 3.0625 -0.3125 3.21875 -0.3125 C 3.375 -0.3125 3.5 -0.4375 3.5 -0.59375 Z M 3.5 -2.296875 "/>
</g>
<g id="glyph-14-0-4dfc0aa4">
<path d="M 6.390625 -2.859375 C 6.390625 -4.640625 5.15625 -5.984375 3.59375 -5.984375 C 2.640625 -5.984375 2.125 -5.265625 1.84375 -4.59375 L 1.84375 -4.921875 C 1.84375 -8.46875 3.578125 -8.96875 4.296875 -8.96875 C 4.640625 -8.96875 5.21875 -8.890625 5.53125 -8.40625 C 5.3125 -8.40625 4.765625 -8.40625 4.765625 -7.78125 C 4.765625 -7.34375 5.09375 -7.140625 5.40625 -7.140625 C 5.625 -7.140625 6.046875 -7.265625 6.046875 -7.8125 C 6.046875 -8.65625 5.4375 -9.328125 4.265625 -9.328125 C 2.484375 -9.328125 0.59375 -7.515625 0.59375 -4.421875 C 0.59375 -0.6875 2.21875 0.3125 3.515625 0.3125 C 5.0625 0.3125 6.390625 -1.015625 6.390625 -2.859375 Z M 5.140625 -2.875 C 5.140625 -2.203125 5.140625 -1.5 4.90625 -1 C 4.484375 -0.15625 3.84375 -0.078125 3.515625 -0.078125 C 2.625 -0.078125 2.21875 -0.921875 2.125 -1.140625 C 1.875 -1.796875 1.875 -2.90625 1.875 -3.15625 C 1.875 -4.25 2.328125 -5.65625 3.578125 -5.65625 C 3.8125 -5.65625 4.453125 -5.65625 4.890625 -4.78125 C 5.140625 -4.265625 5.140625 -3.5625 5.140625 -2.875 Z M 5.140625 -2.875 "/>
</g>
<g id="glyph-14-1-4dfc0aa4">
<path d="M 2.6875 -0.734375 C 2.6875 -1.140625 2.359375 -1.484375 1.953125 -1.484375 C 1.546875 -1.484375 1.203125 -1.140625 1.203125 -0.734375 C 1.203125 -0.34375 1.546875 0 1.953125 0 C 2.359375 0 2.6875 -0.34375 2.6875 -0.734375 Z M 2.6875 -0.734375 "/>
</g>
<g id="glyph-14-2-4dfc0aa4">
<path d="M 5.859375 0 L 5.859375 -0.4375 L 5.421875 -0.4375 C 4.15625 -0.4375 4.109375 -0.59375 4.109375 -1.109375 L 4.109375 -8.953125 C 4.109375 -9.296875 4.109375 -9.328125 3.796875 -9.328125 C 2.921875 -8.421875 1.6875 -8.421875 1.25 -8.421875 L 1.25 -8 C 1.53125 -8 2.359375 -8 3.078125 -8.359375 L 3.078125 -1.109375 C 3.078125 -0.609375 3.03125 -0.4375 1.78125 -0.4375 L 1.328125 -0.4375 L 1.328125 0 C 1.8125 -0.046875 3.03125 -0.046875 3.59375 -0.046875 C 4.15625 -0.046875 5.375 -0.046875 5.859375 0 Z M 5.859375 0 "/>
</g>
<g id="glyph-14-3-4dfc0aa4">
<path d="M 6.28125 -2.4375 L 5.9375 -2.4375 C 5.859375 -2.015625 5.765625 -1.40625 5.625 -1.1875 C 5.53125 -1.078125 4.609375 -1.078125 4.296875 -1.078125 L 1.78125 -1.078125 L 3.265625 -2.515625 C 5.453125 -4.453125 6.28125 -5.203125 6.28125 -6.609375 C 6.28125 -8.203125 5.03125 -9.328125 3.3125 -9.328125 C 1.734375 -9.328125 0.703125 -8.03125 0.703125 -6.796875 C 0.703125 -6 1.40625 -6 1.4375 -6 C 1.6875 -6 2.171875 -6.171875 2.171875 -6.75 C 2.171875 -7.109375 1.921875 -7.46875 1.421875 -7.46875 C 1.3125 -7.46875 1.28125 -7.46875 1.25 -7.46875 C 1.5625 -8.375 2.328125 -8.890625 3.140625 -8.890625 C 4.40625 -8.890625 5.015625 -7.75 5.015625 -6.609375 C 5.015625 -5.484375 4.3125 -4.375 3.546875 -3.515625 L 0.859375 -0.515625 C 0.703125 -0.359375 0.703125 -0.34375 0.703125 0 L 5.890625 0 Z M 6.28125 -2.4375 "/>
</g>
<g id="glyph-14-4-4dfc0aa4">
<path d="M 9.125 -3.609375 L 8.78125 -3.609375 C 8.421875 -1.453125 8.109375 -0.4375 5.703125 -0.4375 L 3.84375 -0.4375 C 3.171875 -0.4375 3.15625 -0.53125 3.15625 -1 L 3.15625 -4.734375 L 4.40625 -4.734375 C 5.765625 -4.734375 5.921875 -4.28125 5.921875 -3.09375 L 6.265625 -3.09375 L 6.265625 -6.796875 L 5.921875 -6.796875 C 5.921875 -5.59375 5.765625 -5.171875 4.40625 -5.171875 L 3.15625 -5.171875 L 3.15625 -8.53125 C 3.15625 -8.984375 3.171875 -9.09375 3.84375 -9.09375 L 5.640625 -9.09375 C 7.78125 -9.09375 8.15625 -8.3125 8.390625 -6.375 L 8.734375 -6.375 L 8.34375 -9.515625 L 0.46875 -9.515625 L 0.46875 -9.09375 L 0.796875 -9.09375 C 1.875 -9.09375 1.90625 -8.9375 1.90625 -8.421875 L 1.90625 -1.09375 C 1.90625 -0.59375 1.875 -0.4375 0.796875 -0.4375 L 0.46875 -0.4375 L 0.46875 0 L 8.546875 0 Z M 9.125 -3.609375 "/>
</g>
<g id="glyph-14-5-4dfc0aa4">
<path d="M 3.859375 -2.625 L 3.859375 -3.4375 L 0.15625 -3.4375 L 0.15625 -2.625 Z M 3.859375 -2.625 "/>
</g>
<g id="glyph-14-6-4dfc0aa4">
<path d="M 6.4375 -4.484375 C 6.4375 -5.59375 6.375 -6.71875 5.875 -7.75 C 5.234375 -9.09375 4.09375 -9.328125 3.5 -9.328125 C 2.65625 -9.328125 1.640625 -8.953125 1.0625 -7.65625 C 0.609375 -6.6875 0.546875 -5.59375 0.546875 -4.484375 C 0.546875 -3.4375 0.609375 -2.171875 1.171875 -1.109375 C 1.78125 0.03125 2.796875 0.3125 3.484375 0.3125 C 4.234375 0.3125 5.3125 0.015625 5.921875 -1.3125 C 6.375 -2.28125 6.4375 -3.375 6.4375 -4.484375 Z M 5.28125 -4.640625 C 5.28125 -3.59375 5.28125 -2.640625 5.125 -1.75 C 4.90625 -0.421875 4.109375 0 3.484375 0 C 2.9375 0 2.109375 -0.34375 1.859375 -1.6875 C 1.703125 -2.53125 1.703125 -3.828125 1.703125 -4.640625 C 1.703125 -5.546875 1.703125 -6.46875 1.8125 -7.21875 C 2.09375 -8.890625 3.140625 -9.015625 3.484375 -9.015625 C 3.953125 -9.015625 4.875 -8.765625 5.140625 -7.375 C 5.28125 -6.59375 5.28125 -5.53125 5.28125 -4.640625 Z M 5.28125 -4.640625 "/>
</g>
</g>
</defs>
<rect x="-39.8" y="-28.9" width="477.6" height="346.8" fill="rgb(100%, 100%, 100%)" fill-opacity="1"/>
<path fill-rule="nonzero" fill="rgb(0%, 0%, 0%)" fill-opacity="1" d="M 59 234 L 259 234 L 259 34 L 59 34 Z M 59 234 "/>
<g fill="rgb(0%, 0%, 0%)" fill-opacity="1">
<use xlink:href="#glyph-0-0-4dfc0aa4" x="139.99969" y="270.284"/>
</g>
<g fill="rgb(0%, 0%, 0%)" fill-opacity="1">
<use xlink:href="#glyph-1-0-4dfc0aa4" x="151.162309" y="270.284"/>
</g>
<g fill="rgb(0%, 0%, 0%)" fill-opacity="1">
<use xlink:href="#glyph-1-1-4dfc0aa4" x="155.05431" y="270.284"/>
</g>
<g fill="rgb(0%, 0%, 0%)" fill-opacity="1">
<use xlink:href="#glyph-1-2-4dfc0aa4" x="162.44631" y="270.284"/>
</g>
<g fill="rgb(0%, 0%, 0%)" fill-opacity="1">
<use xlink:href="#glyph-1-3-4dfc0aa4" x="174.108309" y="270.284"/>
</g>
<g fill="rgb(0%, 0%, 0%)" fill-opacity="1">
<use xlink:href="#glyph-1-4-4dfc0aa4" x="98.771948" y="253.283999"/>
</g>
<g fill="rgb(0%, 0%, 0%)" fill-opacity="1">
<use xlink:href="#glyph-1-5-4dfc0aa4" x="109.663948" y="253.283999"/>
</g>
<g fill="rgb(0%, 0%, 0%)" fill-opacity="1">
<use xlink:href="#glyph-1-6-4dfc0aa4" x="155.499998" y="253.283999"/>
</g>
<g fill="rgb(0%, 0%, 0%)" fill-opacity="1">
<use xlink:href="#glyph-1-5-4dfc0aa4" x="206.782057" y="253.283999"/>
</g>
<g fill="rgb(0%, 0%, 0%)" fill-opacity="1">
<use xlink:href="#glyph-2-0-4dfc0aa4" x="26.499999" y="152.615303"/>
</g>
<g fill="rgb(0%, 0%, 0%)" fill-opacity="1">
<use xlink:href="#glyph-3-0-4dfc0aa4" x="26.499999" y="142.222683"/>
</g>
<g fill="rgb(0%, 0%, 0%)" fill-opacity="1">
<use xlink:href="#glyph-4-0-4dfc0aa4" x="26.5" y="138.330684"/>
</g>
<g fill="rgb(0%, 0%, 0%)" fill-opacity="1">
<use xlink:href="#glyph-5-0-4dfc0aa4" x="26.5" y="130.938685"/>
</g>
<g fill="rgb(0%, 0%, 0%)" fill-opacity="1">
<use xlink:href="#glyph-6-0-4dfc0aa4" x="26.500001" y="119.276685"/>
</g>
<g fill="rgb(0%, 0%, 0%)" fill-opacity="1">
<use xlink:href="#glyph-1-5-4dfc0aa4" x="42" y="189.566048"/>
</g>
<g fill="rgb(0%, 0%, 0%)" fill-opacity="1">
<use xlink:href="#glyph-1-7-4dfc0aa4" x="35" y="138.283996"/>
</g>
<g fill="rgb(0%, 0%, 0%)" fill-opacity="1">
<use xlink:href="#glyph-1-6-4dfc0aa4" x="42" y="138.283996"/>
</g>
<g fill="rgb(0%, 0%, 0%)" fill-opacity="1">
<use xlink:href="#glyph-1-7-4dfc0aa4" x="35" y="87.001935"/>
</g>
<g fill="rgb(0%, 0%, 0%)" fill-opacity="1">
<use xlink:href="#glyph-1-5-4dfc0aa4" x="42" y="87.001935"/>
</g>
<g fill="rgb(0%, 0%, 0%)" fill-opacity="1">
<use xlink:href="#glyph-7-0-4dfc0aa4" x="91.928382" y="27.129992"/>
</g>
<g fill="rgb(0%, 0%, 0%)" fill-opacity="1">
<use xlink:href="#glyph-8-0-4dfc0aa4" x="99.37638" y="27.129992"/>
</g>
<g fill="rgb(0%, 0%, 0%)" fill-opacity="1">
<use xlink:href="#glyph-8-1-4dfc0aa4" x="112.998381" y="27.129992"/>
</g>
<g fill="rgb(0%, 0%, 0%)" fill-opacity="1">
<use xlink:href="#glyph-9-0-4dfc0aa4" x="119.998381" y="27.129992"/>
</g>
<g fill="rgb(0%, 0%, 0%)" fill-opacity="1">
<use xlink:href="#glyph-8-2-4dfc0aa4" x="123.89038" y="27.129992"/>
</g>
<g fill="rgb(0%, 0%, 0%)" fill-opacity="1">
<use xlink:href="#glyph-8-3-4dfc0aa4" x="135.557002" y="27.129992"/>
</g>
<g fill="rgb(0%, 0%, 0%)" fill-opacity="1">
<use xlink:href="#glyph-8-4-4dfc0aa4" x="143.341002" y="27.129992"/>
</g>
<g fill="rgb(0%, 0%, 0%)" fill-opacity="1">
<use xlink:href="#glyph-7-1-4dfc0aa4" x="161.233" y="27.129992"/>
</g>
<g fill="rgb(0%, 0%, 0%)" fill-opacity="1">
<use xlink:href="#glyph-8-0-4dfc0aa4" x="170.836996" y="27.129992"/>
</g>
<g fill="rgb(0%, 0%, 0%)" fill-opacity="1">
<use xlink:href="#glyph-8-2-4dfc0aa4" x="184.459005" y="27.129992"/>
</g>
<g fill="rgb(0%, 0%, 0%)" fill-opacity="1">
<use xlink:href="#glyph-8-5-4dfc0aa4" x="191.459005" y="27.129992"/>
</g>
<g fill="rgb(0%, 0%, 0%)" fill-opacity="1">
<use xlink:href="#glyph-8-2-4dfc0aa4" x="195.351003" y="27.129992"/>
</g>
<g fill="rgb(0%, 0%, 0%)" fill-opacity="1">
<use xlink:href="#glyph-8-6-4dfc0aa4" x="207.017622" y="27.129992"/>
</g>
<g fill="rgb(0%, 0%, 0%)" fill-opacity="1">
<use xlink:href="#glyph-8-7-4dfc0aa4" x="214.40962" y="27.129992"/>
</g>
<path fill-rule="evenodd" fill="rgb(0%, 0%, 38.4%)" fill-opacity="1" d="M 223.386719 34 L 215.925781 34 L 217.972656 34.105469 L 223.101562 34.054688 Z M 223.386719 34 "/>
<path fill-rule="evenodd" fill="rgb(0%, 0%, 38.4%)" fill-opacity="1" d="M 94.898438 34.007812 L 100.027344 34.058594 L 101.261719 34 L 94.847656 34 Z M 94.898438 34.007812 "/>
<path fill-rule="evenodd" fill="rgb(0%, 0%, 38.4%)" fill-opacity="1" d="M 161.5625 34.65625 L 163.296875 34 L 154.023438 34 L 156.4375 34.953125 Z M 161.5625 34.65625 "/>
<path fill-rule="evenodd" fill="rgb(0%, 0%, 57.999998%)" fill-opacity="1" d="M 227.144531 34 L 223.386719 34 L 223.101562 34.054688 L 217.972656 34.105469 L 215.925781 34 L 207.296875 34 L 207.71875 34.054688 L 212.847656 34.609375 L 217.972656 34.835938 L 223.101562 34.792969 Z M 227.144531 34 "/>
<path fill-rule="evenodd" fill="rgb(0%, 0%, 57.999998%)" fill-opacity="1" d="M 91 34 L 94.898438 34.753906 L 100.027344 34.796875 L 105.152344 34.582031 L 110.28125 34.070312 L 110.824219 34 L 101.261719 34 L 100.027344 34.058594 L 94.898438 34.007812 L 94.847656 34 Z M 91 34 "/>
<path fill-rule="evenodd" fill="rgb(0%, 0%, 57.999998%)" fill-opacity="1" d="M 156.4375 34.953125 L 154.023438 34 L 151.613281 34 L 156.4375 35.90625 L 161.5625 35.597656 L 165.78125 34 L 163.296875 34 L 161.5625 34.65625 Z M 156.4375 34.953125 "/>
<path fill-rule="evenodd" fill="rgb(0%, 0%, 74.800003%)" fill-opacity="1" d="M 230.371094 34 L 227.144531 34 L 223.101562 34.792969 L 217.972656 34.835938 L 212.847656 34.609375 L 207.71875 34.054688 L 207.296875 34 L 198.992188 34 L 202.589844 34.269531 L 207.71875 34.925781 L 212.847656 35.378906 L 217.972656 35.570312 L 223.101562 35.53125 L 228.230469 34.636719 Z M 230.371094 34 "/>
<path fill-rule="evenodd" fill="rgb(0%, 0%, 74.800003%)" fill-opacity="1" d="M 170.277344 34 L 165.78125 34 L 161.5625 35.597656 L 156.4375 35.90625 L 151.613281 34 L 146.601562 34 L 151.308594 34.730469 L 156.4375 36.859375 L 161.5625 36.542969 L 166.691406 34.546875 Z M 170.277344 34 "/>
<path fill-rule="evenodd" fill="rgb(0%, 0%, 74.800003%)" fill-opacity="1" d="M 119.40625 34 L 110.824219 34 L 110.28125 34.070312 L 105.152344 34.582031 L 100.027344 34.796875 L 94.898438 34.753906 L 91 34 L 87.691406 34 L 89.769531 34.613281 L 94.898438 35.496094 L 100.027344 35.535156 L 105.152344 35.359375 L 110.28125 34.9375 L 115.410156 34.300781 Z M 119.40625 34 "/>
<path fill-rule="evenodd" fill="rgb(0%, 0%, 94.400001%)" fill-opacity="1" d="M 233.429688 34 L 230.371094 34 L 228.230469 34.636719 L 223.101562 35.53125 L 217.972656 35.570312 L 212.847656 35.378906 L 207.71875 34.925781 L 202.589844 34.269531 L 198.992188 34 L 170.277344 34 L 166.691406 34.546875 L 161.5625 36.542969 L 156.4375 36.859375 L 151.308594 34.730469 L 146.601562 34 L 119.40625 34 L 115.410156 34.300781 L 110.28125 34.9375 L 105.152344 35.359375 L 100.027344 35.535156 L 94.898438 35.496094 L 89.769531 34.613281 L 87.691406 34 L 84.613281 34 L 84.640625 34.003906 L 89.769531 35.519531 L 94.898438 36.238281 L 100.027344 36.277344 L 105.152344 36.136719 L 110.28125 35.800781 L 115.410156 35.273438 L 120.539062 34.90625 L 125.667969 34.800781 L 130.792969 34.671875 L 135.921875 34.566406 L 141.050781 34.839844 L 146.179688 34.894531 L 151.308594 35.5625 L 156.4375 37.808594 L 161.5625 37.484375 L 166.691406 35.414062 L 171.820312 34.734375 L 176.949219 34.789062 L 182.078125 34.53125 L 187.207031 34.644531 L 192.332031 34.777344 L 197.460938 34.878906 L 202.589844 35.246094 L 207.71875 35.792969 L 212.847656 36.152344 L 217.972656 36.304688 L 223.101562 36.269531 L 228.230469 35.539062 L 233.359375 34.007812 Z M 233.429688 34 "/>
<path fill-rule="evenodd" fill="rgb(20%, 20%, 100%)" fill-opacity="1" d="M 247.464844 34 L 233.429688 34 L 233.359375 34.007812 L 228.230469 35.539062 L 223.101562 36.269531 L 217.972656 36.304688 L 212.847656 36.152344 L 207.71875 35.792969 L 202.589844 35.246094 L 197.460938 34.878906 L 192.332031 34.777344 L 187.207031 34.644531 L 182.078125 34.53125 L 176.949219 34.789062 L 171.820312 34.734375 L 166.691406 35.414062 L 161.5625 37.484375 L 156.4375 37.808594 L 151.308594 35.5625 L 146.179688 34.894531 L 141.050781 34.839844 L 135.921875 34.566406 L 130.792969 34.671875 L 125.667969 34.800781 L 120.539062 34.90625 L 115.410156 35.273438 L 110.28125 35.800781 L 105.152344 36.136719 L 100.027344 36.277344 L 94.898438 36.238281 L 89.769531 35.519531 L 84.640625 34.003906 L 84.613281 34 L 70.605469 34 L 74.382812 34.328125 L 79.511719 34.648438 L 84.640625 35.277344 L 89.769531 36.421875 L 94.898438 36.984375 L 100.027344 37.015625 L 105.152344 36.914062 L 110.28125 36.667969 L 115.410156 36.246094 L 120.539062 35.898438 L 125.667969 35.789062 L 130.792969 35.660156 L 135.921875 35.566406 L 141.050781 35.820312 L 146.179688 35.867188 L 151.308594 36.398438 L 156.4375 38.761719 L 161.5625 38.425781 L 166.691406 36.28125 L 171.820312 35.746094 L 176.949219 35.777344 L 182.078125 35.539062 L 187.207031 35.636719 L 192.332031 35.765625 L 197.460938 35.871094 L 202.589844 36.21875 L 207.71875 36.660156 L 212.847656 36.925781 L 217.972656 37.035156 L 223.101562 37.007812 L 228.230469 36.4375 L 233.359375 35.28125 L 238.488281 34.652344 L 243.617188 34.332031 Z M 247.464844 34 "/>
<path fill-rule="evenodd" fill="rgb(47.999999%, 47.999999%, 100%)" fill-opacity="1" d="M 257.4375 34 L 247.464844 34 L 243.617188 34.332031 L 238.488281 34.652344 L 233.359375 35.28125 L 228.230469 36.4375 L 223.101562 37.007812 L 217.972656 37.035156 L 212.847656 36.925781 L 207.71875 36.660156 L 202.589844 36.21875 L 197.460938 35.871094 L 192.332031 35.765625 L 187.207031 35.636719 L 182.078125 35.539062 L 176.949219 35.777344 L 171.820312 35.746094 L 166.691406 36.28125 L 161.5625 38.425781 L 156.4375 38.761719 L 151.308594 36.398438 L 146.179688 35.867188 L 141.050781 35.820312 L 135.921875 35.566406 L 130.792969 35.660156 L 125.667969 35.789062 L 120.539062 35.898438 L 115.410156 36.246094 L 110.28125 36.667969 L 105.152344 36.914062 L 100.027344 37.015625 L 94.898438 36.984375 L 89.769531 36.421875 L 84.640625 35.277344 L 79.511719 34.648438 L 74.382812 34.328125 L 70.605469 34 L 60.574219 34 L 64.128906 34.765625 L 69.257812 35.363281 L 74.382812 35.691406 L 79.511719 35.996094 L 84.640625 36.554688 L 89.769531 37.328125 L 94.898438 37.726562 L 100.027344 37.753906 L 105.152344 37.691406 L 110.28125 37.535156 L 115.410156 37.21875 L 120.539062 36.890625 L 125.667969 36.777344 L 130.792969 36.652344 L 135.921875 36.566406 L 141.050781 36.800781 L 146.179688 36.839844 L 151.308594 37.234375 L 155.339844 39.128906 L 156.4375 42.480469 L 161.5625 40.613281 L 162.078125 39.128906 L 166.691406 37.148438 L 171.820312 36.757812 L 176.949219 36.769531 L 182.078125 36.542969 L 187.207031 36.628906 L 192.332031 36.753906 L 197.460938 36.867188 L 202.589844 37.195312 L 207.71875 37.53125 L 212.847656 37.699219 L 217.972656 37.769531 L 223.101562 37.742188 L 228.230469 37.335938 L 233.359375 36.550781 L 238.488281 35.996094 L 243.617188 35.691406 L 248.742188 35.367188 L 253.871094 34.769531 Z M 257.4375 34 "/>
<path fill-rule="evenodd" fill="rgb(47.999999%, 47.999999%, 100%)" fill-opacity="1" d="M 156.4375 75.949219 L 153.359375 80.152344 L 154.847656 85.28125 L 156.4375 88.914062 L 158.199219 85.28125 L 159.492188 80.152344 Z M 156.4375 75.949219 "/>
<path fill-rule="evenodd" fill="rgb(72.000003%, 72.000003%, 100%)" fill-opacity="1" d="M 257.4375 34 L 253.871094 34.769531 L 248.742188 35.367188 L 243.617188 35.691406 L 238.488281 35.996094 L 233.359375 36.550781 L 228.230469 37.335938 L 223.101562 37.742188 L 217.972656 37.769531 L 212.847656 37.699219 L 207.71875 37.53125 L 202.589844 37.195312 L 197.460938 36.867188 L 192.332031 36.753906 L 187.207031 36.628906 L 182.078125 36.542969 L 176.949219 36.769531 L 171.820312 36.757812 L 166.691406 37.148438 L 162.078125 39.128906 L 161.5625 40.613281 L 156.4375 42.480469 L 155.339844 39.128906 L 151.308594 37.234375 L 146.179688 36.839844 L 141.050781 36.800781 L 135.921875 36.566406 L 130.792969 36.652344 L 125.667969 36.777344 L 120.539062 36.890625 L 115.410156 37.21875 L 110.28125 37.535156 L 105.152344 37.691406 L 100.027344 37.753906 L 94.898438 37.726562 L 89.769531 37.328125 L 84.640625 36.554688 L 79.511719 35.996094 L 74.382812 35.691406 L 69.257812 35.363281 L 64.128906 34.765625 L 60.574219 34 L 59 34 L 59 35.574219 L 64.128906 36.402344 L 69.257812 36.851562 L 74.382812 37.054688 L 79.511719 37.339844 L 84.640625 37.828125 L 89.769531 38.230469 L 94.898438 38.46875 L 100.027344 38.492188 L 105.152344 38.464844 L 110.28125 38.402344 L 115.410156 38.191406 L 120.539062 37.882812 L 125.667969 37.761719 L 130.792969 37.640625 L 135.921875 37.566406 L 141.050781 37.78125 L 146.179688 37.8125 L 151.308594 38.070312 L 153.5625 39.128906 L 154.351562 44.257812 L 155.019531 49.382812 L 155.226562 54.511719 L 155 59.640625 L 154.265625 64.769531 L 151.308594 68.554688 L 150.203125 69.898438 L 148.140625 75.027344 L 148.886719 80.152344 L 151.308594 83.519531 L 152.199219 85.28125 L 154.371094 90.410156 L 156.4375 93.308594 L 159.167969 90.410156 L 161.144531 85.28125 L 161.5625 84.34375 L 163.675781 80.152344 L 164.339844 75.027344 L 163.25 69.898438 L 162.664062 64.769531 L 162.542969 59.640625 L 162.386719 54.511719 L 162.417969 49.382812 L 163.011719 44.257812 L 164.097656 39.128906 L 166.691406 38.015625 L 171.820312 37.765625 L 176.949219 37.757812 L 182.078125 37.550781 L 187.207031 37.625 L 192.332031 37.742188 L 197.460938 37.859375 L 202.589844 38.171875 L 207.71875 38.398438 L 212.847656 38.472656 L 217.972656 38.503906 L 223.101562 38.480469 L 228.230469 38.234375 L 233.359375 37.824219 L 238.488281 37.339844 L 243.617188 37.054688 L 248.742188 36.855469 L 253.871094 36.402344 L 259 35.574219 L 259 34 Z M 156.4375 75.949219 L 159.492188 80.152344 L 158.199219 85.28125 L 156.4375 88.914062 L 154.847656 85.28125 L 153.359375 80.152344 Z M 156.4375 75.949219 "/>
<path fill-rule="evenodd" fill="rgb(100%, 100%, 100%)" fill-opacity="1" d="M 259 37.5625 L 259 35.574219 L 253.871094 36.402344 L 248.742188 36.855469 L 243.617188 37.054688 L 238.488281 37.339844 L 233.359375 37.824219 L 228.230469 38.234375 L 223.101562 38.480469 L 217.972656 38.503906 L 212.847656 38.472656 L 207.71875 38.398438 L 202.589844 38.171875 L 197.460938 37.859375 L 192.332031 37.742188 L 187.207031 37.625 L 182.078125 37.550781 L 176.949219 37.757812 L 171.820312 37.765625 L 166.691406 38.015625 L 164.097656 39.128906 L 163.011719 44.257812 L 162.417969 49.382812 L 162.386719 54.511719 L 162.542969 59.640625 L 162.664062 64.769531 L 163.25 69.898438 L 164.339844 75.027344 L 163.675781 80.152344 L 161.5625 84.34375 L 161.144531 85.28125 L 159.167969 90.410156 L 156.4375 93.308594 L 154.371094 90.410156 L 152.199219 85.28125 L 151.308594 83.519531 L 148.886719 80.152344 L 148.140625 75.027344 L 150.203125 69.898438 L 151.308594 68.554688 L 154.265625 64.769531 L 155 59.640625 L 155.226562 54.511719 L 155.019531 49.382812 L 154.351562 44.257812 L 153.5625 39.128906 L 151.308594 38.070312 L 146.179688 37.8125 L 141.050781 37.78125 L 135.921875 37.566406 L 130.792969 37.640625 L 125.667969 37.761719 L 120.539062 37.882812 L 115.410156 38.191406 L 110.28125 38.402344 L 105.152344 38.464844 L 100.027344 38.492188 L 94.898438 38.46875 L 89.769531 38.230469 L 84.640625 37.828125 L 79.511719 37.339844 L 74.382812 37.054688 L 69.257812 36.851562 L 64.128906 36.402344 L 59 35.574219 L 59 37.558594 L 64.128906 38.039062 L 69.257812 38.34375 L 74.382812 38.417969 L 79.511719 38.6875 L 84.640625 39.101562 L 88.433594 39.128906 L 84.640625 39.457031 L 79.511719 42.164062 L 74.382812 42.9375 L 69.257812 42.902344 L 64.128906 43.019531 L 59 43.050781 L 59 234 L 259 234 L 259 43.050781 L 253.871094 43.023438 L 248.742188 42.90625 L 243.617188 42.949219 L 238.488281 42.167969 L 233.359375 39.542969 L 229.195312 39.128906 L 233.359375 39.09375 L 238.488281 38.683594 L 243.617188 38.414062 L 248.742188 38.34375 L 253.871094 38.039062 Z M 197.460938 38.855469 L 202.261719 39.128906 L 197.460938 44.007812 L 193.863281 44.257812 L 192.332031 44.355469 L 187.664062 44.257812 L 187.207031 44.25 L 182.078125 44.003906 L 176.949219 43.847656 L 171.820312 43.824219 L 166.691406 43.671875 L 166.117188 39.128906 L 166.691406 38.882812 L 171.820312 38.777344 L 176.949219 38.75 L 182.078125 38.554688 L 187.207031 38.617188 L 192.332031 38.734375 Z M 151.308594 38.902344 L 151.785156 39.128906 L 151.308594 43.957031 L 146.179688 44.046875 L 141.050781 43.667969 L 135.921875 44.003906 L 130.792969 44.234375 L 128.617188 44.257812 L 125.667969 44.308594 L 124.933594 44.257812 L 120.539062 43.902344 L 116.089844 39.128906 L 120.539062 38.875 L 125.667969 38.75 L 130.792969 38.628906 L 135.921875 38.570312 L 141.050781 38.765625 L 146.179688 38.785156 Z M 147.363281 116.050781 L 151.308594 115.289062 L 152.273438 116.050781 L 156.4375 117.730469 L 158.941406 116.050781 L 161.5625 113.683594 L 164.398438 110.921875 L 162.804688 105.792969 L 162.917969 100.667969 L 163.046875 95.539062 L 164.855469 90.410156 L 166.191406 85.28125 L 166.691406 82.648438 L 171.820312 83.300781 L 176.019531 85.28125 L 176.949219 85.851562 L 178 85.28125 L 182.078125 83.535156 L 185.945312 80.152344 L 187.207031 78.488281 L 190.511719 80.152344 L 191.800781 85.28125 L 192.332031 86.480469 L 192.941406 90.410156 L 192.332031 91.53125 L 187.207031 91.976562 L 182.078125 91.785156 L 176.949219 92.207031 L 172.199219 95.539062 L 171.820312 97.253906 L 170.125 100.667969 L 171.820312 103.035156 L 172.296875 105.792969 L 173.1875 110.921875 L 173.480469 116.050781 L 171.820312 118.839844 L 169.683594 121.179688 L 166.691406 122.96875 L 161.5625 124.199219 L 156.4375 124.445312 L 151.308594 123.328125 L 146.972656 121.179688 Z M 130.792969 79.695312 L 131.199219 80.152344 L 135.921875 83.800781 L 139.535156 85.28125 L 141.050781 86.027344 L 143.308594 85.28125 L 146.179688 84.996094 L 146.304688 85.28125 L 151.308594 89.632812 L 151.632812 90.410156 L 153.03125 95.539062 L 152.367188 100.667969 L 151.308594 102.078125 L 150.332031 100.667969 L 147.046875 95.539062 L 146.179688 93.667969 L 141.050781 91.921875 L 135.921875 91.746094 L 130.792969 92.089844 L 125.667969 91.144531 L 125.371094 90.410156 L 125.667969 88.683594 L 127.417969 85.28125 L 130.128906 80.152344 Z M 130.792969 79.695312 "/>
<path fill-rule="evenodd" fill="rgb(100%, 72.000003%, 72.000003%)" fill-opacity="1" d="M 259 37.5625 L 253.871094 38.039062 L 248.742188 38.34375 L 243.617188 38.414062 L 238.488281 38.683594 L 233.359375 39.09375 L 229.195312 39.128906 L 233.359375 39.542969 L 238.488281 42.167969 L 243.617188 42.949219 L 248.742188 42.90625 L 253.871094 43.023438 L 259 43.050781 Z M 259 37.5625 "/>
<path fill-rule="evenodd" fill="rgb(100%, 72.000003%, 72.000003%)" fill-opacity="1" d="M 197.460938 38.855469 L 192.332031 38.734375 L 187.207031 38.617188 L 182.078125 38.554688 L 176.949219 38.75 L 171.820312 38.777344 L 166.691406 38.882812 L 166.117188 39.128906 L 166.691406 43.671875 L 171.820312 43.824219 L 176.949219 43.847656 L 182.078125 44.003906 L 187.207031 44.25 L 187.664062 44.257812 L 192.332031 44.355469 L 193.863281 44.257812 L 197.460938 44.007812 L 202.261719 39.128906 Z M 197.460938 38.855469 "/>
<path fill-rule="evenodd" fill="rgb(100%, 72.000003%, 72.000003%)" fill-opacity="1" d="M 151.308594 38.902344 L 146.179688 38.785156 L 141.050781 38.765625 L 135.921875 38.570312 L 130.792969 38.628906 L 125.667969 38.75 L 120.539062 38.875 L 116.089844 39.128906 L 120.539062 43.902344 L 124.933594 44.257812 L 125.667969 44.308594 L 128.617188 44.257812 L 130.792969 44.234375 L 135.921875 44.003906 L 141.050781 43.667969 L 146.179688 44.046875 L 151.308594 43.957031 L 151.785156 39.128906 Z M 151.308594 38.902344 "/>
<path fill-rule="evenodd" fill="rgb(100%, 72.000003%, 72.000003%)" fill-opacity="1" d="M 79.511719 38.6875 L 74.382812 38.417969 L 69.257812 38.34375 L 64.128906 38.039062 L 59 37.558594 L 59 43.050781 L 64.128906 43.019531 L 69.257812 42.902344 L 74.382812 42.9375 L 79.511719 42.164062 L 84.640625 39.457031 L 88.433594 39.128906 L 84.640625 39.101562 Z M 79.511719 38.6875 "/>
<path fill-rule="evenodd" fill="rgb(100%, 72.000003%, 72.000003%)" fill-opacity="1" d="M 187.207031 78.488281 L 185.945312 80.152344 L 182.078125 83.535156 L 178 85.28125 L 176.949219 85.851562 L 176.019531 85.28125 L 171.820312 83.300781 L 166.691406 82.648438 L 166.191406 85.28125 L 164.855469 90.410156 L 163.046875 95.539062 L 162.917969 100.667969 L 162.804688 105.792969 L 164.398438 110.921875 L 161.5625 113.683594 L 158.941406 116.050781 L 156.4375 117.730469 L 152.273438 116.050781 L 151.308594 115.289062 L 147.363281 116.050781 L 146.972656 121.179688 L 151.308594 123.328125 L 156.4375 124.445312 L 161.5625 124.199219 L 166.691406 122.96875 L 169.683594 121.179688 L 171.820312 118.839844 L 173.480469 116.050781 L 173.1875 110.921875 L 172.296875 105.792969 L 171.820312 103.035156 L 170.125 100.667969 L 171.820312 97.253906 L 172.199219 95.539062 L 176.949219 92.207031 L 182.078125 91.785156 L 187.207031 91.976562 L 192.332031 91.53125 L 192.941406 90.410156 L 192.332031 86.480469 L 191.800781 85.28125 L 190.511719 80.152344 Z M 187.207031 78.488281 "/>
<path fill-rule="evenodd" fill="rgb(100%, 72.000003%, 72.000003%)" fill-opacity="1" d="M 130.792969 79.695312 L 130.128906 80.152344 L 127.417969 85.28125 L 125.667969 88.683594 L 125.371094 90.410156 L 125.667969 91.144531 L 130.792969 92.089844 L 135.921875 91.746094 L 141.050781 91.921875 L 146.179688 93.667969 L 147.046875 95.539062 L 150.332031 100.667969 L 151.308594 102.078125 L 152.367188 100.667969 L 153.03125 95.539062 L 151.632812 90.410156 L 151.308594 89.632812 L 146.304688 85.28125 L 146.179688 84.996094 L 143.308594 85.28125 L 141.050781 86.027344 L 139.535156 85.28125 L 135.921875 83.800781 L 131.199219 80.152344 Z M 130.792969 79.695312 "/>
<path fill-rule="nonzero" fill="rgb(0%, 0%, 38.4%)" fill-opacity="1" d="M 277 234 L 289 234 L 289 210.777344 L 277 210.777344 Z M 277 234 "/>
<path fill-rule="nonzero" fill="rgb(0%, 0%, 57.999998%)" fill-opacity="1" d="M 277 211.777344 L 289 211.777344 L 289 188.554688 L 277 188.554688 Z M 277 211.777344 "/>
<path fill-rule="nonzero" fill="rgb(0%, 0%, 74.800003%)" fill-opacity="1" d="M 277 189.554688 L 289 189.554688 L 289 166.332031 L 277 166.332031 Z M 277 189.554688 "/>
<path fill-rule="nonzero" fill="rgb(0%, 0%, 94.400001%)" fill-opacity="1" d="M 277 167.332031 L 289 167.332031 L 289 144.109375 L 277 144.109375 Z M 277 167.332031 "/>
<path fill-rule="nonzero" fill="rgb(20%, 20%, 100%)" fill-opacity="1" d="M 277 145.109375 L 289 145.109375 L 289 121.890625 L 277 121.890625 Z M 277 145.109375 "/>
<path fill-rule="nonzero" fill="rgb(47.999999%, 47.999999%, 100%)" fill-opacity="1" d="M 277 122.890625 L 289 122.890625 L 289 99.667969 L 277 99.667969 Z M 277 122.890625 "/>
<path fill-rule="nonzero" fill="rgb(72.000003%, 72.000003%, 100%)" fill-opacity="1" d="M 277 100.667969 L 289 100.667969 L 289 77.445312 L 277 77.445312 Z M 277 100.667969 "/>
<path fill-rule="nonzero" fill="rgb(100%, 100%, 100%)" fill-opacity="1" d="M 277 78.445312 L 289 78.445312 L 289 55.222656 L 277 55.222656 Z M 277 78.445312 "/>
<path fill-rule="nonzero" fill="rgb(100%, 72.000003%, 72.000003%)" fill-opacity="1" d="M 277 56.222656 L 289 56.222656 L 289 34 L 277 34 Z M 277 56.222656 "/>
<path fill="none" stroke-width="1" stroke-linecap="butt" stroke-linejoin="miter" stroke="rgb(0%, 0%, 0%)" stroke-opacity="1" stroke-miterlimit="2" d="M 289 234 L 289 34 L 277 34 L 277 234 Z M 289 234 "/>
<g fill="rgb(0%, 0%, 0%)" fill-opacity="1">
<use xlink:href="#glyph-10-0-4dfc0aa4" x="379.664005" y="150.305303"/>
</g>
<g fill="rgb(0%, 0%, 0%)" fill-opacity="1">
<use xlink:href="#glyph-11-0-4dfc0aa4" x="378.264005" y="145.335305"/>
</g>
<g fill="rgb(0%, 0%, 0%)" fill-opacity="1">
<use xlink:href="#glyph-12-0-4dfc0aa4" x="379.664006" y="136.370685"/>
</g>
<g fill="rgb(0%, 0%, 0%)" fill-opacity="1">
<use xlink:href="#glyph-10-1-4dfc0aa4" x="379.664006" y="132.478685"/>
</g>
<g fill="rgb(0%, 0%, 0%)" fill-opacity="1">
<use xlink:href="#glyph-13-0-4dfc0aa4" x="379.664007" y="121.586686"/>
</g>
<g fill="rgb(0%, 0%, 0%)" fill-opacity="1">
<use xlink:href="#glyph-1-8-4dfc0aa4" x="297.999997" y="238.283999"/>
</g>
<g fill="rgb(0%, 0%, 0%)" fill-opacity="1">
<use xlink:href="#glyph-1-9-4dfc0aa4" x="302.661997" y="238.283999"/>
</g>
<g fill="rgb(0%, 0%, 0%)" fill-opacity="1">
<use xlink:href="#glyph-1-10-4dfc0aa4" x="309.661997" y="238.283999"/>
</g>
<g fill="rgb(0%, 0%, 0%)" fill-opacity="1">
<use xlink:href="#glyph-1-7-4dfc0aa4" x="313.553997" y="238.283999"/>
</g>
<g fill="rgb(0%, 0%, 0%)" fill-opacity="1">
<use xlink:href="#glyph-1-11-4dfc0aa4" x="320.553997" y="238.283999"/>
</g>
<g fill="rgb(0%, 0%, 0%)" fill-opacity="1">
<use xlink:href="#glyph-1-12-4dfc0aa4" x="327.553997" y="238.283999"/>
</g>
<g fill="rgb(0%, 0%, 0%)" fill-opacity="1">
<use xlink:href="#glyph-1-13-4dfc0aa4" x="337.087998" y="238.283999"/>
</g>
<g fill="rgb(0%, 0%, 0%)" fill-opacity="1">
<use xlink:href="#glyph-1-6-4dfc0aa4" x="347.98" y="238.283999"/>
</g>
<g fill="rgb(0%, 0%, 0%)" fill-opacity="1">
<use xlink:href="#glyph-1-6-4dfc0aa4" x="354.98" y="238.283999"/>
</g>
<g fill="rgb(0%, 0%, 0%)" fill-opacity="1">
<use xlink:href="#glyph-1-8-4dfc0aa4" x="297.999997" y="216.061769"/>
</g>
<g fill="rgb(0%, 0%, 0%)" fill-opacity="1">
<use xlink:href="#glyph-1-14-4dfc0aa4" x="302.661997" y="216.061769"/>
</g>
<g fill="rgb(0%, 0%, 0%)" fill-opacity="1">
<use xlink:href="#glyph-1-10-4dfc0aa4" x="309.661997" y="216.061769"/>
</g>
<g fill="rgb(0%, 0%, 0%)" fill-opacity="1">
<use xlink:href="#glyph-1-9-4dfc0aa4" x="313.553997" y="216.061769"/>
</g>
<g fill="rgb(0%, 0%, 0%)" fill-opacity="1">
<use xlink:href="#glyph-1-15-4dfc0aa4" x="320.553997" y="216.061769"/>
</g>
<g fill="rgb(0%, 0%, 0%)" fill-opacity="1">
<use xlink:href="#glyph-1-12-4dfc0aa4" x="327.553997" y="216.061769"/>
</g>
<g fill="rgb(0%, 0%, 0%)" fill-opacity="1">
<use xlink:href="#glyph-1-13-4dfc0aa4" x="337.087998" y="216.061769"/>
</g>
<g fill="rgb(0%, 0%, 0%)" fill-opacity="1">
<use xlink:href="#glyph-1-6-4dfc0aa4" x="347.98" y="216.061769"/>
</g>
<g fill="rgb(0%, 0%, 0%)" fill-opacity="1">
<use xlink:href="#glyph-1-6-4dfc0aa4" x="354.98" y="216.061769"/>
</g>
<g fill="rgb(0%, 0%, 0%)" fill-opacity="1">
<use xlink:href="#glyph-1-8-4dfc0aa4" x="297.999997" y="193.839555"/>
</g>
<g fill="rgb(0%, 0%, 0%)" fill-opacity="1">
<use xlink:href="#glyph-1-15-4dfc0aa4" x="302.661997" y="193.839555"/>
</g>
<g fill="rgb(0%, 0%, 0%)" fill-opacity="1">
<use xlink:href="#glyph-1-10-4dfc0aa4" x="309.661997" y="193.839555"/>
</g>
<g fill="rgb(0%, 0%, 0%)" fill-opacity="1">
<use xlink:href="#glyph-1-14-4dfc0aa4" x="313.553997" y="193.839555"/>
</g>
<g fill="rgb(0%, 0%, 0%)" fill-opacity="1">
<use xlink:href="#glyph-1-16-4dfc0aa4" x="320.553997" y="193.839555"/>
</g>
<g fill="rgb(0%, 0%, 0%)" fill-opacity="1">
<use xlink:href="#glyph-1-12-4dfc0aa4" x="327.553997" y="193.839555"/>
</g>
<g fill="rgb(0%, 0%, 0%)" fill-opacity="1">
<use xlink:href="#glyph-1-13-4dfc0aa4" x="337.087998" y="193.839555"/>
</g>
<g fill="rgb(0%, 0%, 0%)" fill-opacity="1">
<use xlink:href="#glyph-1-6-4dfc0aa4" x="347.98" y="193.839555"/>
</g>
<g fill="rgb(0%, 0%, 0%)" fill-opacity="1">
<use xlink:href="#glyph-1-6-4dfc0aa4" x="354.98" y="193.839555"/>
</g>
<g fill="rgb(0%, 0%, 0%)" fill-opacity="1">
<use xlink:href="#glyph-1-8-4dfc0aa4" x="297.999997" y="171.617325"/>
</g>
<g fill="rgb(0%, 0%, 0%)" fill-opacity="1">
<use xlink:href="#glyph-1-5-4dfc0aa4" x="302.661997" y="171.617325"/>
</g>
<g fill="rgb(0%, 0%, 0%)" fill-opacity="1">
<use xlink:href="#glyph-1-10-4dfc0aa4" x="309.661997" y="171.617325"/>
</g>
<g fill="rgb(0%, 0%, 0%)" fill-opacity="1">
<use xlink:href="#glyph-1-5-4dfc0aa4" x="313.553997" y="171.617325"/>
</g>
<g fill="rgb(0%, 0%, 0%)" fill-opacity="1">
<use xlink:href="#glyph-1-7-4dfc0aa4" x="320.553997" y="171.617325"/>
</g>
<g fill="rgb(0%, 0%, 0%)" fill-opacity="1">
<use xlink:href="#glyph-1-12-4dfc0aa4" x="327.553997" y="171.617325"/>
</g>
<g fill="rgb(0%, 0%, 0%)" fill-opacity="1">
<use xlink:href="#glyph-1-13-4dfc0aa4" x="337.087998" y="171.617325"/>
</g>
<g fill="rgb(0%, 0%, 0%)" fill-opacity="1">
<use xlink:href="#glyph-1-6-4dfc0aa4" x="347.98" y="171.617325"/>
</g>
<g fill="rgb(0%, 0%, 0%)" fill-opacity="1">
<use xlink:href="#glyph-1-6-4dfc0aa4" x="354.98" y="171.617325"/>
</g>
<g fill="rgb(0%, 0%, 0%)" fill-opacity="1">
<use xlink:href="#glyph-1-8-4dfc0aa4" x="297.999997" y="149.395111"/>
</g>
<g fill="rgb(0%, 0%, 0%)" fill-opacity="1">
<use xlink:href="#glyph-1-17-4dfc0aa4" x="302.661997" y="149.395111"/>
</g>
<g fill="rgb(0%, 0%, 0%)" fill-opacity="1">
<use xlink:href="#glyph-1-10-4dfc0aa4" x="309.661997" y="149.395111"/>
</g>
<g fill="rgb(0%, 0%, 0%)" fill-opacity="1">
<use xlink:href="#glyph-1-18-4dfc0aa4" x="313.553997" y="149.395111"/>
</g>
<g fill="rgb(0%, 0%, 0%)" fill-opacity="1">
<use xlink:href="#glyph-1-11-4dfc0aa4" x="320.553997" y="149.395111"/>
</g>
<g fill="rgb(0%, 0%, 0%)" fill-opacity="1">
<use xlink:href="#glyph-1-12-4dfc0aa4" x="327.553997" y="149.395111"/>
</g>
<g fill="rgb(0%, 0%, 0%)" fill-opacity="1">
<use xlink:href="#glyph-1-13-4dfc0aa4" x="337.087998" y="149.395111"/>
</g>
<g fill="rgb(0%, 0%, 0%)" fill-opacity="1">
<use xlink:href="#glyph-1-6-4dfc0aa4" x="347.98" y="149.395111"/>
</g>
<g fill="rgb(0%, 0%, 0%)" fill-opacity="1">
<use xlink:href="#glyph-1-6-4dfc0aa4" x="354.98" y="149.395111"/>
</g>
<g fill="rgb(0%, 0%, 0%)" fill-opacity="1">
<use xlink:href="#glyph-1-8-4dfc0aa4" x="297.999997" y="127.172881"/>
</g>
<g fill="rgb(0%, 0%, 0%)" fill-opacity="1">
<use xlink:href="#glyph-1-16-4dfc0aa4" x="302.661997" y="127.172881"/>
</g>
<g fill="rgb(0%, 0%, 0%)" fill-opacity="1">
<use xlink:href="#glyph-1-10-4dfc0aa4" x="309.661997" y="127.172881"/>
</g>
<g fill="rgb(0%, 0%, 0%)" fill-opacity="1">
<use xlink:href="#glyph-1-6-4dfc0aa4" x="313.553997" y="127.172881"/>
</g>
<g fill="rgb(0%, 0%, 0%)" fill-opacity="1">
<use xlink:href="#glyph-1-15-4dfc0aa4" x="320.553997" y="127.172881"/>
</g>
<g fill="rgb(0%, 0%, 0%)" fill-opacity="1">
<use xlink:href="#glyph-1-12-4dfc0aa4" x="327.553997" y="127.172881"/>
</g>
<g fill="rgb(0%, 0%, 0%)" fill-opacity="1">
<use xlink:href="#glyph-1-13-4dfc0aa4" x="337.087998" y="127.172881"/>
</g>
<g fill="rgb(0%, 0%, 0%)" fill-opacity="1">
<use xlink:href="#glyph-1-6-4dfc0aa4" x="347.98" y="127.172881"/>
</g>
<g fill="rgb(0%, 0%, 0%)" fill-opacity="1">
<use xlink:href="#glyph-1-6-4dfc0aa4" x="354.98" y="127.172881"/>
</g>
<g fill="rgb(0%, 0%, 0%)" fill-opacity="1">
<use xlink:href="#glyph-1-8-4dfc0aa4" x="297.999997" y="104.950666"/>
</g>
<g fill="rgb(0%, 0%, 0%)" fill-opacity="1">
<use xlink:href="#glyph-1-7-4dfc0aa4" x="302.661997" y="104.950666"/>
</g>
<g fill="rgb(0%, 0%, 0%)" fill-opacity="1">
<use xlink:href="#glyph-1-10-4dfc0aa4" x="309.661997" y="104.950666"/>
</g>
<g fill="rgb(0%, 0%, 0%)" fill-opacity="1">
<use xlink:href="#glyph-1-11-4dfc0aa4" x="313.553997" y="104.950666"/>
</g>
<g fill="rgb(0%, 0%, 0%)" fill-opacity="1">
<use xlink:href="#glyph-1-17-4dfc0aa4" x="320.553997" y="104.950666"/>
</g>
<g fill="rgb(0%, 0%, 0%)" fill-opacity="1">
<use xlink:href="#glyph-1-12-4dfc0aa4" x="327.553997" y="104.950666"/>
</g>
<g fill="rgb(0%, 0%, 0%)" fill-opacity="1">
<use xlink:href="#glyph-1-13-4dfc0aa4" x="337.087998" y="104.950666"/>
</g>
<g fill="rgb(0%, 0%, 0%)" fill-opacity="1">
<use xlink:href="#glyph-1-6-4dfc0aa4" x="347.98" y="104.950666"/>
</g>
<g fill="rgb(0%, 0%, 0%)" fill-opacity="1">
<use xlink:href="#glyph-1-6-4dfc0aa4" x="354.98" y="104.950666"/>
</g>
<g fill="rgb(0%, 0%, 0%)" fill-opacity="1">
<use xlink:href="#glyph-1-8-4dfc0aa4" x="297.999997" y="82.728437"/>
</g>
<g fill="rgb(0%, 0%, 0%)" fill-opacity="1">
<use xlink:href="#glyph-1-15-4dfc0aa4" x="302.661997" y="82.728437"/>
</g>
<g fill="rgb(0%, 0%, 0%)" fill-opacity="1">
<use xlink:href="#glyph-1-10-4dfc0aa4" x="309.661997" y="82.728437"/>
</g>
<g fill="rgb(0%, 0%, 0%)" fill-opacity="1">
<use xlink:href="#glyph-1-7-4dfc0aa4" x="313.553997" y="82.728437"/>
</g>
<g fill="rgb(0%, 0%, 0%)" fill-opacity="1">
<use xlink:href="#glyph-1-18-4dfc0aa4" x="320.553997" y="82.728437"/>
</g>
<g fill="rgb(0%, 0%, 0%)" fill-opacity="1">
<use xlink:href="#glyph-1-12-4dfc0aa4" x="327.553997" y="82.728437"/>
</g>
<g fill="rgb(0%, 0%, 0%)" fill-opacity="1">
<use xlink:href="#glyph-1-8-4dfc0aa4" x="337.087998" y="82.728437"/>
</g>
<g fill="rgb(0%, 0%, 0%)" fill-opacity="1">
<use xlink:href="#glyph-1-6-4dfc0aa4" x="341.749996" y="82.728437"/>
</g>
<g fill="rgb(0%, 0%, 0%)" fill-opacity="1">
<use xlink:href="#glyph-1-7-4dfc0aa4" x="348.749996" y="82.728437"/>
</g>
<g fill="rgb(0%, 0%, 0%)" fill-opacity="1">
<use xlink:href="#glyph-14-0-4dfc0aa4" x="302.647997" y="60.506222"/>
</g>
<g fill="rgb(0%, 0%, 0%)" fill-opacity="1">
<use xlink:href="#glyph-14-1-4dfc0aa4" x="309.647996" y="60.506222"/>
</g>
<g fill="rgb(0%, 0%, 0%)" fill-opacity="1">
<use xlink:href="#glyph-14-2-4dfc0aa4" x="313.539997" y="60.506222"/>
</g>
<g fill="rgb(0%, 0%, 0%)" fill-opacity="1">
<use xlink:href="#glyph-14-3-4dfc0aa4" x="320.539997" y="60.506222"/>
</g>
<g fill="rgb(0%, 0%, 0%)" fill-opacity="1">
<use xlink:href="#glyph-14-4-4dfc0aa4" x="327.539997" y="60.506222"/>
</g>
<g fill="rgb(0%, 0%, 0%)" fill-opacity="1">
<use xlink:href="#glyph-14-5-4dfc0aa4" x="337.073998" y="60.506222"/>
</g>
<g fill="rgb(0%, 0%, 0%)" fill-opacity="1">
<use xlink:href="#glyph-14-6-4dfc0aa4" x="341.735996" y="60.506222"/>
</g>
<g fill="rgb(0%, 0%, 0%)" fill-opacity="1">
<use xlink:href="#glyph-14-2-4dfc0aa4" x="348.735996" y="60.506222"/>
</g>
<g fill="rgb(0%, 0%, 0%)" fill-opacity="1">
<use xlink:href="#glyph-1-7-4dfc0aa4" x="302.647997" y="38.283993"/>
</g>
<g fill="rgb(0%, 0%, 0%)" fill-opacity="1">
<use xlink:href="#glyph-1-10-4dfc0aa4" x="309.647996" y="38.283993"/>
</g>
<g fill="rgb(0%, 0%, 0%)" fill-opacity="1">
<use xlink:href="#glyph-1-11-4dfc0aa4" x="313.539997" y="38.283993"/>
</g>
<g fill="rgb(0%, 0%, 0%)" fill-opacity="1">
<use xlink:href="#glyph-1-17-4dfc0aa4" x="320.539997" y="38.283993"/>
</g>
<g fill="rgb(0%, 0%, 0%)" fill-opacity="1">
<use xlink:href="#glyph-1-12-4dfc0aa4" x="327.539997" y="38.283993"/>
</g>
<g fill="rgb(0%, 0%, 0%)" fill-opacity="1">
<use xlink:href="#glyph-1-13-4dfc0aa4" x="337.073998" y="38.283993"/>
</g>
<g fill="rgb(0%, 0%, 0%)" fill-opacity="1">
<use xlink:href="#glyph-1-6-4dfc0aa4" x="347.966" y="38.283993"/>
</g>
<g fill="rgb(0%, 0%, 0%)" fill-opacity="1">
<use xlink:href="#glyph-1-6-4dfc0aa4" x="354.966" y="38.283993"/>
</g>
<path fill="none" stroke-width="1" stroke-linecap="butt" stroke-linejoin="miter" stroke="rgb(0%, 0%, 0%)" stroke-opacity="1" stroke-miterlimit="1.154701" d="M 107.71875 234.5 L 107.71875 239.5 "/>
<path fill="none" stroke-width="1" stroke-linecap="butt" stroke-linejoin="miter" stroke="rgb(0%, 0%, 0%)" stroke-opacity="1" stroke-miterlimit="1.154701" d="M 159 234.5 L 159 239.5 "/>
<path fill="none" stroke-width="1" stroke-linecap="butt" stroke-linejoin="miter" stroke="rgb(0%, 0%, 0%)" stroke-opacity="1" stroke-miterlimit="1.154701" d="M 210.28125 234.5 L 210.28125 239.5 "/>
<path fill="none" stroke-width="1" stroke-linecap="butt" stroke-linejoin="miter" stroke="rgb(0%, 0%, 0%)" stroke-opacity="1" stroke-miterlimit="1.154701" d="M 58.5 185.28125 L 53.5 185.28125 "/>
<path fill="none" stroke-width="1" stroke-linecap="butt" stroke-linejoin="miter" stroke="rgb(0%, 0%, 0%)" stroke-opacity="1" stroke-miterlimit="1.154701" d="M 58.5 134 L 53.5 134 "/>
<path fill="none" stroke-width="1" stroke-linecap="butt" stroke-linejoin="miter" stroke="rgb(0%, 0%, 0%)" stroke-opacity="1" stroke-miterlimit="1.154701" d="M 58.5 82.71875 L 53.5 82.71875 "/>
<path fill="none" stroke-width="1" stroke-linecap="butt" stroke-linejoin="miter" stroke="rgb(0%, 0%, 0%)" stroke-opacity="1" stroke-miterlimit="1.154701" d="M 289.5 234 L 294.5 234 "/>
<path fill="none" stroke-width="1" stroke-linecap="butt" stroke-linejoin="miter" stroke="rgb(0%, 0%, 0%)" stroke-opacity="1" stroke-miterlimit="1.154701" d="M 289.5 211.777344 L 294.5 211.777344 "/>
<path fill="none" stroke-width="1" stroke-linecap="butt" stroke-linejoin="miter" stroke="rgb(0%, 0%, 0%)" stroke-opacity="1" stroke-miterlimit="1.154701" d="M 289.5 189.554688 L 294.5 189.554688 "/>
<path fill="none" stroke-width="1" stroke-linecap="butt" stroke-linejoin="miter" stroke="rgb(0%, 0%, 0%)" stroke-opacity="1" stroke-miterlimit="1.154701" d="M 289.5 167.332031 L 294.5 167.332031 "/>
<path fill="none" stroke-width="1" stroke-linecap="butt" stroke-linejoin="miter" stroke="rgb(0%, 0%, 0%)" stroke-opacity="1" stroke-miterlimit="1.154701" d="M 289.5 145.109375 L 294.5 145.109375 "/>
<path fill="none" stroke-width="1" stroke-linecap="butt" stroke-linejoin="miter" stroke="rgb(0%, 0%, 0%)" stroke-opacity="1" stroke-miterlimit="1.154701" d="M 289.5 122.890625 L 294.5 122.890625 "/>
<path fill="none" stroke-width="1" stroke-linecap="butt" stroke-linejoin="miter" stroke="rgb(0%, 0%, 0%)" stroke-opacity="1" stroke-miterlimit="1.154701" d="M 289.5 100.667969 L 294.5 100.667969 "/>
<path fill="none" stroke-width="1" stroke-linecap="butt" stroke-linejoin="miter" stroke="rgb(0%, 0%, 0%)" stroke-opacity="1" stroke-miterlimit="1.154701" d="M 289.5 78.445312 L 294.5 78.445312 "/>
<path fill="none" stroke-width="1" stroke-linecap="butt" stroke-linejoin="miter" stroke="rgb(0%, 0%, 0%)" stroke-opacity="1" stroke-miterlimit="1.154701" d="M 289.5 56.222656 L 294.5 56.222656 "/>
<path fill="none" stroke-width="1" stroke-linecap="butt" stroke-linejoin="miter" stroke="rgb(0%, 0%, 0%)" stroke-opacity="1" stroke-miterlimit="1.154701" d="M 289.5 34 L 294.5 34 "/>
<path fill="none" stroke-width="1" stroke-linecap="butt" stroke-linejoin="miter" stroke="rgb(0%, 0%, 0%)" stroke-opacity="1" stroke-miterlimit="1.154701" d="M 58.5 234 L 259.5 234 "/>
<path fill="none" stroke-width="1" stroke-linecap="butt" stroke-linejoin="miter" stroke="rgb(0%, 0%, 0%)" stroke-opacity="1" stroke-miterlimit="1.154701" d="M 59 234.5 L 59 33.5 "/>
<path fill="none" stroke-width="1" stroke-linecap="butt" stroke-linejoin="miter" stroke="rgb(0%, 0%, 0%)" stroke-opacity="1" stroke-miterlimit="1.154701" d="M 58.5 34 L 259.5 34 "/>
<path fill="none" stroke-width="1" stroke-linecap="butt" stroke-linejoin="miter" stroke="rgb(0%, 0%, 0%)" stroke-opacity="1" stroke-miterlimit="1.154701" d="M 259 234.5 L 259 33.5 "/>
</svg>
